<svg width="201" height="122" viewBox="0 0 201 122" fill="none" xmlns="http://www.w3.org/2000/svg">
<path d="M1 47.4238C1.27886 44.6393 2.92491 42.044 2.92491 39.2374C2.92491 36.7135 3.15691 33.7031 4.20818 31.4069C5.2331 29.1682 6.08044 25.9065 8.20058 24.3595C10.9717 22.3374 13.7023 20.2291 16.3993 18.0951C20.8361 14.5844 26.7075 12.2091 31.9411 10.2646C36.941 8.40698 42.092 6.83862 47.1978 5.13922C64.3923 -0.583698 83.0437 1.29517 101.095 1.29517C117.592 1.29517 133.048 3.78326 148.933 8.20022C156.48 10.2989 166.418 12.7658 172.959 17.4544C174.756 18.7432 176.291 20.6398 177.842 22.1883C181.065 25.4061 184.558 27.9098 188.073 30.7662C197.22 38.2005 198.643 48.8182 199.765 59.739C201.087 72.616 196.761 83.741 188.643 93.6236C176.757 108.093 155.875 115.065 138.31 119.179C120.504 123.35 101.228 121.211 83.6285 117.257C77.0301 115.775 69.6761 114.788 63.7378 111.349C57.4336 107.698 52.8497 103.043 48.1246 97.5388C40.9739 89.2088 39.4982 81.9015 39.4982 71.3423C39.4982 64.1441 40.1459 57.2446 42.5638 50.4848C45.3978 42.5615 54.5093 36.8338 61.8129 33.6137C76.0017 27.3578 94.0716 25.2477 109.437 27.0645C118.753 28.1661 126.986 33.1923 135.245 37.173C141.247 40.0662 145.571 43.4582 150.002 48.2068C153.112 51.5392 152.426 55.8548 152.426 60.0949C152.426 64.0499 152.648 69.1868 149.86 72.4101C143.952 79.2403 137.902 84.5223 129.185 87.7863C115.209 93.0193 98.917 90.0158 85.9099 83.5863C80.6122 80.9676 76.1179 77.1566 78.1389 70.3457C79.6478 65.261 80.7725 61.9619 86.195 60.0949C92.2411 58.0132 97.0688 57.3611 103.662 57.6746C104.402 57.7098 108.88 59.2915 106.87 57.0339C105.841 55.8776 105.086 54.763 103.662 53.9729C103.362 53.8064 99.4555 51.371 99.4555 51.5526C99.4555 52.0748 102.608 54.0592 103.02 54.4712C103.992 55.4412 109.953 59.0558 108.652 60.0949C106.684 61.6669 100.319 63.3128 97.8871 63.4406C94.7752 63.6042 100.174 62.9874 101.238 62.6576C102.524 62.259 104.424 61.0231 105.587 60.8779C106.42 60.7739 108.027 59.5966 106.228 59.5966C105.748 59.5966 102.936 60.5028 103.662 60.0949C110.023 56.522 101.401 52.374 97.6732 50.7695C92.8761 48.7049 99.0967 52.5198 100.24 53.3322C101.776 54.4238 106.228 56.1596 106.228 58.3152" stroke="#1A1A1A" stroke-linecap="round"/>
</svg>
