<svg width="86" height="319" viewBox="0 0 86 319" fill="none" xmlns="http://www.w3.org/2000/svg">
<path d="M78.7234 316.559C80.602 318.917 85 318.268 85 315.437C84.9999 314.216 84.7127 309.189 83.9274 307.834C81.5408 303.716 79.0132 297.453 78.5645 292.877C78.1506 288.657 75.7469 284.752 72.5263 281.504C69.5227 278.475 69.1913 273.874 67.7592 270.224C66.4467 266.878 63.2938 263.696 61.5621 260.47C60.8184 259.085 61.2989 256.416 61.4032 254.862C61.4629 253.971 63.0894 250.199 62.4758 249.814C60.8649 248.803 58.8564 246.489 57.8279 245.077C56.5775 243.361 52.5554 244.185 53.6965 241.276C54.6298 238.896 54.6017 237.558 54.2526 235.23C54.0458 233.852 50.5103 233.358 49.2473 232.862C46.6724 231.852 47.607 230.626 47.8171 229.061C48.0954 226.987 49.2808 225.212 47.8171 223.203C46.7953 221.8 43.5268 222.948 43.5268 220.928C43.5268 215.328 44.7901 209.752 44.9569 204.257C45.0463 201.312 46.4754 198.532 47.1418 195.657C47.4525 194.316 49.2473 189.627 49.2473 190.141V208.432C49.2473 216.455 50.5737 207.895 51.3924 205.005C52.8554 199.841 56.3543 194.339 59.9731 189.923C63.6829 185.396 70.4001 182.512 72.6852 177.334C73.5232 175.435 76.6217 167.208 72.4468 166.272C67.7135 165.212 61.2772 169.511 58.9005 172.411C55.6745 176.347 50.8487 177.906 45.7171 179.563L45.672 179.578C44.2737 180.03 46.8843 175.88 47.1021 175.496C47.9585 173.984 50.001 172.838 51.3527 171.601C58.3353 165.211 74.2583 158.601 69.9838 148.542C66.818 141.092 59.1511 143.183 51.1143 143.183C50.5558 143.183 52.6755 138.347 52.8225 137.885C53.2801 136.449 53.5644 135.039 54.4115 133.71C56.2301 130.857 58.4071 128.134 60.5292 125.421C63.7586 121.293 68.5898 115.774 69.9441 110.994C71.0442 107.111 74.2742 105.326 74.2742 100.929C74.2742 98.9673 79.2516 93.1629 80.8686 91.7678C84.3708 88.7459 84.6436 85.7577 83.5302 81.8276C82.9694 79.8481 79.9401 77.7516 78.7234 75.9383C77.5719 74.2221 76.301 72.4376 74.9892 70.7656C73.8455 69.3077 73.6362 65.9768 73.5591 64.2843C73.4692 62.3099 73.6867 59.4564 74.4331 57.5536C76.3897 52.5656 74.3091 46.1193 71.7715 41.4748C70.6795 39.4761 69.2197 38.3189 66.8058 37.237C65.0006 36.4279 68 33.5 63.8662 33.5C61.5 33.5 68.9025 26.6715 66.8058 26.5801C63.8752 26.4524 60.8901 27.2139 59.9731 24.3366C57.9329 17.9353 53.9589 21.9377 54.2526 15.487C54.3724 12.8562 54.2526 10.2045 54.2526 7.57225C54.2526 6.09931 55.1611 2.45374 54.2526 1.02856C54.0129 0.65249 49.6865 4.09967 49.4062 4.95477C48.3329 8.22871 47.4387 13.5727 49.2473 16.7646C50.1258 18.3152 52.8862 21.2772 54.8088 21.9684C56.7561 22.6685 56.9511 25.2427 57.669 26.5801C59.8261 30.5986 58.9232 37.4951 59.2183 41.6618C59.7472 49.1291 62.0618 56.4517 63.8662 63.7857C64.8089 67.6175 66.4659 72.7661 68.9113 76.2187L68.9863 76.3246C70.6762 78.7098 71.632 80.0588 70.54 82.7313C66.2559 93.2159 61.4734 103.629 53.8554 113.019C50.8826 116.684 48.998 120.858 46.7048 124.798C44.2706 128.98 42.3071 134.176 38.8392 137.885C35.009 141.982 30.9807 145.313 28.5107 150.1C25.7845 155.383 23.5053 160.959 23.5053 166.678C23.5053 168.775 25.1235 171.029 26.008 172.972C26.8728 174.871 26.3655 177.375 26.3655 179.391C26.3655 181.452 19.887 185.911 17.6259 184.314C15.5931 182.879 14.2096 182.886 14.2096 180.263C14.2096 178.065 13.9582 175.393 13.4548 173.221C12.7 169.965 10.8639 166.031 12.1041 162.627C12.4015 161.81 15.5252 161.232 16.3547 161.193C19.1098 161.066 21.4425 160.071 17.0698 160.071C14.6707 160.071 12.8989 160.42 12.7794 158.077C12.6758 156.045 12.8754 154.003 12.7794 151.97C12.634 148.89 10.3685 148.938 8.64803 151.097C6.64526 153.611 4.00366 155.961 2.05363 158.638C0.418747 160.882 1.10396 165.373 1.3783 167.955C1.6149 170.182 1.70449 174.049 3.12621 176.057C5.57439 179.513 9.82822 181.93 12.2233 185.311C13.6755 187.362 18.5523 188.868 15.2821 190.92C13.2974 192.166 13.0672 194.17 12.7397 195.968C12.2593 198.606 12.3776 197.772 14.7657 199.458C15.5807 200.034 18.748 200.51 19.93 200.455C21.555 200.38 19.2274 201.802 18.341 202.574C17.2656 203.512 16.6964 204.986 15.4808 205.94C-1.34283 219.136 20.2423 242.199 35.979 249.253C38.7539 250.496 34.2581 254.954 33.3572 256.544C32.6276 257.832 31.0895 259.646 32.9202 260.813C36.6331 263.18 39.5556 266.151 44.2419 267.201C48.2541 268.1 52.1075 269.725 52.1075 273.371C52.1075 278.681 56.9003 284.293 61.2443 288.079C62.9614 289.575 64.0704 291.691 65.6935 293.282C67.1025 294.664 68.7862 294.972 69.9838 296.617C70.7721 297.699 72.3576 298.818 72.8043 300.044C73.3062 301.422 73.0913 303.302 73.9564 304.562C76.5889 308.397 75.976 313.111 78.7234 316.559Z" stroke="#1A1A1A" stroke-linecap="round"/>
</svg>
