<svg width="86" height="319" viewBox="0 0 86 319" fill="none" xmlns="http://www.w3.org/2000/svg">
<path d="M7.27659 316.559C5.39803 318.917 1 318.268 1 315.437C1.00007 314.216 1.2873 309.189 2.07258 307.834C4.4592 303.716 6.98681 297.453 7.43549 292.877C7.84941 288.657 10.2531 284.752 13.4737 281.504C16.4773 278.475 16.8087 273.874 18.2408 270.224C19.5533 266.878 22.7062 263.696 24.4379 260.47C25.1816 259.085 24.7011 256.416 24.5968 254.862C24.5371 253.971 22.9106 250.199 23.5242 249.814C25.1351 248.803 27.1436 246.489 28.1721 245.077C29.4225 243.361 33.4446 244.185 32.3035 241.276C31.3702 238.896 31.3983 237.558 31.7474 235.23C31.9542 233.852 35.4897 233.358 36.7527 232.862C39.3276 231.852 38.393 230.626 38.1829 229.061C37.9046 226.987 36.7192 225.212 38.1829 223.203C39.2047 221.8 42.4732 222.948 42.4732 220.928C42.4732 215.328 41.2099 209.752 41.0431 204.257C40.9537 201.312 39.5246 198.532 38.8582 195.657C38.5475 194.316 36.7527 189.627 36.7527 190.141V208.432C36.7527 216.455 35.4263 207.895 34.6076 205.005C33.1446 199.841 29.6457 194.339 26.0269 189.923C22.3171 185.396 15.5999 182.512 13.3148 177.334C12.4768 175.435 9.37833 167.208 13.5532 166.272C18.2865 165.212 24.7228 169.511 27.0995 172.411C30.3255 176.347 35.1513 177.906 40.2829 179.563L40.328 179.578C41.7263 180.03 39.1157 175.88 38.8979 175.496C38.0415 173.984 35.999 172.838 34.6473 171.601C27.6647 165.211 11.7417 158.601 16.0162 148.542C19.182 141.092 26.8489 143.183 34.8857 143.183C35.4442 143.183 33.3245 138.347 33.1775 137.885C32.7199 136.449 32.4356 135.039 31.5885 133.71C29.7699 130.857 27.5929 128.134 25.4708 125.421C22.2414 121.293 17.4102 115.774 16.0559 110.994C14.9558 107.111 11.7258 105.326 11.7258 100.929C11.7258 98.9673 6.74838 93.1629 5.13143 91.7678C1.62918 88.7459 1.35643 85.7577 2.46983 81.8276C3.03064 79.8481 6.05991 77.7516 7.27659 75.9383C8.42811 74.2221 9.69904 72.4376 11.0108 70.7656C12.1545 69.3077 12.3638 65.9768 12.4409 64.2843C12.5308 62.3099 12.3133 59.4564 11.5669 57.5536C9.61029 52.5656 11.6909 46.1193 14.2285 41.4748C15.3205 39.4761 16.7803 38.3189 19.1942 37.237C20.9994 36.4279 18 33.5 22.1338 33.5C24.5 33.5 17.0975 26.6715 19.1942 26.5801C22.1248 26.4524 25.1099 27.2139 26.0269 24.3366C28.0671 17.9353 32.0411 21.9377 31.7474 15.487C31.6276 12.8562 31.7474 10.2045 31.7474 7.57225C31.7474 6.09931 30.8389 2.45374 31.7474 1.02856C31.9871 0.65249 36.3135 4.09967 36.5938 4.95477C37.6671 8.22871 38.5613 13.5727 36.7527 16.7646C35.8742 18.3152 33.1138 21.2772 31.1912 21.9684C29.2439 22.6685 29.0489 25.2427 28.331 26.5801C26.1739 30.5986 27.0768 37.4951 26.7817 41.6618C26.2528 49.1291 23.9382 56.4517 22.1338 63.7857C21.1911 67.6175 19.5341 72.7661 17.0887 76.2187L17.0137 76.3246C15.3238 78.7098 14.368 80.0588 15.46 82.7313C19.7441 93.2159 24.5266 103.629 32.1446 113.019C35.1174 116.684 37.002 120.858 39.2952 124.798C41.7294 128.98 43.6929 134.176 47.1608 137.885C50.991 141.982 55.0193 145.313 57.4893 150.1C60.2155 155.383 62.4947 160.959 62.4947 166.678C62.4947 168.775 60.8765 171.029 59.992 172.972C59.1272 174.871 59.6345 177.375 59.6345 179.391C59.6345 181.452 66.113 185.911 68.3741 184.314C70.4069 182.879 71.7904 182.886 71.7904 180.263C71.7904 178.065 72.0418 175.393 72.5452 173.221C73.3 169.965 75.1361 166.031 73.8959 162.627C73.5985 161.81 70.4748 161.232 69.6453 161.193C66.8902 161.066 64.5575 160.071 68.9302 160.071C71.3293 160.071 73.1011 160.42 73.2206 158.077C73.3242 156.045 73.1246 154.003 73.2206 151.97C73.366 148.89 75.6315 148.938 77.352 151.097C79.3547 153.611 81.9963 155.961 83.9464 158.638C85.5813 160.882 84.896 165.373 84.6217 167.955C84.3851 170.182 84.2955 174.049 82.8738 176.057C80.4256 179.513 76.1718 181.93 73.7767 185.311C72.3245 187.362 67.4477 188.868 70.7179 190.92C72.7026 192.166 72.9328 194.17 73.2603 195.968C73.7407 198.606 73.6224 197.772 71.2343 199.458C70.4193 200.034 67.252 200.51 66.07 200.455C64.445 200.38 66.7726 201.802 67.659 202.574C68.7344 203.512 69.3036 204.986 70.5192 205.94C87.3428 219.136 65.7577 242.199 50.021 249.253C47.2461 250.496 51.7419 254.954 52.6428 256.544C53.3724 257.832 54.9105 259.646 53.0798 260.813C49.3669 263.18 46.4444 266.151 41.7581 267.201C37.7459 268.1 33.8925 269.725 33.8925 273.371C33.8925 278.681 29.0997 284.293 24.7557 288.079C23.0386 289.575 21.9296 291.691 20.3065 293.282C18.8975 294.664 17.2138 294.972 16.0162 296.617C15.2279 297.699 13.6424 298.818 13.1957 300.044C12.6938 301.422 12.9087 303.302 12.0436 304.562C9.41114 308.397 10.024 313.111 7.27659 316.559Z" stroke="#1A1A1A" stroke-linecap="round"/>
</svg>
