<svg width="144" height="144" viewBox="0 0 144 144" fill="none" xmlns="http://www.w3.org/2000/svg">
<path d="M65.2725 38.8H78.7125L102.713 106H90.4245L84.8565 89.2H58.4565L52.7925 106H41.2725L65.2725 38.8ZM81.4005 78.64L71.8965 49.84H71.7045L62.0085 78.64H81.4005Z" fill="#1A1A1A"/>
<path d="M49.3167 6.2H55.0767C57.2367 6.2 58.7727 6.6 59.6847 7.4C60.6127 8.2 61.0767 9.32 61.0767 10.76C61.0767 12.312 60.3647 13.472 58.9407 14.24V14.288C60.6847 15.024 61.5567 16.312 61.5567 18.152C61.5567 19.736 61.0927 20.944 60.1647 21.776C59.2527 22.592 57.7167 23 55.5567 23H49.3167V6.2ZM52.1967 8.84V13.16H54.9567C56.1247 13.16 56.9327 12.976 57.3807 12.608C57.8287 12.24 58.0527 11.704 58.0527 11C58.0527 10.296 57.8287 9.76 57.3807 9.392C56.9327 9.024 56.1247 8.84 54.9567 8.84H52.1967ZM52.1967 15.56V20.36H55.4367C56.6047 20.36 57.4127 20.168 57.8607 19.784C58.3087 19.384 58.5327 18.776 58.5327 17.96C58.5327 17.144 58.3087 16.544 57.8607 16.16C57.4127 15.76 56.6047 15.56 55.4367 15.56H52.1967ZM69.1195 23.24C67.3115 23.24 65.8955 22.728 64.8715 21.704C63.8635 20.664 63.3595 19.184 63.3595 17.264V16.736C63.3595 15.792 63.4875 14.952 63.7435 14.216C64.0155 13.48 64.3995 12.856 64.8955 12.344C65.4075 11.832 66.0155 11.44 66.7195 11.168C67.4235 10.896 68.2235 10.76 69.1195 10.76C70.9275 10.76 72.3355 11.28 73.3435 12.32C74.3675 13.344 74.8795 14.816 74.8795 16.736V17.264C74.8795 18.208 74.7435 19.048 74.4715 19.784C74.2155 20.52 73.8315 21.144 73.3195 21.656C72.8235 22.168 72.2155 22.56 71.4955 22.832C70.7915 23.104 69.9995 23.24 69.1195 23.24ZM69.1195 20.696C69.9995 20.696 70.6875 20.424 71.1835 19.88C71.6955 19.32 71.9515 18.448 71.9515 17.264V16.736C71.9515 15.584 71.6955 14.728 71.1835 14.168C70.6715 13.592 69.9835 13.304 69.1195 13.304C68.2395 13.304 67.5435 13.584 67.0315 14.144C66.5355 14.688 66.2875 15.552 66.2875 16.736V17.264C66.2875 18.416 66.5435 19.28 67.0555 19.856C67.5675 20.416 68.2555 20.696 69.1195 20.696ZM81.2108 23C80.5548 23 80.0028 22.92 79.5548 22.76C79.1068 22.6 78.7388 22.392 78.4508 22.136C78.1628 21.88 77.9388 21.6 77.7788 21.296C77.6188 20.976 77.4988 20.672 77.4188 20.384C77.3548 20.096 77.3148 19.832 77.2988 19.592C77.2828 19.352 77.2748 19.168 77.2748 19.04V6.2H80.0588V18.752C80.0588 19.888 80.6108 20.456 81.7148 20.456H82.3148V23H81.2108ZM88.5078 23.24C86.9878 23.24 85.7718 22.744 84.8598 21.752C83.9638 20.76 83.5158 19.264 83.5158 17.264V16.736C83.5158 14.752 83.9718 13.264 84.8838 12.272C85.8118 11.264 87.0198 10.76 88.5078 10.76C89.1958 10.76 89.8438 10.888 90.4518 11.144C91.0758 11.4 91.5798 11.752 91.9638 12.2H92.0118V6.2H94.7958V23H92.6358C92.6198 22.936 92.5958 22.832 92.5638 22.688C92.5478 22.544 92.5238 22.4 92.4918 22.256C92.4758 22.112 92.4598 21.976 92.4438 21.848C92.4278 21.72 92.4118 21.624 92.3958 21.56H92.3478C91.3718 22.68 90.0918 23.24 88.5078 23.24ZM89.2278 20.696C90.0918 20.696 90.7718 20.424 91.2678 19.88C91.7638 19.32 92.0118 18.44 92.0118 17.24V16.712C92.0118 15.56 91.7558 14.704 91.2438 14.144C90.7478 13.584 90.0758 13.304 89.2278 13.304C88.3638 13.304 87.6838 13.576 87.1878 14.12C86.6918 14.664 86.4438 15.536 86.4438 16.736V17.264C86.4438 18.432 86.6918 19.296 87.1878 19.856C87.6998 20.416 88.3798 20.696 89.2278 20.696Z" fill="#1A1A1A"/>
<path d="M20.495 29.9506C20.5624 29.782 21.3243 29.6876 21.5025 29.6318C21.8453 29.5244 22.072 29.2807 22.3914 29.1307C23.0954 28.7999 22.2852 29.1863 22.0681 29.3129C21.6923 29.5321 21.3236 29.5762 20.9314 29.7279C20.7118 29.8129 20.3264 29.8113 20.1503 29.9506C19.7653 30.2552 20.2328 30.9243 20.3065 31.2818C20.4642 32.0474 20.799 32.839 21.1254 33.5545C21.1621 33.635 21.5163 34.1458 21.4432 33.9594C21.2754 33.5315 21.205 33.055 21.0823 32.613C20.8886 31.9154 20.6892 31.4087 20.3496 30.7706C20.3058 30.6883 20.0374 30.2114 20.1072 30.2442C20.4092 30.3861 20.6723 30.56 21.0014 30.6795C21.7632 30.956 22.7533 30.8655 23.555 30.9731C24.9277 31.1573 26.3923 31.2031 27.7786 31.2261C30.9585 31.279 34.14 31.3173 37.3247 31.3173C41.102 31.3173 44.8873 31.2261 48.6702 31.2261C54.2464 31.2261 59.8162 31.3173 65.3922 31.3173C73.6043 31.3173 81.8184 31.4995 90.0333 31.4995C95.5831 31.4995 101.128 31.4084 106.68 31.4084C111.366 31.4084 116.058 31.2261 120.74 31.2261C121.322 31.2261 121.739 31.1342 122.292 30.9731C122.438 30.9304 124.024 30.4743 124 30.4517C123.889 30.3477 123.596 30.4109 123.456 30.4062C122.986 30.3904 122.524 30.3151 122.044 30.3151C121.476 30.3151 120.912 30.0417 120.32 30.0417C119.934 30.0417 119.576 29.8761 119.189 29.8595C118.549 29.8322 119.522 29.8454 119.695 29.8595C120.488 29.9243 121.337 29.9466 122.12 30.062C122.554 30.126 123.219 30.0166 122.949 30.5378C122.547 31.3153 122.096 31.8604 121.543 32.5421C121.239 32.9171 120.921 33.2973 120.714 33.7265C120.405 34.3633 120.808 33.644 120.956 33.4127" stroke="#1A1A1A" stroke-linecap="round"/>
</svg>
