<svg width="121" height="104" viewBox="0 0 121 104" fill="none" xmlns="http://www.w3.org/2000/svg">
<path d="M12.7538 2.46492C19.4675 -0.518954 32.8207 1.97922 41.1655 1.97925C49.5102 1.97928 58.2395 6.35028 66.4203 6.35028C78.701 6.35028 91.2076 10.3576 103.574 10.7213C107.826 10.8464 114.888 12.9543 118.63 15.0923C121.548 16.76 119.323 25.076 116.444 25.8985L116.395 25.9126C109.037 28.0149 100.721 30.3909 92.5251 30.3909C65.1236 30.3909 37.7594 27.5699 11.661 21.7703C-1.6377 18.815 3.83579 6.42847 12.7538 2.46492Z" stroke="#1A1A1A" stroke-linecap="round"/>
<path d="M12.4996 74.8919C19.2134 71.908 32.5666 74.4062 40.9113 74.4063C49.2561 74.4063 57.9854 78.7773 66.1662 78.7773C78.4468 78.7773 90.9534 82.7846 103.32 83.1483C107.572 83.2734 114.634 85.3813 118.376 87.5193C121.294 89.187 119.069 97.503 116.19 98.3255L116.141 98.3396C108.783 100.442 100.467 102.818 92.271 102.818C64.8694 102.818 37.5052 99.9969 11.4069 94.1973C-1.89185 91.242 3.58164 78.8555 12.4996 74.8919Z" stroke="#1A1A1A" stroke-linecap="round"/>
<path d="M108.246 38.1839C101.532 35.2 88.1793 37.6982 79.8345 37.6982C71.4898 37.6983 62.7605 42.0693 54.5797 42.0693C42.299 42.0693 29.7924 46.0766 17.4259 46.4403C13.1738 46.5654 6.11173 48.6733 2.37012 50.8113C-0.548294 52.479 1.67693 60.795 4.55564 61.6175L4.60493 61.6316C11.9628 63.7338 20.2791 66.1099 28.4749 66.1099C55.8764 66.1099 83.2406 63.2889 109.339 57.4893C122.638 54.534 117.164 42.1475 108.246 38.1839Z" stroke="#1A1A1A" stroke-linecap="round"/>
</svg>
