<svg width="144" height="144" viewBox="0 0 144 144" fill="none" xmlns="http://www.w3.org/2000/svg">
<path d="M37.6781 38.8H42.0941V69.424H57.8381C57.8381 64.304 58.4781 59.824 59.7581 55.984C61.0381 52.08 62.7981 48.816 65.0381 46.192C67.2781 43.568 69.9661 41.584 73.1021 40.24C76.2381 38.896 79.6301 38.224 83.2781 38.224C86.9901 38.224 90.3821 38.896 93.4541 40.24C96.5901 41.52 99.2781 43.472 101.518 46.096C103.758 48.656 105.518 51.856 106.798 55.696C108.078 59.536 108.718 63.984 108.718 69.04V74.8C108.718 80.048 108.078 84.656 106.798 88.624C105.518 92.592 103.758 95.92 101.518 98.608C99.2781 101.232 96.5901 103.216 93.4541 104.56C90.3181 105.904 86.9261 106.576 83.2781 106.576C79.5661 106.576 76.1421 105.904 73.0061 104.56C69.9341 103.216 67.2461 101.2 64.9421 98.512C62.7021 95.76 60.9421 92.304 59.6621 88.144C58.4461 83.984 57.8381 79.088 57.8381 73.456H42.0941V106H37.6781V38.8ZM83.2781 102.544C86.2221 102.544 88.9741 102 91.5341 100.912C94.0941 99.76 96.3021 98.032 98.1581 95.728C100.014 93.424 101.454 90.544 102.478 87.088C103.566 83.632 104.11 79.536 104.11 74.8V69.04C104.11 64.56 103.566 60.656 102.478 57.328C101.454 54 99.9821 51.216 98.0621 48.976C96.2061 46.736 93.9981 45.072 91.4381 43.984C88.9421 42.832 86.2221 42.256 83.2781 42.256C80.2701 42.256 77.4861 42.832 74.9261 43.984C72.4301 45.072 70.2541 46.736 68.3981 48.976C66.5421 51.216 65.0701 54 63.9821 57.328C62.9581 60.656 62.4461 64.56 62.4461 69.04V73.84C62.4461 78.768 62.9581 83.056 63.9821 86.704C65.0701 90.288 66.5421 93.264 68.3981 95.632C70.3181 98 72.5261 99.76 75.0221 100.912C77.5821 102 80.3341 102.544 83.2781 102.544Z" fill="#1A1A1A"/>
<path d="M35.5847 30.9484C35.5847 29.2882 36.1087 27.7295 36.1087 26.0151C36.1087 25.4631 35.9923 24.1336 36.0505 23.541C36.1087 22.9484 38.0839 22.9484 38.5249 22.9484C44.7444 22.9484 50.942 23.2151 57.1846 23.2151C61.075 23.2151 64.9214 23.2151 68.7996 23.2151C74.9485 23.2151 81.0811 23.4818 87.2264 23.4818C93.1018 23.4818 98.9491 24.0151 104.809 24.0151C105.899 24.0151 106.263 24.5831 106.323 25.6151C106.369 26.419 106.585 27.2572 106.585 28.0151" stroke="#1A1A1A" stroke-linecap="round"/>
</svg>
