<svg width="548" height="525" viewBox="0 0 548 525" fill="none" xmlns="http://www.w3.org/2000/svg">
<path d="M330.424 106.812L340.112 93.4H341.568V106.812H344.424V107.988H341.568V113H340.28V107.988H330.424V106.812ZM340.28 106.812V95.052L331.88 106.812H340.28Z" fill="#1A1A1A"/>
<path d="M409.754 486.664L415.56 471.172L416.965 470.788L420.503 483.724L423.258 482.971L423.568 484.105L420.813 484.859L422.135 489.693L420.893 490.033L419.571 485.199L410.064 487.799L409.754 486.664ZM419.261 484.064L416.158 472.721L411.158 486.28L419.261 484.064Z" fill="#1A1A1A"/>
<path d="M101.264 280.07L108.267 265.081L109.697 264.808L112.21 277.982L115.016 277.447L115.236 278.602L112.431 279.137L113.37 284.061L112.105 284.302L111.166 279.379L101.484 281.226L101.264 280.07ZM110.945 278.224L108.741 266.672L102.694 279.798L110.945 278.224Z" fill="#1A1A1A"/>
<path d="M42.8688 57.0249L55.9381 46.8794L57.3353 47.2889L53.5629 60.1594L56.3036 60.9627L55.9728 62.0913L53.2321 61.2879L51.8224 66.0976L50.5864 65.7353L51.9961 60.9257L42.538 58.1534L42.8688 57.0249ZM52.3269 59.7971L55.6347 48.5119L44.266 57.4344L52.3269 59.7971Z" fill="#1A1A1A"/>
<path d="M0 88.3428C8.51349 88.3428 25.1262 102.03 35.5707 102.03C41.5746 102.03 46.611 103.63 52.6554 103.356C54.9625 103.252 67.5505 100.172 68.9266 101.294C71.1634 103.117 70.5537 112.536 70.5537 115.291C70.5537 120.596 70.5537 125.9 70.5537 131.204C70.5537 139.929 68.9266 148.238 68.9266 156.916C68.9266 162.292 70.5537 166.688 70.5537 171.65C70.5537 185.686 72.1809 199.367 72.1809 213.422C72.1809 215.947 69.9349 224.975 68.1131 226.757C64.3587 230.428 64.7177 239.863 61.695 244.438C57.1368 251.337 52.9223 258.03 45.243 263.151C40.1068 266.575 35.8465 270.79 31.8644 275.159C31.2004 275.888 27.7441 282.232 27.435 282.232C19.8291 282.232 22.2601 260.001 9.08476 270.739C2.33492 276.24 10.21 292.539 20.113 292.988C23.1884 293.127 34.7571 293.881 34.7571 296.303C34.7571 301.363 33.13 306.109 33.13 310.89C33.13 312.394 32.4569 324.667 33.9435 324.667C35.8278 324.667 38.8868 315.226 40.452 314.205C43.3983 312.284 42.0837 304.089 44.8814 301.239C48.3044 297.752 50.5313 295.458 56.2712 294.019C69.5907 290.679 81.9436 294.797 81.9436 306.912C81.9436 312.026 82.2729 316.004 81.9436 320.836C81.6065 325.78 78.6893 330.392 78.6893 335.423C78.6893 339.696 75.2016 345.793 79.0509 349.715C82.7337 353.467 86.2813 356.657 91.7063 358.998C96.5539 361.089 100.366 362.161 105.446 363.344C110.625 364.55 112.035 369.099 115.3 371.227C124.238 377.055 118.71 390.582 127.503 397.749C131.399 400.924 135.205 403.004 139.706 405.042C143.929 406.955 152.196 408.649 155.164 411.673C159.657 416.25 160.297 417.917 158.328 423.534C156.41 429.003 153.634 428.942 147.842 431.564C138.916 435.606 121.441 429.948 114.124 435.911C111.131 438.35 110.772 443.152 109.695 446.225C108.248 450.352 106.35 456.456 106.35 460.738C106.35 468.945 107.639 480.672 111.593 487.923C113.932 492.211 114.199 497.011 116.475 501.184C117.527 503.114 120.262 505.393 120.904 507.225C121.785 509.737 119.367 511.941 119.367 514.445C119.367 517.575 114.807 526.971 123.435 523.065C128.638 520.709 129.13 516.993 129.13 512.456C129.13 507.277 130.469 500.791 128.317 495.88C126.65 492.077 122.622 484.512 122.622 480.63C122.622 477.683 121.339 470.985 119.729 468.032C117.353 463.676 120.713 458.676 120.994 454.771C121.382 449.402 147.144 445.488 152.271 445.488C156.944 445.488 166.545 443.885 168.994 447.477C171.344 450.924 171.345 456.313 171.345 460.665C171.345 474.447 182.825 434.434 182.825 426.26C182.825 418.227 184.456 406.663 196.656 404.453C208.399 402.326 219.754 405.987 230.011 407.032C237.883 407.833 245.136 425.151 247.91 430.238C257.007 446.921 289.283 456.097 309.74 456.097C321.15 456.097 332.975 450.793 345.537 450.793C357.78 450.793 365.294 451.36 373.198 459.412C379.085 465.409 391.646 476.041 392.723 483.945C393.583 490.251 403.194 499.698 408.633 504.131C412.029 506.899 419.378 504.734 422.916 503.91C428.052 502.714 434.794 504.066 439.187 505.089C448.785 507.324 456.318 517.559 465.944 517.097C473.025 516.758 482.147 507.016 483.933 501.921C485.244 498.179 490.648 495.577 493.605 492.565C498.478 487.6 506.295 484.373 512.317 480.556C514.92 478.906 517.004 477.546 519.277 475.694C521.109 474.201 520.46 471.74 522.08 470.684C523.985 469.442 524.52 460.917 524.52 458.749C524.52 453.887 524.52 449.025 524.52 444.162C524.52 438.578 524.94 434.333 522.803 442.173C521.372 447.419 517.967 450.93 514.757 455.508C509.502 463.004 503.618 471.898 496.498 478.346C490.957 483.363 478.967 490.575 470.825 490.575C460.721 490.575 446.935 487.075 441.537 479.377C440.512 477.915 437.596 475.521 435.752 474.662C432.693 473.238 432.489 470.053 430.147 468.032C425.934 464.396 421.489 460.382 418.396 456.097C411.837 447.009 401.183 437.796 391.91 430.238C383.336 423.25 366.113 422.945 354.486 422.945C339.491 422.945 325.084 424.271 310.102 424.271C297.475 424.271 275.468 428.894 267.797 417.64C265.567 414.37 259.3 408.742 259.3 405.042C259.3 398.561 253.376 389.206 247.096 385.225C239.63 380.492 228.83 376.531 219.435 376.531C207.913 376.531 198.208 378.171 188.972 384.193C180.442 389.755 167.059 388.466 157.605 388.466C151.677 388.466 135.972 373.474 135.639 368.575C135.073 360.272 127.058 352.41 125.876 344.705C125.224 340.453 116.139 336.643 113.763 332.77C110.986 328.244 111.166 324.957 109.514 320.246C108.101 316.215 107.978 312.196 107.978 307.575C107.978 300.82 111.829 300.944 119.367 300.944C130.177 300.944 143.96 305.234 147.119 293.651C149.979 283.16 148.991 271.732 145.492 261.751C143.334 255.597 125.965 244.435 118.102 243.922C106.269 243.151 96.5877 238.502 96.5877 228.672C96.5877 205.109 126.219 199.223 138.531 180.27C139.777 178.352 142.204 176.935 143.413 174.965C144.709 172.852 143.249 169.928 143.865 167.672C145.63 161.197 146.222 153.261 149.559 147.044C156.811 133.535 169.379 139.018 183.639 136.435C189.446 135.383 199.294 131.104 204.339 128.552C213.489 123.924 222.36 121.733 232.904 124.279C243.218 126.77 259.127 123.931 267.797 129.584C271.886 132.25 282.463 132.586 287.684 134.52C294.38 137 302.421 136.509 309.74 136.509C321.681 136.509 331.902 137.835 343.91 137.835C350.959 137.835 357.202 139.161 364.249 139.161C368.979 139.161 379.707 139.161 382.961 142.476C386.819 146.407 392.174 149.21 395.978 153.085C398.776 155.936 400.566 159.067 404.927 161.041C417.614 166.786 431.162 168.024 445.153 171.282C459.139 174.539 475.021 177.618 489.537 177.618C503.005 177.618 517.018 181.596 530.667 181.596C535.547 181.596 548.311 183.406 540.791 177.618C536.695 174.465 531.323 175.157 527.413 172.608C523.063 169.772 512.115 170.597 506.622 168.998C498.471 166.625 489.314 165.904 480.769 164.357C463.516 161.232 446.067 156.552 430.147 150.064C424.202 147.642 421.966 145.075 427.707 142.476C430.37 141.27 433.716 141.946 436.656 141.813C439.907 141.666 442.237 139.161 445.605 139.161C464.113 139.161 483.109 138.483 500.927 135.256C507.249 134.111 533.689 137.265 534.283 128.552C534.669 122.883 525.831 119.671 526.147 115.291C526.492 110.51 535.267 109.041 539.164 107.629C542.36 106.472 550.978 102.041 544.859 98.052C540.586 95.2661 536.044 92.7476 530.215 92.7476C516.28 92.7476 502.832 95.3998 488.724 95.3998C475.249 95.3998 469.016 92.5736 457.808 87.7379C447.709 83.3806 442.718 77.3019 430.057 75.5821C403.804 72.0161 375.743 72.8562 348.791 72.8562C321.23 72.8562 294.373 71.5301 267.074 71.5301C254.198 71.5301 240.65 74.1823 227.571 74.1823C215.342 74.1823 203.485 76.8345 191.774 76.8345C178.118 76.8345 165.436 78.1606 151.91 78.1606C145.845 78.1606 140.596 77.8061 134.825 76.7608C127.976 75.5204 122.615 70.9383 116.927 68.8779C107.374 65.4178 104.23 49.588 104.723 42.3561C104.947 39.0733 110.788 32.6218 107.616 29.3898C104.138 25.847 101.023 23.0259 96.5877 19.8125C87.5337 13.2535 70.962 13.919 59.9775 11.9296C55.0826 11.0431 46.4593 12.1741 42.8927 8.54072C38.5029 4.06868 27.435 5.48963 27.435 11.9296C27.435 24.5275 14.1394 10.3716 9.08476 8.54072C1.80046 5.9022 8.51349 1 0 1" stroke="#1A1A1A" stroke-linecap="square"/>
</svg>
