<svg width="144" height="144" viewBox="0 0 144 144" fill="none" xmlns="http://www.w3.org/2000/svg">
<path d="M72.0019 106.576C68.0339 106.576 64.4179 105.904 61.1539 104.56C57.8899 103.152 55.0419 101.104 52.6099 98.416C50.2419 95.728 48.3859 92.432 47.0419 88.528C45.7619 84.56 45.1219 79.984 45.1219 74.8V69.04C45.1219 64.176 45.7939 59.824 47.1379 55.984C48.4819 52.144 50.3379 48.912 52.7059 46.288C55.0739 43.664 57.8899 41.68 61.1539 40.336C64.4819 38.928 68.0979 38.224 72.0019 38.224C75.9059 38.224 79.4899 38.928 82.7539 40.336C86.0819 41.68 88.9299 43.664 91.2979 46.288C93.7299 48.912 95.5859 52.144 96.8659 55.984C98.2099 59.76 98.8819 64.112 98.8819 69.04V74.8C98.8819 79.92 98.2099 84.464 96.8659 88.432C95.5219 92.4 93.6659 95.728 91.2979 98.416C88.9299 101.104 86.0819 103.152 82.7539 104.56C79.4899 105.904 75.9059 106.576 72.0019 106.576ZM72.0019 102.352C75.2019 102.352 78.1459 101.776 80.8339 100.624C83.5859 99.408 85.9539 97.648 87.9379 95.344C89.9219 93.04 91.4579 90.192 92.5459 86.8C93.6979 83.344 94.2739 79.344 94.2739 74.8V69.04C94.2739 64.752 93.6979 60.976 92.5459 57.712C91.4579 54.384 89.9219 51.6 87.9379 49.36C85.9539 47.056 83.5859 45.328 80.8339 44.176C78.1459 43.024 75.2019 42.448 72.0019 42.448C68.8019 42.448 65.8259 43.024 63.0739 44.176C60.3859 45.328 58.0499 47.056 56.0659 49.36C54.0819 51.6 52.5139 54.384 51.3619 57.712C50.2739 60.976 49.7299 64.752 49.7299 69.04V74.8C49.7299 79.344 50.2739 83.344 51.3619 86.8C52.5139 90.192 54.0819 93.04 56.0659 95.344C58.0499 97.648 60.3859 99.408 63.0739 100.624C65.8259 101.776 68.8019 102.352 72.0019 102.352Z" fill="#1A1A1A"/>
<path d="M37.2933 62.0977C37.2933 59.7397 36.9084 57.7011 36.9084 55.2756C36.9084 52.1751 36.9084 48.8632 36.9084 45.7246C36.9084 42.1958 37.2933 38.7623 37.2933 35.2857C37.2933 33.2663 37.3667 33.2499 39.41 33.2499C41.0421 33.2499 42.6741 33.2499 44.3062 33.2499C48.7819 33.2499 53.2576 33.2499 57.7333 33.2499C60.5222 33.2499 57.612 31.9929 56.536 31.3874C56.0008 31.0862 53.0746 29.5484 54.0344 30.3045C54.916 30.9991 56.0237 31.8568 57.1132 32.1021C58.304 32.3701 59.3515 32.6836 58.5457 33.3365C56.8924 34.6763 53.6149 34.8796 52.6874 36.7584" stroke="#1A1A1A" stroke-linecap="round"/>
<path d="M107.716 83.7363C107.716 86.0942 108.101 88.1329 108.101 90.5584C108.101 93.6589 108.101 96.9708 108.101 100.109C108.101 103.638 107.716 107.072 107.716 110.548C107.716 112.568 107.643 112.584 105.6 112.584C103.967 112.584 102.335 112.584 100.703 112.584C96.2276 112.584 91.7519 112.584 87.2762 112.584C84.4873 112.584 87.3975 113.841 88.4736 114.447C89.0087 114.748 91.9349 116.286 90.9751 115.529C90.0935 114.835 88.9858 113.977 87.8963 113.732C86.7055 113.464 85.658 113.15 86.4638 112.497C88.1171 111.158 91.3947 110.954 92.3221 109.076" stroke="#1A1A1A" stroke-linecap="round"/>
</svg>
