<svg width="466" height="383" viewBox="0 0 466 383" fill="none" xmlns="http://www.w3.org/2000/svg">
<path d="M56.4884 352.633C56.4884 351.685 57 356.274 57 356.875C57 358.381 56.8295 359.893 56.8295 361.372C56.8295 362.493 56.396 363.255 56.3179 364.304C56.1782 366.181 54.5604 367.476 53.4568 368.848C52.3179 370.265 51.4673 371.656 50.6146 373.232C49.6527 375.01 48.8411 377.114 47.204 378.417C46.3741 379.078 45.6868 379.889 44.7597 380.425C43.8366 380.959 42.3127 381.125 41.2734 381.142C38.6407 381.185 36.0769 381.941 33.4669 381.99C32.2932 382.012 31.198 381.99 30.0279 381.99C29.0445 381.99 27.6338 382.068 26.7025 381.726C24.6537 380.975 22.8853 380.115 21.1793 378.757C18.3433 376.499 15.5614 372.774 14.7465 369.207C14.3061 367.278 13.6082 365.439 13.2591 363.494C12.9798 361.937 12.9718 360.101 12.4065 358.638C12.0459 357.705 12.667 357.385 11.4685 357.385C10.4308 357.385 9.40501 357.312 8.399 357.083C6.19951 356.583 3.98354 356.539 2.25993 354.915C1.16838 353.886 1.06622 352.194 1.06622 350.766C1.06622 348.938 0.593381 346.994 2.17467 345.77C3.52952 344.721 2.0894 346.898 2.0894 347.373C2.0894 348.606 1.78409 349.639 2.22204 350.898C2.82796 352.64 4.00033 353.901 5.75579 354.585C7.64523 355.32 9.70858 354.873 11.6391 354.66C13.096 354.499 13.9531 353.587 14.5002 352.294C15.1611 350.732 16.4388 349.454 17.2287 347.882C17.5793 347.184 17.9971 346.471 18.375 345.76C18.7559 345.045 19.4834 343.85 19.4834 343.045C19.4834 341.405 19.4834 339.765 19.4834 338.124C19.4834 335.287 17.9498 332.364 16.4139 330.026C15.275 328.293 14.344 326.419 13.098 324.728C12.3435 323.704 11.1181 321.964 11.7243 320.636C11.8904 320.273 11.8096 319.76 11.8096 319.373C11.8096 318.764 11.9801 318.172 11.9801 317.582C11.9801 316.882 11.9096 315.291 12.2359 314.706C12.5888 314.074 12.0751 312.936 11.9896 312.255C11.8799 311.382 11.3395 310.674 10.7959 309.964C10.5121 309.594 9.35574 308.773 9.72535 309.059C10.0567 309.316 10.5732 309.117 10.9191 309.399C12.0902 310.352 12.7769 311.24 13.2117 312.755C13.6814 314.391 13.8792 316.057 14.017 317.77C14.1852 319.862 13.7921 322 14.2823 324.049C14.7036 325.81 14.835 327.178 16.5844 328.065C18.3467 328.959 20.2946 330.156 21.0182 332.062C21.6018 333.6 21.7003 335.323 21.7003 336.946C21.7003 338.793 21.8859 340.536 21.7098 342.376C21.6054 343.467 21.9187 345.871 21.2266 346.732C21.0761 346.919 20.8625 347.801 20.8477 348.051C20.8273 348.395 20.3361 348.726 20.3361 349.07C20.3361 349.516 22.5916 349.409 22.913 349.409C24.3882 349.409 25.4404 349.137 26.4941 348.023C28.5561 345.843 30.3584 343.259 30.9089 340.245C31.3699 337.723 32.2889 334.748 31.629 332.194C31.5135 331.748 31.3423 331.29 31.2595 330.837C31.1797 330.4 31.2381 330.982 31.2879 331.044C31.704 331.562 31.6437 332.642 31.9321 333.288C32.6898 334.984 32.9553 336.64 32.9553 338.464C32.9553 340.427 31.947 342.145 31.4205 343.979C30.9267 345.698 29.6037 347.195 28.5215 348.598C27.6513 349.727 26.9287 350.931 25.6225 351.653C23.9771 352.562 22.1596 352.463 20.3266 352.463C19.7421 352.463 18.2897 352.111 18.2897 352.888C18.2897 353.4 18.2897 353.912 18.2897 354.424C18.2897 357.955 18.8013 361.405 18.8013 364.927C18.8013 368.067 19.6711 371.43 21.6245 373.93C22.7882 375.419 23.686 376.703 25.3194 377.748C26.9393 378.784 29.2666 378.563 31.0416 379.068C31.9964 379.339 33.2802 379.105 34.2722 379.105C35.5893 379.105 36.8884 379.056 38.2038 378.973C38.8995 378.93 40.038 378.983 40.7049 378.681C43.0449 377.623 45.1589 376.902 46.7777 374.788C48.1123 373.045 49.3393 371.218 50.3493 369.263C51.2316 367.556 51.5751 365.398 52.5662 363.795C53.0441 363.022 53.2435 362.049 53.7599 361.25C54.2864 360.435 54.7811 359.591 55.2947 358.78C56.4302 356.985 56.4884 354.733 56.4884 352.633Z" stroke="#1A1A1A" stroke-linecap="round"/>
<path d="M56.4884 30.3669C56.4884 31.3151 57 26.7261 57 26.1245C57 24.6191 56.8295 23.1069 56.8295 21.6276C56.8295 20.507 56.396 19.7447 56.3179 18.6957C56.1782 16.8188 54.5604 15.5244 53.4568 14.1517C52.3179 12.7351 51.4673 11.3437 50.6146 9.7679C49.6527 7.99035 48.8411 5.88609 47.204 4.5828C46.3741 3.92211 45.6868 3.11108 44.7597 2.57476C43.8366 2.04068 42.3127 1.87522 41.2734 1.85826C38.6407 1.81532 36.0769 1.0588 33.4669 1.0098C32.2932 0.987762 31.198 1.0098 30.0279 1.0098C29.0445 1.0098 27.6338 0.932333 26.7025 1.27377C24.6537 2.0249 22.8853 2.88525 21.1793 4.24341C18.3433 6.50106 15.5614 10.2255 14.7465 13.7934C14.3061 15.7215 13.6082 17.5611 13.2591 19.5065C12.9798 21.0631 12.9718 22.8989 12.4065 24.3616C12.0459 25.2946 12.667 25.6155 11.4685 25.6155C10.4308 25.6155 9.40501 25.6883 8.399 25.9171C6.19951 26.4174 3.98354 26.4606 2.25993 28.0855C1.16838 29.1145 1.06622 30.8057 1.06622 32.2335C1.06622 34.0616 0.593381 36.0062 2.17467 37.2301C3.52952 38.2787 2.0894 36.1024 2.0894 35.6274C2.0894 34.3941 1.78409 33.3605 2.22204 32.1016C2.82796 30.3597 4.00033 29.099 5.75579 28.4154C7.64523 27.6797 9.70858 28.1265 11.6391 28.34C13.096 28.5011 13.9531 29.4134 14.5002 30.7063C15.1611 32.2682 16.4388 33.5464 17.2287 35.1183C17.5793 35.8161 17.9971 36.5292 18.375 37.2395C18.7559 37.9554 19.4834 39.1503 19.4834 39.9546C19.4834 41.595 19.4834 43.2354 19.4834 44.8758C19.4834 47.7127 17.9498 50.6364 16.4139 52.9739C15.275 54.7073 14.344 56.5814 13.098 58.2722C12.3435 59.2961 11.1181 61.0365 11.7243 62.3637C11.8904 62.7272 11.8096 63.2398 11.8096 63.627C11.8096 64.236 11.9801 64.8278 11.9801 65.4182C11.9801 66.1183 11.9096 67.709 12.2359 68.2936C12.5888 68.9256 12.0751 70.0641 11.9896 70.7447C11.8799 71.6177 11.3395 72.3256 10.7959 73.0356C10.5121 73.4062 9.35574 74.2267 9.72535 73.9406C10.0567 73.6841 10.5732 73.8828 10.9191 73.6012C12.0902 72.6477 12.7769 71.7596 13.2117 70.245C13.6814 68.6094 13.8792 66.9433 14.017 65.2296C14.1852 63.1378 13.7921 60.9996 14.2823 58.951C14.7036 57.19 14.835 55.8223 16.5844 54.9349C18.3467 54.0409 20.2946 52.8436 21.0182 50.9376C21.6018 49.4003 21.7003 47.677 21.7003 46.0542C21.7003 44.2073 21.8859 42.4639 21.7098 40.624C21.6054 39.5326 21.9187 37.1294 21.2266 36.2685C21.0761 36.0812 20.8625 35.1994 20.8477 34.9486C20.8273 34.6047 20.3361 34.2737 20.3361 33.9305C20.3361 33.4837 22.5916 33.5911 22.913 33.5911C24.3882 33.5911 25.4404 33.8628 26.4941 34.9769C28.5561 37.1571 30.3584 39.7414 30.9089 42.7546C31.3699 45.2773 32.2889 48.2518 31.629 50.8056C31.5135 51.2525 31.3423 51.71 31.2595 52.1632C31.1797 52.5996 31.2381 52.0177 31.2879 51.9558C31.704 51.4382 31.6437 50.3578 31.9321 49.712C32.6898 48.0156 32.9553 46.3599 32.9553 44.5364C32.9553 42.5725 31.947 40.8548 31.4205 39.0213C30.9267 37.3015 29.6037 35.805 28.5215 34.4018C27.6513 33.2734 26.9287 32.0695 25.6225 31.3474C23.9771 30.4377 22.1596 30.5366 20.3266 30.5366C19.7421 30.5366 18.2897 30.8885 18.2897 30.1124C18.2897 29.6001 18.2897 29.0879 18.2897 28.5757C18.2897 25.0446 18.8013 21.5949 18.8013 18.0735C18.8013 14.9331 19.6711 11.5695 21.6245 9.07027C22.7882 7.58142 23.686 6.29703 25.3194 5.25215C26.9393 4.21585 29.2666 4.43695 31.0416 3.93231C31.9964 3.66084 33.2802 3.8946 34.2722 3.8946C35.5893 3.8946 36.8884 3.9442 38.2038 4.02658C38.8995 4.07015 40.038 4.01715 40.7049 4.31883C43.0449 5.37726 45.1589 6.09817 46.7777 8.21237C48.1123 9.95549 49.3393 11.7824 50.3493 13.7369C51.2316 15.444 51.5751 17.6021 52.5662 19.2048C53.0441 19.9776 53.2435 20.9507 53.7599 21.7502C54.2864 22.5652 54.7811 23.4085 55.2947 24.2202C56.4302 26.0147 56.4884 28.2665 56.4884 30.3669Z" stroke="#1A1A1A" stroke-linecap="round"/>
<path d="M409.512 352.633C409.512 351.685 409 356.274 409 356.875C409 358.381 409.171 359.893 409.171 361.372C409.171 362.493 409.604 363.255 409.682 364.304C409.822 366.181 411.44 367.476 412.543 368.848C413.682 370.265 414.533 371.656 415.385 373.232C416.347 375.01 417.159 377.114 418.796 378.417C419.626 379.078 420.313 379.889 421.24 380.425C422.163 380.959 423.687 381.125 424.727 381.142C427.359 381.185 429.923 381.941 432.533 381.99C433.707 382.012 434.802 381.99 435.972 381.99C436.956 381.99 438.366 382.068 439.297 381.726C441.346 380.975 443.115 380.115 444.821 378.757C447.657 376.499 450.439 372.774 451.253 369.207C451.694 367.278 452.392 365.439 452.741 363.494C453.02 361.937 453.028 360.101 453.594 358.638C453.954 357.705 453.333 357.385 454.531 357.385C455.569 357.385 456.595 357.312 457.601 357.083C459.8 356.583 462.016 356.539 463.74 354.915C464.832 353.886 464.934 352.194 464.934 350.766C464.934 348.938 465.407 346.994 463.825 345.77C462.47 344.721 463.911 346.898 463.911 347.373C463.911 348.606 464.216 349.639 463.778 350.898C463.172 352.64 462 353.901 460.244 354.585C458.355 355.32 456.291 354.873 454.361 354.66C452.904 354.499 452.047 353.587 451.5 352.294C450.839 350.732 449.561 349.454 448.771 347.882C448.421 347.184 448.003 346.471 447.625 345.76C447.244 345.045 446.517 343.85 446.517 343.045C446.517 341.405 446.517 339.765 446.517 338.124C446.517 335.287 448.05 332.364 449.586 330.026C450.725 328.293 451.656 326.419 452.902 324.728C453.657 323.704 454.882 321.964 454.276 320.636C454.11 320.273 454.19 319.76 454.19 319.373C454.19 318.764 454.02 318.172 454.02 317.582C454.02 316.882 454.09 315.291 453.764 314.706C453.411 314.074 453.925 312.936 454.01 312.255C454.12 311.382 454.66 310.674 455.204 309.964C455.488 309.594 456.644 308.773 456.275 309.059C455.943 309.316 455.427 309.117 455.081 309.399C453.91 310.352 453.223 311.24 452.788 312.755C452.319 314.391 452.121 316.057 451.983 317.77C451.815 319.862 452.208 322 451.718 324.049C451.296 325.81 451.165 327.178 449.416 328.065C447.653 328.959 445.705 330.156 444.982 332.062C444.398 333.6 444.3 335.323 444.3 336.946C444.3 338.793 444.114 340.536 444.29 342.376C444.395 343.467 444.081 345.871 444.773 346.732C444.924 346.919 445.137 347.801 445.152 348.051C445.173 348.395 445.664 348.726 445.664 349.07C445.664 349.516 443.408 349.409 443.087 349.409C441.612 349.409 440.56 349.137 439.506 348.023C437.444 345.843 435.642 343.259 435.091 340.245C434.63 337.723 433.711 334.748 434.371 332.194C434.487 331.748 434.658 331.29 434.741 330.837C434.82 330.4 434.762 330.982 434.712 331.044C434.296 331.562 434.356 332.642 434.068 333.288C433.31 334.984 433.045 336.64 433.045 338.464C433.045 340.427 434.053 342.145 434.579 343.979C435.073 345.698 436.396 347.195 437.478 348.598C438.349 349.727 439.071 350.931 440.377 351.653C442.023 352.562 443.84 352.463 445.673 352.463C446.258 352.463 447.71 352.111 447.71 352.888C447.71 353.4 447.71 353.912 447.71 354.424C447.71 357.955 447.199 361.405 447.199 364.927C447.199 368.067 446.329 371.43 444.375 373.93C443.212 375.419 442.314 376.703 440.681 377.748C439.061 378.784 436.733 378.563 434.958 379.068C434.004 379.339 432.72 379.105 431.728 379.105C430.411 379.105 429.112 379.056 427.796 378.973C427.101 378.93 425.962 378.983 425.295 378.681C422.955 377.623 420.841 376.902 419.222 374.788C417.888 373.045 416.661 371.218 415.651 369.263C414.768 367.556 414.425 365.398 413.434 363.795C412.956 363.022 412.757 362.049 412.24 361.25C411.714 360.435 411.219 359.591 410.705 358.78C409.57 356.985 409.512 354.733 409.512 352.633Z" stroke="#1A1A1A" stroke-linecap="round"/>
<path d="M407.512 30.3669C407.512 31.3151 407 26.7261 407 26.1245C407 24.6191 407.171 23.1069 407.171 21.6276C407.171 20.507 407.604 19.7447 407.682 18.6957C407.822 16.8188 409.44 15.5244 410.543 14.1517C411.682 12.7351 412.533 11.3437 413.385 9.7679C414.347 7.99035 415.159 5.88609 416.796 4.5828C417.626 3.92211 418.313 3.11108 419.24 2.57476C420.163 2.04068 421.687 1.87522 422.727 1.85826C425.359 1.81532 427.923 1.0588 430.533 1.0098C431.707 0.987762 432.802 1.0098 433.972 1.0098C434.956 1.0098 436.366 0.932333 437.297 1.27377C439.346 2.0249 441.115 2.88525 442.821 4.24341C445.657 6.50106 448.439 10.2255 449.253 13.7934C449.694 15.7215 450.392 17.5611 450.741 19.5065C451.02 21.0631 451.028 22.8989 451.594 24.3616C451.954 25.2946 451.333 25.6155 452.531 25.6155C453.569 25.6155 454.595 25.6883 455.601 25.9171C457.8 26.4174 460.016 26.4606 461.74 28.0855C462.832 29.1145 462.934 30.8057 462.934 32.2335C462.934 34.0616 463.407 36.0062 461.825 37.2301C460.47 38.2787 461.911 36.1024 461.911 35.6274C461.911 34.3941 462.216 33.3605 461.778 32.1016C461.172 30.3597 460 29.099 458.244 28.4154C456.355 27.6797 454.291 28.1265 452.361 28.34C450.904 28.5011 450.047 29.4134 449.5 30.7063C448.839 32.2682 447.561 33.5464 446.771 35.1183C446.421 35.8161 446.003 36.5292 445.625 37.2395C445.244 37.9554 444.517 39.1503 444.517 39.9546C444.517 41.595 444.517 43.2354 444.517 44.8758C444.517 47.7127 446.05 50.6364 447.586 52.9739C448.725 54.7073 449.656 56.5814 450.902 58.2722C451.657 59.2961 452.882 61.0365 452.276 62.3637C452.11 62.7272 452.19 63.2398 452.19 63.627C452.19 64.236 452.02 64.8278 452.02 65.4182C452.02 66.1183 452.09 67.709 451.764 68.2936C451.411 68.9256 451.925 70.0641 452.01 70.7447C452.12 71.6177 452.66 72.3256 453.204 73.0356C453.488 73.4062 454.644 74.2267 454.275 73.9406C453.943 73.6841 453.427 73.8828 453.081 73.6012C451.91 72.6477 451.223 71.7596 450.788 70.245C450.319 68.6094 450.121 66.9433 449.983 65.2296C449.815 63.1378 450.208 60.9996 449.718 58.951C449.296 57.19 449.165 55.8223 447.416 54.9349C445.653 54.0409 443.705 52.8436 442.982 50.9376C442.398 49.4003 442.3 47.677 442.3 46.0542C442.3 44.2073 442.114 42.4639 442.29 40.624C442.395 39.5326 442.081 37.1294 442.773 36.2685C442.924 36.0812 443.137 35.1994 443.152 34.9486C443.173 34.6047 443.664 34.2737 443.664 33.9305C443.664 33.4837 441.408 33.5911 441.087 33.5911C439.612 33.5911 438.56 33.8628 437.506 34.9769C435.444 37.1571 433.642 39.7414 433.091 42.7546C432.63 45.2773 431.711 48.2518 432.371 50.8056C432.487 51.2525 432.658 51.71 432.741 52.1632C432.82 52.5996 432.762 52.0177 432.712 51.9558C432.296 51.4382 432.356 50.3578 432.068 49.712C431.31 48.0156 431.045 46.3599 431.045 44.5364C431.045 42.5725 432.053 40.8548 432.579 39.0213C433.073 37.3015 434.396 35.805 435.478 34.4018C436.349 33.2734 437.071 32.0695 438.377 31.3474C440.023 30.4377 441.84 30.5366 443.673 30.5366C444.258 30.5366 445.71 30.8885 445.71 30.1124C445.71 29.6001 445.71 29.0879 445.71 28.5757C445.71 25.0446 445.199 21.5949 445.199 18.0735C445.199 14.9331 444.329 11.5695 442.375 9.07027C441.212 7.58142 440.314 6.29703 438.681 5.25215C437.061 4.21585 434.733 4.43695 432.958 3.93231C432.004 3.66084 430.72 3.8946 429.728 3.8946C428.411 3.8946 427.112 3.9442 425.796 4.02658C425.101 4.07015 423.962 4.01715 423.295 4.31883C420.955 5.37726 418.841 6.09817 417.222 8.21237C415.888 9.95549 414.661 11.7824 413.651 13.7369C412.768 15.444 412.425 17.6021 411.434 19.2048C410.956 19.9776 410.757 20.9507 410.24 21.7502C409.714 22.5652 409.219 23.4085 408.705 24.2202C407.57 26.0147 407.512 28.2665 407.512 30.3669Z" stroke="#1A1A1A" stroke-linecap="round"/>
</svg>
