<svg width="144" height="144" viewBox="0 0 144 144" fill="none" xmlns="http://www.w3.org/2000/svg">
<path d="M68.1525 38.8H75.8325L100.793 106H93.4965L86.4885 86.512H57.1125L50.1045 106H43.1925L68.1525 38.8ZM84.2805 80.368L71.9925 46H71.8005L59.3205 80.368H84.2805Z" fill="#1A1A1A"/>
<path d="M32.2655 6.2H37.6655C39.6495 6.2 41.1215 6.648 42.0815 7.544C43.0575 8.44 43.5455 9.648 43.5455 11.168C43.5455 12.32 43.2655 13.296 42.7055 14.096C42.1455 14.896 41.3055 15.464 40.1855 15.8L44.0255 23H42.1055L38.5055 16.112C38.3775 16.128 38.2415 16.136 38.0975 16.136C37.9535 16.136 37.8095 16.136 37.6655 16.136H33.9455V23H32.2655V6.2ZM37.5455 14.6C39.0655 14.6 40.1535 14.304 40.8095 13.712C41.4815 13.12 41.8175 12.272 41.8175 11.168C41.8175 10.096 41.4815 9.256 40.8095 8.648C40.1375 8.04 39.0495 7.736 37.5455 7.736H33.9455V14.6H37.5455ZM50.1483 23.168C48.8203 23.168 47.8283 22.864 47.1723 22.256C46.5163 21.632 46.1883 20.776 46.1883 19.688C46.1883 18.552 46.5803 17.648 47.3643 16.976C48.1483 16.304 49.3963 15.968 51.1083 15.968H54.2043V15.08C54.2043 14.12 53.9723 13.424 53.5083 12.992C53.0443 12.544 52.2843 12.32 51.2283 12.32C50.2523 12.32 49.5323 12.488 49.0683 12.824C48.6203 13.16 48.3643 13.592 48.3003 14.12H46.6683C46.7003 13.688 46.8203 13.272 47.0283 12.872C47.2363 12.472 47.5243 12.12 47.8923 11.816C48.2763 11.512 48.7483 11.272 49.3083 11.096C49.8683 10.92 50.5083 10.832 51.2283 10.832C52.7803 10.832 53.9243 11.192 54.6603 11.912C55.4123 12.616 55.7883 13.672 55.7883 15.08V23H54.5403L54.3483 20.96H54.3003C53.8203 21.68 53.2203 22.232 52.5003 22.616C51.7963 22.984 51.0123 23.168 50.1483 23.168ZM50.2683 21.68C50.8443 21.68 51.3723 21.592 51.8523 21.416C52.3323 21.224 52.7483 20.968 53.1003 20.648C53.4523 20.312 53.7243 19.92 53.9163 19.472C54.1083 19.008 54.2043 18.504 54.2043 17.96V17.312H51.2283C49.9963 17.312 49.1163 17.528 48.5883 17.96C48.0763 18.392 47.8203 18.968 47.8203 19.688C47.8203 20.296 48.0123 20.784 48.3963 21.152C48.7963 21.504 49.4203 21.68 50.2683 21.68ZM63.8588 22.688C63.1548 22.688 62.5068 22.568 61.9148 22.328C61.3228 22.072 60.8108 21.712 60.3788 21.248C59.9628 20.768 59.6348 20.192 59.3948 19.52C59.1548 18.832 59.0348 18.048 59.0348 17.168V16.352C59.0348 15.488 59.1548 14.72 59.3948 14.048C59.6348 13.36 59.9708 12.776 60.4028 12.296C60.8348 11.816 61.3468 11.456 61.9388 11.216C62.5308 10.96 63.1708 10.832 63.8588 10.832C64.7228 10.832 65.4748 10.992 66.1148 11.312C66.7548 11.616 67.3388 12.112 67.8668 12.8H67.9148L68.1068 11H69.3548V23.12C69.3548 24.672 68.9308 25.864 68.0828 26.696C67.2508 27.544 66.0588 27.968 64.5068 27.968C63.0028 27.968 61.8828 27.64 61.1468 26.984C60.4268 26.328 60.0028 25.44 59.8748 24.32H61.5068C61.6348 25.04 61.9148 25.584 62.3468 25.952C62.7948 26.336 63.5148 26.528 64.5068 26.528C65.6108 26.528 66.4268 26.248 66.9548 25.688C67.4988 25.128 67.7708 24.232 67.7708 23V20.84H67.7228C66.8748 22.072 65.5868 22.688 63.8588 22.688ZM64.1948 21.248C65.2668 21.248 66.1308 20.904 66.7868 20.216C67.4428 19.512 67.7708 18.496 67.7708 17.168V16.352C67.7708 15.056 67.4348 14.056 66.7628 13.352C66.1068 12.632 65.2588 12.272 64.2188 12.272C63.1628 12.272 62.3068 12.624 61.6508 13.328C60.9948 14.016 60.6668 15.024 60.6668 16.352V17.168C60.6668 18.464 60.9948 19.472 61.6508 20.192C62.3228 20.896 63.1708 21.248 64.1948 21.248ZM77.6183 23.168C76.3223 23.168 75.2823 22.76 74.4983 21.944C73.7143 21.112 73.3223 19.904 73.3223 18.32V11H74.9063V18.2C74.9063 19.4 75.1703 20.288 75.6983 20.864C76.2423 21.44 76.9703 21.728 77.8823 21.728C78.3943 21.728 78.8583 21.648 79.2743 21.488C79.7063 21.312 80.0743 21.072 80.3783 20.768C80.6823 20.448 80.9143 20.072 81.0743 19.64C81.2503 19.208 81.3383 18.728 81.3383 18.2V11H82.9223V23H81.6743L81.4823 21.2H81.4343C80.5223 22.512 79.2503 23.168 77.6183 23.168ZM90.1327 23C89.3647 23 88.7647 22.864 88.3327 22.592C87.9167 22.32 87.6047 22.008 87.3967 21.656C87.2047 21.304 87.0927 20.952 87.0607 20.6C87.0287 20.248 87.0127 19.992 87.0127 19.832V6.2H88.5967V19.64C88.5967 20.92 89.1727 21.56 90.3247 21.56H91.0927V23H90.1327ZM97.328 23.168C96 23.168 95.008 22.864 94.352 22.256C93.696 21.632 93.368 20.776 93.368 19.688C93.368 18.552 93.76 17.648 94.544 16.976C95.328 16.304 96.576 15.968 98.288 15.968H101.384V15.08C101.384 14.12 101.152 13.424 100.688 12.992C100.224 12.544 99.464 12.32 98.408 12.32C97.432 12.32 96.712 12.488 96.248 12.824C95.8 13.16 95.544 13.592 95.48 14.12H93.848C93.88 13.688 94 13.272 94.208 12.872C94.416 12.472 94.704 12.12 95.072 11.816C95.456 11.512 95.928 11.272 96.488 11.096C97.048 10.92 97.688 10.832 98.408 10.832C99.96 10.832 101.104 11.192 101.84 11.912C102.592 12.616 102.968 13.672 102.968 15.08V23H101.72L101.528 20.96H101.48C101 21.68 100.4 22.232 99.68 22.616C98.976 22.984 98.192 23.168 97.328 23.168ZM97.448 21.68C98.024 21.68 98.552 21.592 99.032 21.416C99.512 21.224 99.928 20.968 100.28 20.648C100.632 20.312 100.904 19.92 101.096 19.472C101.288 19.008 101.384 18.504 101.384 17.96V17.312H98.408C97.176 17.312 96.296 17.528 95.768 17.96C95.256 18.392 95 18.968 95 19.688C95 20.296 95.192 20.784 95.576 21.152C95.976 21.504 96.6 21.68 97.448 21.68ZM106.935 11H108.183L108.375 12.8H108.423C109.303 11.488 110.575 10.832 112.239 10.832H113.415V12.272H112.215C111.047 12.272 110.135 12.592 109.479 13.232C108.839 13.856 108.519 14.712 108.519 15.8V23H106.935V11Z" fill="#1A1A1A"/>
<path d="M20.495 29.9506C20.5624 29.782 21.3243 29.6876 21.5025 29.6318C21.8453 29.5244 22.072 29.2807 22.3914 29.1307C23.0954 28.7999 22.2852 29.1863 22.0681 29.3129C21.6923 29.5321 21.3236 29.5762 20.9314 29.7279C20.7118 29.8129 20.3264 29.8113 20.1503 29.9506C19.7653 30.2552 20.2328 30.9243 20.3065 31.2818C20.4642 32.0474 20.799 32.839 21.1254 33.5545C21.1621 33.635 21.5163 34.1458 21.4432 33.9594C21.2754 33.5315 21.205 33.055 21.0823 32.613C20.8886 31.9154 20.6892 31.4087 20.3496 30.7706C20.3058 30.6883 20.0374 30.2114 20.1072 30.2442C20.4092 30.3861 20.6723 30.56 21.0014 30.6795C21.7632 30.956 22.7533 30.8655 23.555 30.9731C24.9277 31.1573 26.3923 31.2031 27.7786 31.2261C30.9585 31.279 34.14 31.3173 37.3247 31.3173C41.102 31.3173 44.8873 31.2261 48.6702 31.2261C54.2464 31.2261 59.8162 31.3173 65.3922 31.3173C73.6043 31.3173 81.8184 31.4995 90.0333 31.4995C95.5831 31.4995 101.128 31.4084 106.68 31.4084C111.366 31.4084 116.058 31.2261 120.74 31.2261C121.322 31.2261 121.739 31.1342 122.292 30.9731C122.438 30.9304 124.024 30.4743 124 30.4517C123.889 30.3477 123.596 30.4109 123.456 30.4062C122.986 30.3904 122.524 30.3151 122.044 30.3151C121.476 30.3151 120.912 30.0417 120.32 30.0417C119.934 30.0417 119.576 29.8761 119.189 29.8595C118.549 29.8322 119.522 29.8454 119.695 29.8595C120.488 29.9243 121.337 29.9466 122.12 30.062C122.554 30.126 123.219 30.0166 122.949 30.5378C122.547 31.3153 122.096 31.8604 121.543 32.5421C121.239 32.9171 120.921 33.2973 120.714 33.7265C120.405 34.3633 120.808 33.644 120.956 33.4127" stroke="#1A1A1A" stroke-linecap="round"/>
</svg>
