<svg width="144" height="144" viewBox="0 0 144 144" fill="none" xmlns="http://www.w3.org/2000/svg">
<path d="M71.6951 86.8L46.5431 38.8H51.5351L73.9031 81.52H74.0951L92.6231 38.8H97.4231L68.1431 106H63.3431L71.6951 86.8Z" fill="#1A1A1A"/>
<path d="M61.6699 104.01C60.9706 104.01 60.2262 103.897 59.4757 103.897C59.282 103.897 58.5666 103.787 58.4317 103.922C58.2912 104.063 58.4067 104.819 58.4067 105.022C58.4067 105.788 58.4064 106.53 58.3004 107.272C58.2005 107.972 58.1499 109.126 58.3004 109.803C58.4571 110.508 58.4067 111.259 58.4067 111.997C58.4067 112.514 58.5475 112.447 59.0256 112.447C59.4382 112.447 59.8508 112.447 60.2634 112.447C62.0949 112.447 63.8708 112.56 65.6958 112.56C67.5705 112.56 69.3683 112.335 71.2345 112.335C72.0035 112.335 72.7724 112.335 73.5413 112.335C74.1377 112.335 74.0477 112.171 74.0477 111.61C74.0477 111.157 74.0477 110.705 74.0477 110.253C74.0477 108.603 74.0477 106.953 74.0477 105.303C74.0477 104.847 74.5349 103.56 73.7976 103.56C72.9057 103.56 72.0139 103.56 71.122 103.56" stroke="#1A1A1A" stroke-linecap="round"/>
</svg>
