<svg width="474" height="436" viewBox="0 0 474 436" fill="none" xmlns="http://www.w3.org/2000/svg">
<path d="M366.866 38.3428C365.579 38.6687 364.542 38.6175 363.757 38.189C362.968 37.7451 362.44 36.9958 362.173 35.941C361.894 34.8398 362.053 33.8672 362.648 33.0234C363.243 32.1795 364.37 31.5475 366.03 31.1274L369.031 30.3677L368.813 29.5068C368.578 28.5762 368.182 27.9584 367.626 27.6535C367.066 27.333 366.275 27.3024 365.251 27.5615C364.305 27.801 363.648 28.1406 363.281 28.5802C362.929 29.0158 362.787 29.4975 362.854 30.025L361.272 30.4255C361.197 29.9989 361.211 29.5661 361.315 29.1273C361.418 28.6885 361.611 28.2766 361.893 27.8916C362.191 27.5026 362.59 27.1542 363.089 26.8461C363.589 26.5381 364.188 26.2957 364.886 26.119C366.39 25.7382 367.588 25.8064 368.478 26.3238C369.38 26.8217 370.003 27.7532 370.349 29.1181L372.292 36.7959L371.083 37.1022L370.396 35.1717L370.349 35.1835C370.061 35.9992 369.615 36.6816 369.011 37.2306C368.419 37.7601 367.704 38.1308 366.866 38.3428ZM366.617 36.8709C367.176 36.7296 367.666 36.5147 368.088 36.2263C368.506 35.9223 368.847 35.5721 369.109 35.1755C369.368 34.7634 369.536 34.3166 369.612 33.8352C369.684 33.3383 369.654 32.8261 369.52 32.2988L369.361 31.6706L366.476 32.4009C365.282 32.7032 364.482 33.1286 364.076 33.6769C363.685 34.2214 363.579 34.8426 363.755 35.5405C363.905 36.13 364.21 36.5559 364.673 36.8184C365.147 37.0615 365.795 37.079 366.617 36.8709Z" fill="#1A1A1A"/>
<path d="M352.913 42.1367C352.184 42.3213 351.488 42.3738 350.824 42.2942C350.156 42.1992 349.544 41.9662 348.988 41.5953C348.448 41.2205 347.971 40.7058 347.558 40.0512C347.144 39.3966 346.82 38.604 346.584 37.6733L346.384 36.8823C346.164 36.0137 346.086 35.2164 346.15 34.4906C346.225 33.7453 346.414 33.087 346.715 32.5156C347.031 31.9404 347.453 31.4541 347.979 31.0567C348.521 30.6554 349.157 30.3625 349.886 30.1779C350.568 30.0052 351.205 29.9431 351.795 29.9918C352.381 30.025 352.909 30.1554 353.379 30.383C353.845 30.595 354.248 30.881 354.586 31.2409C354.921 31.5853 355.194 31.9784 355.405 32.4201L353.823 32.8206C353.507 32.2899 353.067 31.8896 352.504 31.6196C351.94 31.3496 351.224 31.3246 350.356 31.5444C349.363 31.7957 348.629 32.3528 348.154 33.2157C347.695 34.0747 347.632 35.1634 347.966 36.4818L348.166 37.2728C348.528 38.6998 349.126 39.6954 349.962 40.2595C350.794 40.8081 351.699 40.9587 352.676 40.7113C353.545 40.4914 354.161 40.121 354.524 39.5999C354.887 39.0788 355.066 38.4477 355.06 37.7065L356.642 37.306C356.682 37.8569 356.643 38.3868 356.524 38.8955C356.401 39.3887 356.187 39.8472 355.882 40.2711C355.577 40.695 355.176 41.0687 354.68 41.3922C354.185 41.7158 353.596 41.964 352.913 42.1367Z" fill="#1A1A1A"/>
<path d="M337.398 33.7056L338.933 33.3169L341.878 44.95L340.342 45.3387L337.398 33.7056ZM337.647 31.4638C337.337 31.5424 337.048 31.5083 336.78 31.3616C336.523 31.1955 336.355 30.9573 336.277 30.6471C336.198 30.3369 336.234 30.0555 336.385 29.8028C336.547 29.5307 336.783 29.3553 337.094 29.2768C337.404 29.1983 337.687 29.2421 337.944 29.4082C338.212 29.5549 338.385 29.7833 338.464 30.0935C338.542 30.4037 338.501 30.6949 338.338 30.967C338.188 31.2197 337.957 31.3853 337.647 31.4638Z" fill="#1A1A1A"/>
<path d="M331.934 46.3496C331.174 46.542 330.551 46.5593 330.066 46.4017C329.58 46.244 329.193 46.0201 328.905 45.7299C328.629 45.4203 328.432 45.0987 328.315 44.7654C328.197 44.432 328.121 44.1955 328.086 44.0559L326.272 36.8899L324.178 37.42L323.824 36.024L325.918 35.494L325.094 32.2367L326.629 31.848L327.454 35.1052L330.571 34.316L330.925 35.712L327.807 36.5012L329.574 43.481C329.888 44.7219 330.619 45.1971 331.767 44.9065L333.396 44.4942L333.749 45.8902L331.934 46.3496Z" fill="#1A1A1A"/>
<path d="M316.866 50.3428C315.579 50.6687 314.542 50.6174 313.757 50.189C312.968 49.745 312.44 48.9957 312.173 47.941C311.894 46.8397 312.052 45.8672 312.648 45.0233C313.243 44.1795 314.37 43.5475 316.03 43.1274L319.031 42.3676L318.813 41.5068C318.578 40.5761 318.182 39.9583 317.626 39.6534C317.066 39.333 316.275 39.3023 315.251 39.5615C314.305 39.801 313.648 40.1405 313.281 40.5801C312.929 41.0158 312.787 41.4974 312.854 42.025L311.272 42.4254C311.197 41.9988 311.211 41.5661 311.315 41.1273C311.418 40.6884 311.611 40.2765 311.893 39.8915C312.191 39.5026 312.589 39.1541 313.089 38.8461C313.589 38.538 314.188 38.2957 314.886 38.119C316.39 37.7381 317.588 37.8064 318.478 38.3237C319.379 38.8217 320.003 39.7531 320.349 41.1181L322.292 48.7959L321.082 49.1021L320.396 47.1716L320.349 47.1834C320.06 47.9992 319.614 48.6815 319.011 49.2305C318.418 49.76 317.703 50.1308 316.866 50.3428ZM316.617 48.8708C317.175 48.7295 317.666 48.5146 318.088 48.2262C318.506 47.9223 318.847 47.572 319.109 47.1754C319.368 46.7633 319.536 46.3166 319.612 45.8351C319.684 45.3382 319.653 44.8261 319.52 44.2987L319.361 43.6705L316.476 44.4008C315.282 44.7032 314.481 45.1285 314.076 45.6769C313.685 46.2213 313.578 46.8425 313.755 47.5405C313.904 48.1299 314.21 48.5559 314.673 48.8184C315.147 49.0614 315.795 49.0789 316.617 48.8708Z" fill="#1A1A1A"/>
<path d="M289.041 45.3444L290.251 45.0381L290.879 46.736L290.925 46.7242C291.218 45.9899 291.618 45.3853 292.125 44.9104C292.647 44.4315 293.265 44.1018 293.979 43.9212C294.816 43.7091 295.594 43.7185 296.313 43.9492C297.032 44.1799 297.652 44.6418 298.174 45.3349C298.342 44.5001 298.709 43.7966 299.274 43.2245C299.854 42.6484 300.586 42.2485 301.47 42.0247C302.075 41.8716 302.651 41.833 303.199 41.909C303.746 41.985 304.251 42.1872 304.714 42.5157C305.173 42.8287 305.572 43.2641 305.911 43.8219C306.262 44.3603 306.538 45.025 306.738 45.816L308.505 52.7959L306.969 53.1846L305.202 46.2047C304.912 45.0569 304.44 44.2686 303.787 43.8398C303.13 43.3955 302.359 43.2852 301.475 43.509C301.04 43.619 300.659 43.8064 300.33 44.0712C299.997 44.3205 299.73 44.6357 299.529 45.0166C299.325 45.3819 299.19 45.7956 299.125 46.2576C299.076 46.7156 299.117 47.2006 299.246 47.7125L301.013 54.6923L299.477 55.081L297.711 48.1012C297.42 46.9534 296.948 46.1651 296.295 45.7362C295.638 45.2919 294.867 45.1817 293.983 45.4055C293.549 45.5154 293.167 45.7028 292.838 45.9676C292.505 46.217 292.238 46.5321 292.038 46.913C291.833 47.2784 291.698 47.6921 291.634 48.154C291.585 48.6121 291.625 49.097 291.754 49.6089L293.521 56.5887L291.986 56.9774L289.041 45.3444Z" fill="#1A1A1A"/>
<path d="M278.586 59.8421C277.903 60.0149 277.246 60.0576 276.613 59.9702C275.976 59.8673 275.391 59.6439 274.859 59.3001C274.338 58.9369 273.878 58.459 273.481 57.8664C273.079 57.2584 272.771 56.5278 272.555 55.6747L272.354 54.8837C272.142 54.0461 272.07 53.2721 272.138 52.5618C272.202 51.8359 272.384 51.1873 272.685 50.616C272.986 50.0446 273.394 49.57 273.909 49.1921C274.42 48.7986 275.009 48.5175 275.676 48.3486C276.514 48.1366 277.282 48.1072 277.981 48.2603C278.676 48.398 279.364 48.7355 280.045 49.2729L280.091 49.2611L279.836 47.469L281.045 47.1628L284.02 58.9122C284.401 60.4167 284.282 61.6763 283.664 62.691C283.066 63.7172 282.014 64.4208 280.51 64.8016C279.052 65.1707 277.885 65.1276 277.011 64.6723C276.152 64.213 275.523 63.4562 275.124 62.4019L276.706 62.0014C277.007 62.668 277.412 63.1266 277.921 63.3773C278.449 63.6397 279.195 63.6491 280.156 63.4057C281.226 63.1348 281.949 62.6631 282.323 61.9906C282.713 61.3142 282.757 60.3789 282.455 59.1846L281.925 57.0906L281.878 57.1024C281.358 58.5048 280.261 59.4181 278.586 59.8421ZM278.558 58.3637C279.597 58.1006 280.35 57.5551 280.818 56.7272C281.281 55.8837 281.349 54.8183 281.023 53.5309L280.823 52.7398C280.505 51.4835 279.934 50.5965 279.11 50.0789C278.297 49.5419 277.387 49.401 276.379 49.6563C275.355 49.9154 274.611 50.4667 274.148 51.3102C273.681 52.1381 273.611 53.1958 273.936 54.4832L274.137 55.2742C274.455 56.5306 275.02 57.4273 275.833 57.9643C276.657 58.4818 277.565 58.615 278.558 58.3637Z" fill="#1A1A1A"/>
<path d="M260.866 65.3428C259.579 65.6687 258.542 65.6174 257.757 65.189C256.968 64.745 256.44 63.9957 256.173 62.941C255.894 61.8397 256.052 60.8672 256.648 60.0233C257.243 59.1795 258.37 58.5475 260.03 58.1274L263.031 57.3676L262.813 56.5068C262.578 55.5761 262.182 54.9583 261.626 54.6534C261.066 54.333 260.275 54.3023 259.251 54.5615C258.305 54.801 257.648 55.1405 257.281 55.5801C256.929 56.0158 256.787 56.4974 256.854 57.025L255.272 57.4254C255.197 56.9988 255.211 56.5661 255.315 56.1273C255.418 55.6884 255.611 55.2765 255.893 54.8915C256.191 54.5026 256.589 54.1541 257.089 53.8461C257.589 53.538 258.188 53.2957 258.886 53.119C260.39 52.7381 261.588 52.8064 262.478 53.3237C263.379 53.8217 264.003 54.7531 264.349 56.1181L266.292 63.7959L265.082 64.1021L264.396 62.1716L264.349 62.1834C264.06 62.9992 263.614 63.6815 263.011 64.2305C262.418 64.76 261.703 65.1308 260.866 65.3428ZM260.617 63.8708C261.175 63.7295 261.666 63.5146 262.088 63.2262C262.506 62.9223 262.847 62.572 263.109 62.1754C263.368 61.7633 263.536 61.3166 263.612 60.8351C263.684 60.3382 263.653 59.8261 263.52 59.2987L263.361 58.6705L260.476 59.4008C259.282 59.7032 258.481 60.1285 258.076 60.6769C257.685 61.2213 257.578 61.8425 257.755 62.5405C257.904 63.1299 258.21 63.5559 258.673 63.8184C259.147 64.0614 259.795 64.0789 260.617 63.8708Z" fill="#1A1A1A"/>
<path d="M242.061 59.5285L243.223 59.0716L244.06 60.6764L244.105 60.6588C244.444 59.1157 245.387 58.0396 246.936 57.4304L248.03 56.9999L248.557 58.34L247.44 58.7793C246.353 59.2069 245.622 59.8385 245.246 60.6742C244.879 61.4892 244.894 62.403 245.293 63.4154L247.928 70.1156L246.454 70.6955L242.061 59.5285Z" fill="#1A1A1A"/>
<path d="M225 63.4377L229.964 61.3133C231.803 60.5265 233.343 60.3634 234.584 60.8242C235.826 61.285 236.771 62.273 237.419 63.7881C238.061 65.2885 238.116 66.6572 237.584 67.8944C237.045 69.1168 235.871 70.1151 234.062 70.8894L230.642 72.3529L233.154 78.2221L231.609 78.883L225 63.4377ZM227.149 64.1889L230.038 70.9407L233.347 69.5244C234.745 68.9265 235.626 68.2189 235.989 67.4019C236.362 66.5638 236.309 65.5858 235.83 64.4679C235.358 63.3646 234.691 62.6584 233.827 62.3491C232.964 62.0398 231.841 62.1809 230.458 62.7726L227.149 64.1889Z" fill="#1A1A1A"/>
<path d="M432.548 408.812C431.358 408.222 430.604 407.509 430.287 406.673C429.976 405.823 430.062 404.91 430.545 403.936C431.049 402.918 431.802 402.282 432.802 402.027C433.803 401.773 435.071 402.026 436.605 402.786L439.379 404.161L439.773 403.365C440.199 402.505 440.3 401.778 440.076 401.185C439.86 400.577 439.278 400.039 438.332 399.571C437.457 399.137 436.737 398.968 436.172 399.063C435.622 399.166 435.201 399.439 434.909 399.884L433.447 399.159C433.667 398.786 433.959 398.467 434.323 398.201C434.687 397.935 435.101 397.747 435.566 397.638C436.045 397.536 436.575 397.531 437.155 397.622C437.735 397.712 438.347 397.918 438.992 398.237C440.383 398.926 441.248 399.757 441.588 400.729C441.949 401.693 441.818 402.806 441.193 404.068L437.677 411.165L436.558 410.611L437.292 408.698L437.249 408.676C436.499 409.108 435.717 409.337 434.901 409.361C434.107 409.378 433.323 409.195 432.548 408.812ZM433.316 407.532C433.833 407.787 434.345 407.943 434.853 407.998C435.368 408.039 435.855 407.995 436.312 407.864C436.777 407.719 437.195 407.489 437.565 407.173C437.943 406.842 438.253 406.433 438.495 405.946L438.782 405.365L436.116 404.044C435.012 403.497 434.127 403.3 433.462 403.453C432.812 403.612 432.327 404.015 432.007 404.66C431.737 405.205 431.693 405.727 431.873 406.228C432.076 406.721 432.557 407.155 433.316 407.532Z" fill="#1A1A1A"/>
<path d="M424.465 398.266C423.799 397.917 423.245 397.492 422.803 396.99C422.369 396.474 422.069 395.892 421.902 395.245C421.75 394.605 421.738 393.903 421.866 393.14C421.995 392.376 422.282 391.57 422.728 390.719L423.106 389.996C423.522 389.203 423.996 388.557 424.528 388.058C425.081 387.554 425.66 387.189 426.266 386.964C426.885 386.747 427.524 386.665 428.181 386.721C428.853 386.783 429.522 386.989 430.188 387.338C430.811 387.665 431.327 388.043 431.734 388.473C432.148 388.889 432.455 389.338 432.653 389.821C432.859 390.29 432.968 390.772 432.98 391.266C433 391.746 432.941 392.221 432.803 392.69L431.357 391.933C431.476 391.327 431.416 390.736 431.176 390.159C430.936 389.581 430.42 389.085 429.626 388.669C428.719 388.194 427.801 388.12 426.871 388.446C425.956 388.779 425.183 389.549 424.552 390.753L424.174 391.476C423.491 392.78 423.272 393.921 423.519 394.899C423.773 395.863 424.346 396.579 425.239 397.046C426.033 397.462 426.739 397.597 427.357 397.451C427.975 397.305 428.529 396.954 429.019 396.398L430.465 397.155C430.128 397.592 429.745 397.961 429.317 398.261C428.897 398.546 428.431 398.745 427.921 398.857C427.411 398.969 426.863 398.98 426.278 398.891C425.693 398.801 425.088 398.593 424.465 398.266Z" fill="#1A1A1A"/>
<path d="M416.938 381.266L418.448 381.744L414.831 393.186L413.32 392.708L416.938 381.266ZM418.33 379.491C418.024 379.395 417.796 379.214 417.646 378.948C417.515 378.672 417.498 378.381 417.594 378.076C417.691 377.771 417.869 377.55 418.13 377.415C418.411 377.269 418.705 377.244 419.01 377.34C419.315 377.437 419.533 377.623 419.663 377.899C419.814 378.165 419.842 378.451 419.745 378.756C419.649 379.061 419.46 379.287 419.179 379.433C418.918 379.568 418.635 379.588 418.33 379.491Z" fill="#1A1A1A"/>
<path d="M406.128 386.23C405.374 386.017 404.825 385.721 404.483 385.342C404.141 384.963 403.918 384.576 403.813 384.181C403.728 383.775 403.718 383.398 403.783 383.05C403.847 382.703 403.899 382.46 403.938 382.321L405.943 375.206L403.863 374.62L404.254 373.234L406.333 373.82L407.244 370.586L408.769 371.015L407.858 374.25L410.953 375.122L410.563 376.508L407.467 375.636L405.515 382.566C405.168 383.798 405.564 384.574 406.704 384.896L408.321 385.351L407.93 386.737L406.128 386.23Z" fill="#1A1A1A"/>
<path d="M393.812 376.948C392.533 376.588 391.661 376.026 391.194 375.263C390.732 374.485 390.649 373.572 390.944 372.524C391.252 371.431 391.874 370.667 392.811 370.233C393.748 369.799 395.04 369.814 396.688 370.278L399.668 371.117L399.909 370.263C400.169 369.339 400.135 368.606 399.805 368.064C399.48 367.507 398.809 367.085 397.793 366.799C396.853 366.534 396.115 366.501 395.577 366.699C395.055 366.9 394.691 367.247 394.486 367.738L392.915 367.295C393.063 366.888 393.292 366.52 393.6 366.192C393.909 365.863 394.282 365.602 394.718 365.409C395.17 365.221 395.69 365.118 396.276 365.1C396.863 365.083 397.503 365.172 398.196 365.367C399.69 365.788 400.694 366.444 401.207 367.337C401.74 368.219 401.815 369.337 401.433 370.692L399.286 378.315L398.085 377.977L398.453 375.961L398.407 375.948C397.749 376.511 397.022 376.88 396.225 377.054C395.448 377.218 394.643 377.182 393.812 376.948ZM394.331 375.548C394.885 375.704 395.417 375.763 395.927 375.724C396.441 375.669 396.911 375.535 397.336 375.323C397.766 375.095 398.134 374.791 398.441 374.412C398.751 374.018 398.98 373.558 399.128 373.035L399.304 372.411L396.439 371.604C395.253 371.27 394.348 371.239 393.722 371.512C393.112 371.789 392.71 372.274 392.514 372.967C392.35 373.552 392.402 374.074 392.672 374.532C392.961 374.98 393.514 375.318 394.331 375.548Z" fill="#1A1A1A"/>
<path d="M369.65 358.167L370.886 358.338L370.828 360.148L370.876 360.154C371.424 359.584 372.022 359.174 372.67 358.925C373.334 358.678 374.031 358.605 374.76 358.706C375.616 358.825 376.333 359.127 376.912 359.611C377.491 360.095 377.892 360.756 378.115 361.595C378.585 360.885 379.189 360.371 379.928 360.053C380.682 359.738 381.511 359.643 382.414 359.769C383.033 359.854 383.581 360.035 384.059 360.312C384.538 360.588 384.93 360.966 385.235 361.444C385.542 361.907 385.748 362.46 385.853 363.105C385.975 363.736 385.98 364.455 385.868 365.264L384.878 372.395L383.309 372.177L384.299 365.046C384.462 363.873 384.321 362.965 383.877 362.322C383.436 361.663 382.763 361.271 381.86 361.145C381.416 361.084 380.992 361.114 380.588 361.235C380.185 361.341 379.819 361.533 379.49 361.81C379.163 362.072 378.883 362.404 378.649 362.808C378.431 363.214 378.286 363.678 378.213 364.201L377.224 371.333L375.655 371.115L376.644 363.983C376.807 362.811 376.667 361.903 376.223 361.26C375.781 360.601 375.109 360.209 374.205 360.083C373.762 360.022 373.337 360.052 372.933 360.173C372.531 360.279 372.165 360.47 371.835 360.748C371.508 361.009 371.228 361.342 370.994 361.746C370.776 362.151 370.631 362.616 370.559 363.139L369.569 370.271L368 370.053L369.65 358.167Z" fill="#1A1A1A"/>
<path d="M356.075 365.72C355.397 365.529 354.806 365.238 354.301 364.847C353.801 364.44 353.406 363.954 353.116 363.391C352.845 362.816 352.686 362.172 352.637 361.461C352.593 360.733 352.69 359.946 352.928 359.099L353.15 358.314C353.384 357.482 353.708 356.775 354.121 356.194C354.539 355.596 355.02 355.125 355.566 354.781C356.112 354.436 356.703 354.228 357.338 354.157C357.977 354.072 358.628 354.122 359.29 354.308C360.121 354.543 360.802 354.901 361.331 355.382C361.865 355.848 362.292 356.484 362.614 357.29L362.66 357.303L363.333 355.622L364.534 355.96L361.248 367.626C360.827 369.12 360.096 370.153 359.054 370.724C358.023 371.314 356.761 371.399 355.267 370.978C353.819 370.57 352.83 369.951 352.3 369.12C351.784 368.293 351.617 367.324 351.798 366.211L353.368 366.653C353.296 367.381 353.418 367.981 353.734 368.452C354.062 368.943 354.703 369.323 355.657 369.592C356.72 369.892 357.581 369.843 358.241 369.447C358.917 369.056 359.422 368.267 359.756 367.081L360.341 365.002L360.295 364.989C359.145 365.945 357.738 366.189 356.075 365.72ZM356.789 364.425C357.821 364.716 358.746 364.619 359.563 364.135C360.386 363.635 360.977 362.746 361.337 361.468L361.558 360.682C361.91 359.435 361.858 358.381 361.402 357.522C360.965 356.651 360.247 356.074 359.246 355.792C358.229 355.506 357.31 355.613 356.488 356.112C355.67 356.597 355.081 357.478 354.721 358.756L354.499 359.542C354.148 360.789 354.19 361.848 354.626 362.719C355.082 363.579 355.803 364.148 356.789 364.425Z" fill="#1A1A1A"/>
<path d="M339.906 364.819C338.596 364.601 337.668 364.138 337.12 363.431C336.576 362.708 336.392 361.81 336.571 360.736C336.757 359.616 337.292 358.788 338.176 358.254C339.059 357.72 340.346 357.593 342.034 357.874L345.089 358.382L345.234 357.506C345.392 356.559 345.277 355.834 344.89 355.332C344.506 354.814 343.793 354.468 342.751 354.295C341.789 354.135 341.051 354.182 340.538 354.438C340.041 354.696 339.717 355.08 339.568 355.59L337.958 355.323C338.06 354.902 338.247 354.511 338.518 354.15C338.788 353.79 339.13 353.49 339.543 353.251C339.972 353.014 340.477 352.854 341.058 352.773C341.639 352.691 342.285 352.709 342.995 352.827C344.526 353.082 345.596 353.624 346.204 354.455C346.83 355.273 347.028 356.377 346.797 357.766L345.497 365.578L344.266 365.374L344.412 363.33L344.364 363.322C343.773 363.953 343.09 364.399 342.317 364.66C341.562 364.908 340.759 364.961 339.906 364.819ZM340.269 363.371C340.837 363.465 341.372 363.465 341.875 363.37C342.38 363.259 342.832 363.075 343.232 362.817C343.634 362.544 343.967 362.201 344.23 361.791C344.495 361.365 344.673 360.883 344.762 360.347L344.868 359.708L341.932 359.219C340.717 359.017 339.814 359.086 339.222 359.425C338.646 359.768 338.299 360.294 338.181 361.004C338.081 361.604 338.19 362.117 338.509 362.543C338.846 362.956 339.432 363.232 340.269 363.371Z" fill="#1A1A1A"/>
<path d="M324.995 351.163L326.203 351.474L325.94 353.265L325.987 353.277C327.166 352.227 328.562 351.909 330.173 352.324L331.312 352.618L330.952 354.012L329.79 353.713C328.659 353.421 327.696 353.503 326.901 353.959C326.126 354.404 325.602 355.153 325.331 356.206L323.534 363.179L322 362.783L324.995 351.163Z" fill="#1A1A1A"/>
<path d="M306.526 346L311.923 346.169C313.922 346.232 315.387 346.734 316.318 347.676C317.249 348.617 317.689 349.912 317.637 351.559C317.586 353.19 317.059 354.454 316.054 355.351C315.05 356.232 313.564 356.642 311.597 356.58L307.879 356.464L307.679 362.845L306 362.792L306.526 346ZM308.157 347.588L307.927 354.929L311.525 355.041C313.045 355.089 314.142 354.819 314.816 354.232C315.508 353.629 315.872 352.72 315.91 351.505C315.948 350.306 315.641 349.383 314.989 348.739C314.336 348.094 313.259 347.748 311.755 347.701L308.157 347.588Z" fill="#1A1A1A"/>
<path d="M343.1 54.6594C377.69 43.589 443.226 43.2111 474 31.9549V2.45148C454.542 -1.55185 406.697 3.35374 394.687 9.53091C382.949 15.5688 345.333 24.0786 328.961 27.9282C308.639 32.7068 290.991 39.6833 270.877 44.2814C236.003 52.2539 208.966 63.0266 178.02 73.2139C153.84 81.1736 181.459 113.677 181.459 124.16C181.459 134.678 175.155 162.707 143.246 166.458C100.689 171.462 114.303 190.161 90.5119 199.951C76.275 205.809 59.4512 207.912 45.4205 212.53C35.5584 215.777 7.4807 215.518 3.00411 221.965C-6.60609 235.805 21.3656 254.499 23.257 268.508C25.715 286.714 50.7704 305.31 50.7704 323.7C50.7704 338.952 82.1012 353.732 107.326 364.112C121.968 370.137 189.474 401.344 208.056 391.786C238.328 376.216 267.611 376.217 316.37 376.219L318.11 376.219C368.099 376.219 369.968 376.547 380.549 391.786C382.396 394.447 376.537 403.242 384.752 404.208C390.903 404.931 404.47 406.567 408.444 408.611C417.753 413.399 408.444 435 448.186 435C487.927 435 461.702 353.949 448.186 348.387C430.456 341.092 411.185 345.24 391.248 340.682C356.999 332.853 297.47 342.098 263.999 342.098C254.939 342.098 210.047 346.272 203.622 348.387C193.469 351.73 155.559 350.711 147.067 346.343C133.888 339.564 79.398 308.133 133.31 308.133C215.743 308.133 309.46 301.423 345.011 268.508C355.837 258.485 341.936 223.972 322.465 217.562C309.135 213.174 272.859 182.037 270.877 175.107C266.396 159.432 233.053 142.566 223.111 128.249C211.737 111.867 229.379 94.6925 255.592 83.9064C284.376 72.0622 312.286 64.5213 343.1 54.6594Z" stroke="#1A1A1A" stroke-linecap="round"/>
</svg>
