<svg width="655" height="394" viewBox="0 0 655 394" fill="none" xmlns="http://www.w3.org/2000/svg">
<path d="M290.16 273.76H288V272.8H290.16V270.88C290.16 268.96 291.12 268 293.04 268H294.72V269.008H293.16C292.488 269.008 291.992 269.168 291.672 269.488C291.368 269.792 291.216 270.296 291.216 271V272.8H297.72V270.88C297.72 268.96 298.68 268 300.6 268H306.096V281.824C306.096 282.512 306.24 283.016 306.528 283.336C306.832 283.64 307.288 283.792 307.896 283.792H308.64V284.8H307.776C306.88 284.8 306.2 284.568 305.736 284.104C305.272 283.624 305.04 282.904 305.04 281.944V269.008H300.72C300.048 269.008 299.552 269.168 299.232 269.488C298.928 269.792 298.776 270.296 298.776 271V272.8H301.896V273.76H298.776V284.8H297.72V273.76H291.216V284.8H290.16V273.76Z" fill="#1A1A1A"/>
<path d="M272.336 215.104H273.392V227.104H272.336V215.104ZM275.456 230.944H276.08C276.56 230.944 276.928 230.848 277.184 230.656C277.44 230.48 277.624 230.256 277.736 229.984C277.864 229.728 277.936 229.456 277.952 229.168C277.984 228.88 278 228.632 278 228.424V215.104H279.056V228.544C279.056 228.784 279.04 229.096 279.008 229.48C278.976 229.864 278.864 230.232 278.672 230.584C278.48 230.952 278.184 231.264 277.784 231.52C277.384 231.776 276.816 231.904 276.08 231.904H275.456V230.944ZM278.528 212.728C278.272 212.728 278.064 212.648 277.904 212.488C277.744 212.328 277.664 212.12 277.664 211.864C277.664 211.608 277.744 211.4 277.904 211.24C278.064 211.08 278.272 211 278.528 211C278.784 211 278.992 211.08 279.152 211.24C279.312 211.4 279.392 211.608 279.392 211.864C279.392 212.12 279.312 212.328 279.152 212.488C278.992 212.648 278.784 212.728 278.528 212.728ZM272.864 212.728C272.608 212.728 272.4 212.648 272.24 212.488C272.08 212.328 272 212.12 272 211.864C272 211.608 272.08 211.4 272.24 211.24C272.4 211.08 272.608 211 272.864 211C273.12 211 273.328 211.08 273.488 211.24C273.648 211.4 273.728 211.608 273.728 211.864C273.728 212.12 273.648 212.328 273.488 212.488C273.328 212.648 273.12 212.728 272.864 212.728Z" fill="#1A1A1A"/>
<path d="M251.6 172.288C250.448 172.288 249.56 171.992 248.936 171.4C248.312 170.792 248 169.968 248 168.928C248 167.856 248.376 167.008 249.128 166.384C249.896 165.744 251.168 165.424 252.944 165.424H255.824V163.984C255.824 162.96 255.584 162.208 255.104 161.728C254.624 161.248 253.856 161.008 252.8 161.008C251.792 161.008 251.048 161.216 250.568 161.632C250.104 162.032 249.84 162.576 249.776 163.264H248.72C248.784 162.288 249.144 161.504 249.8 160.912C250.472 160.304 251.472 160 252.8 160C254.848 160 256.128 160.768 256.64 162.304C257.056 161.568 257.608 161 258.296 160.6C259 160.2 259.784 160 260.648 160C261.368 160 262.024 160.128 262.616 160.384C263.224 160.624 263.736 160.976 264.152 161.44C264.584 161.904 264.92 162.488 265.16 163.192C265.4 163.88 265.52 164.664 265.52 165.544V166.384H256.88C256.88 167.184 256.976 167.888 257.168 168.496C257.376 169.104 257.648 169.616 257.984 170.032C258.32 170.448 258.712 170.76 259.16 170.968C259.624 171.176 260.12 171.28 260.648 171.28C261.72 171.28 262.52 171.064 263.048 170.632C263.592 170.184 263.984 169.568 264.224 168.784H265.328C265.088 169.824 264.592 170.672 263.84 171.328C263.088 171.968 262.024 172.288 260.648 172.288C259.64 172.288 258.744 172.016 257.96 171.472C257.192 170.912 256.624 170.136 256.256 169.144C255.888 170.104 255.288 170.872 254.456 171.448C253.624 172.008 252.672 172.288 251.6 172.288ZM260.648 161.008C260.104 161.008 259.6 161.112 259.136 161.32C258.672 161.512 258.272 161.8 257.936 162.184C257.6 162.552 257.336 163.016 257.144 163.576C256.968 164.12 256.88 164.736 256.88 165.424H264.416C264.384 163.968 264.016 162.872 263.312 162.136C262.624 161.384 261.736 161.008 260.648 161.008ZM251.6 171.28C252.128 171.28 252.632 171.184 253.112 170.992C253.592 170.8 254.024 170.536 254.408 170.2C254.792 169.864 255.104 169.464 255.344 169C255.6 168.52 255.76 168 255.824 167.44V166.384H252.944C252.24 166.384 251.648 166.448 251.168 166.576C250.688 166.704 250.288 166.88 249.968 167.104C249.664 167.328 249.44 167.6 249.296 167.92C249.168 168.224 249.104 168.56 249.104 168.928C249.104 169.648 249.32 170.224 249.752 170.656C250.184 171.072 250.8 171.28 251.6 171.28Z" fill="#1A1A1A"/>
<path d="M231.912 129.088C230.904 129.088 229.976 128.912 229.128 128.56C228.296 128.208 227.568 127.704 226.944 127.048C226.336 126.376 225.856 125.568 225.504 124.624C225.168 123.664 225 122.584 225 121.384V119.704C225 118.504 225.168 117.432 225.504 116.488C225.856 115.528 226.336 114.72 226.944 114.064C227.568 113.392 228.304 112.88 229.152 112.528C230 112.176 230.92 112 231.912 112C232.696 112 233.376 112.104 233.952 112.312C234.544 112.504 235.04 112.728 235.44 112.984V112.144H244.92V113.152H236.544V119.8H243.48V120.808H236.544V127.936H244.92V128.944H235.44V128.104C235.04 128.36 234.544 128.592 233.952 128.8C233.376 128.992 232.696 129.088 231.912 129.088ZM226.152 121.384C226.152 122.424 226.296 123.36 226.584 124.192C226.872 125.008 227.272 125.704 227.784 126.28C228.312 126.84 228.928 127.272 229.632 127.576C230.336 127.88 231.096 128.032 231.912 128.032C232.696 128.032 233.376 127.912 233.952 127.672C234.544 127.432 235.04 127.16 235.44 126.856V114.232C235.04 113.928 234.544 113.656 233.952 113.416C233.376 113.176 232.696 113.056 231.912 113.056C231.08 113.056 230.312 113.208 229.608 113.512C228.904 113.8 228.296 114.232 227.784 114.808C227.272 115.368 226.872 116.064 226.584 116.896C226.296 117.712 226.152 118.648 226.152 119.704V121.384Z" fill="#1A1A1A"/>
<path d="M203.016 86.288C202.264 86.288 201.576 86.168 200.952 85.928C200.344 85.672 199.816 85.312 199.368 84.848C198.936 84.368 198.6 83.784 198.36 83.096C198.12 82.408 198 81.624 198 80.744V79.544C198 78.664 198.12 77.88 198.36 77.192C198.6 76.504 198.944 75.928 199.392 75.464C199.84 74.984 200.368 74.624 200.976 74.384C201.584 74.128 202.264 74 203.016 74C204.072 74 204.984 74.248 205.752 74.744C206.52 75.24 207.096 75.968 207.48 76.928C207.848 75.968 208.408 75.24 209.16 74.744C209.928 74.248 210.816 74 211.824 74C212.544 74 213.2 74.128 213.792 74.384C214.4 74.624 214.92 74.976 215.352 75.44C215.784 75.904 216.12 76.488 216.36 77.192C216.6 77.88 216.72 78.664 216.72 79.544V80.384H208.032C208.032 82.048 208.384 83.28 209.088 84.08C209.792 84.88 210.704 85.28 211.824 85.28C212.912 85.28 213.72 85.064 214.248 84.632C214.792 84.184 215.184 83.568 215.424 82.784H216.528C216.288 83.824 215.792 84.672 215.04 85.328C214.288 85.968 213.216 86.288 211.824 86.288C210.816 86.288 209.928 86.04 209.16 85.544C208.408 85.048 207.848 84.32 207.48 83.36C207.096 84.304 206.512 85.032 205.728 85.544C204.96 86.04 204.056 86.288 203.016 86.288ZM211.824 75.008C210.704 75.008 209.792 75.384 209.088 76.136C208.384 76.888 208.032 77.984 208.032 79.424H215.616C215.584 77.968 215.216 76.872 214.512 76.136C213.824 75.384 212.928 75.008 211.824 75.008ZM203.016 85.28C204.168 85.28 205.104 84.896 205.824 84.128C206.56 83.344 206.928 82.216 206.928 80.744V79.544C206.928 78.824 206.832 78.184 206.64 77.624C206.448 77.048 206.176 76.568 205.824 76.184C205.472 75.8 205.056 75.512 204.576 75.32C204.112 75.112 203.592 75.008 203.016 75.008C201.864 75.008 200.92 75.4 200.184 76.184C199.464 76.952 199.104 78.072 199.104 79.544V80.744C199.104 81.464 199.2 82.112 199.392 82.688C199.584 83.248 199.856 83.72 200.208 84.104C200.56 84.488 200.968 84.784 201.432 84.992C201.912 85.184 202.44 85.28 203.016 85.28Z" fill="#1A1A1A"/>
<path d="M163.08 55H173.28V56.008H164.664V62.656H171.84V63.664H164.664V70.792H173.28V71.8H163.56V66.664H157.32L154.248 71.8H153L163.08 55ZM163.56 65.656V56.2L157.92 65.656H163.56Z" fill="#1A1A1A"/>
<path d="M1 2.14531C4.41408 2.14532 14.2931 1 18.8101 1C24.1803 1 29.3046 3.63104 34.6193 3.63104C39.0846 3.63104 47.0925 2.72882 50.6626 5.96974C54.2012 9.18191 61.5539 6.18917 65.652 7.65068C76.1267 11.3862 88.5494 11.0622 99.4368 14.0821C110.341 17.1066 123.243 20.7328 134.51 20.7328C150.611 20.7328 166.899 22.0483 183.225 22.0483C192.687 22.0483 202.118 23.9771 211.682 24.6793M234.868 58.152C236.992 65.4396 241.471 70.6869 244.12 77.3001C247.641 86.0905 252.94 96.9239 259.636 103.61C263.062 107.032 265.29 112.676 269.18 115.45C273.167 118.294 276.913 121.905 280.773 124.659C288.387 130.089 297.408 138.121 301.501 148.338C306.5 160.818 308.644 174.303 308.644 188.388C308.644 202.535 301.808 226.045 310.986 237.501C315.571 243.224 322.506 244.541 327.85 248.902C335.236 254.931 343.391 261.331 348.694 270.389C352.53 276.941 359.802 279.609 364.503 285.152C368.313 289.643 372.488 294.053 373.93 300.354C375.306 306.364 375.043 312.353 375.043 318.698C375.043 325.378 377.885 332.311 378.205 339.088C378.445 344.179 380 351.173 377.97 357.505C376.137 363.227 374.85 370.661 368.192 370.661C356.186 370.661 345.36 372.143 333.353 369.418C324.417 367.39 308.543 363.246 301.033 371.684C297.917 375.184 286.772 401.653 279.368 390.101C277.217 386.744 281.474 375.107 282.53 371.976C285.603 362.866 288.406 356.28 289.615 346.47C290.654 338.038 287.352 332.472 286.453 324.618C285.82 319.087 282.703 308.025 279.661 304.227C276.123 299.81 272.205 293.25 270.117 287.564C267.297 279.884 263.283 273.816 259.636 266.735C254.621 256.997 253.691 244.784 248.101 234.87C244.092 227.758 237.814 226.574 232.761 232.531C225.145 241.508 224.342 247.406 226.495 259.499C227.666 266.074 233.036 269.855 236.332 273.97C237.588 275.538 230.717 275.943 230.126 275.943C227.747 275.943 225.067 275.425 223.275 273.312C213.875 262.231 219.059 245.257 219.059 230.923C219.059 221.164 221.021 211.98 219.293 202.274C217.241 190.745 216.243 178.418 212.209 167.34C209.244 159.2 206.786 151.436 201.611 144.976C194.448 136.036 185.716 128.957 180.063 118.373C175.892 110.564 174.27 103.35 168.236 97.3252C165.734 94.8272 157.244 98.3484 154.3 98.3484C150.658 98.3484 147.083 100.42 143.702 102.295C137.427 105.776 134.315 110.977 126.781 107.557C120.647 104.773 115.509 102.295 108.864 102.295C93.5206 102.295 79.0703 105.893 64.1297 98.6407C63.439 98.3054 56.5108 99.5291 55.6981 99.9562C53.4278 101.149 49.7417 102.132 47.2666 102.295C42.6781 102.596 37.0319 108.697 33.0969 111.504C27.8952 115.214 22.3579 115.45 16.2338 115.45C10.1748 115.45 7.01358 119.24 1 119.24" stroke="#1A1A1A" stroke-linecap="square"/>
<path d="M117.14 46.808C115.871 46.808 114.9 46.4813 114.228 45.828C113.556 45.156 113.22 44.2133 113.22 43H114.452C114.452 44.8293 115.348 45.744 117.14 45.744C118.932 45.744 119.828 44.8293 119.828 43H121.06C121.06 44.2133 120.724 45.156 120.052 45.828C119.38 46.4813 118.409 46.808 117.14 46.808ZM110 48.6H111.288V66.8H111.344L122.376 48.6H124.28V66.52C124.28 69.0027 123.72 70.832 122.6 72.008C121.499 73.2027 119.959 73.8 117.98 73.8H116.86V72.624H117.98C119.623 72.624 120.864 72.148 121.704 71.196C122.563 70.244 122.992 68.6387 122.992 66.38V50H122.936L111.904 68.2H110V48.6Z" fill="#1A1A1A"/>
<path d="M332.24 315.144H330V314.136H332.24V311H333.472V314.136H338.12V315.144H333.472V319.26H333.528C333.976 318.457 334.583 317.832 335.348 317.384C336.132 316.936 337 316.712 337.952 316.712C339.595 316.712 340.873 317.188 341.788 318.14C342.703 319.073 343.16 320.473 343.16 322.34V330.012C343.16 332.177 342.731 333.745 341.872 334.716C341.032 335.687 339.875 336.172 338.4 336.172H337.56V335.052H338.12C338.755 335.052 339.315 334.968 339.8 334.8C340.285 334.632 340.677 334.343 340.976 333.932C341.293 333.54 341.527 333.008 341.676 332.336C341.844 331.683 341.928 330.861 341.928 329.872V322.34C341.928 320.809 341.573 319.68 340.864 318.952C340.173 318.205 339.165 317.832 337.84 317.832C337.187 317.832 336.589 317.944 336.048 318.168C335.525 318.373 335.068 318.672 334.676 319.064C334.303 319.456 334.004 319.932 333.78 320.492C333.575 321.052 333.472 321.668 333.472 322.34V330.6H332.24V315.144Z" fill="#1A1A1A"/>
<path d="M72.296 61.284C70.728 61.284 69.3653 61.1067 68.208 60.752C67.0507 60.3787 66.08 59.856 65.296 59.184C64.5307 58.4933 63.952 57.672 63.56 56.72C63.1867 55.768 63 54.704 63 53.528V52.408C63 51.232 63.1867 50.168 63.56 49.216C63.952 48.264 64.5307 47.452 65.296 46.78C66.08 46.108 67.0507 45.5853 68.208 45.212C69.384 44.8387 70.7467 44.652 72.296 44.652V43H73.584V44.652C75.152 44.652 76.5147 44.8387 77.672 45.212C78.8293 45.5667 79.7907 46.0893 80.556 46.78C81.34 47.452 81.9187 48.264 82.292 49.216C82.684 50.168 82.88 51.232 82.88 52.408V53.528C82.88 54.704 82.684 55.768 82.292 56.72C81.9187 57.672 81.34 58.484 80.556 59.156C79.7907 59.828 78.82 60.3507 77.644 60.724C76.4867 61.0973 75.1333 61.284 73.584 61.284V62.936H72.296V61.284ZM81.536 52.408C81.536 51.4187 81.3773 50.5227 81.06 49.72C80.7427 48.9173 80.248 48.236 79.576 47.676C78.9227 47.0973 78.092 46.6587 77.084 46.36C76.0947 46.0427 74.928 45.884 73.584 45.884V60.052C74.9467 60.052 76.1227 59.9027 77.112 59.604C78.12 59.2867 78.9507 58.848 79.604 58.288C80.2573 57.728 80.7427 57.0467 81.06 56.244C81.3773 55.4413 81.536 54.536 81.536 53.528V52.408ZM64.344 53.528C64.344 54.5173 64.5027 55.4133 64.82 56.216C65.1373 57.0187 65.6227 57.7093 66.276 58.288C66.948 58.848 67.7787 59.2867 68.768 59.604C69.776 59.9027 70.952 60.052 72.296 60.052V45.884C69.5707 45.884 67.564 46.472 66.276 47.648C64.988 48.824 64.344 50.4107 64.344 52.408V53.528Z" fill="#1A1A1A"/>
<path d="M25.2 58.188C23.856 58.188 22.82 57.8427 22.092 57.152C21.364 56.4427 21 55.4813 21 54.268C21 53.0173 21.4387 52.028 22.316 51.3C23.212 50.5533 24.696 50.18 26.768 50.18H30.128V48.5C30.128 47.3053 29.848 46.428 29.288 45.868C28.728 45.308 27.832 45.028 26.6 45.028C25.424 45.028 24.556 45.2707 23.996 45.756C23.4547 46.2227 23.1467 46.8573 23.072 47.66H21.84C21.9147 46.5213 22.3347 45.6067 23.1 44.916C23.884 44.2067 25.0507 43.852 26.6 43.852C28.9893 43.852 30.4827 44.748 31.08 46.54C31.5653 45.6813 32.2093 45.0187 33.012 44.552C33.8333 44.0853 34.748 43.852 35.756 43.852C36.596 43.852 37.3613 44.0013 38.052 44.3C38.7613 44.58 39.3587 44.9907 39.844 45.532C40.348 46.0733 40.74 46.7547 41.02 47.576C41.3 48.3787 41.44 49.2933 41.44 50.32V51.3H31.36C31.36 52.2333 31.472 53.0547 31.696 53.764C31.9387 54.4733 32.256 55.0707 32.648 55.556C33.04 56.0413 33.4973 56.4053 34.02 56.648C34.5613 56.8907 35.14 57.012 35.756 57.012C37.0067 57.012 37.94 56.76 38.556 56.256C39.1907 55.7333 39.648 55.0147 39.928 54.1H41.216C40.936 55.3133 40.3573 56.3027 39.48 57.068C38.6027 57.8147 37.3613 58.188 35.756 58.188C34.58 58.188 33.5347 57.8707 32.62 57.236C31.724 56.5827 31.0613 55.6773 30.632 54.52C30.2027 55.64 29.5027 56.536 28.532 57.208C27.5613 57.8613 26.4507 58.188 25.2 58.188ZM35.756 45.028C35.1213 45.028 34.5333 45.1493 33.992 45.392C33.4507 45.616 32.984 45.952 32.592 46.4C32.2 46.8293 31.892 47.3707 31.668 48.024C31.4627 48.6587 31.36 49.3773 31.36 50.18H40.152C40.1147 48.4813 39.6853 47.2027 38.864 46.344C38.0613 45.4667 37.0253 45.028 35.756 45.028ZM25.2 57.012C25.816 57.012 26.404 56.9 26.964 56.676C27.524 56.452 28.028 56.144 28.476 55.752C28.924 55.36 29.288 54.8933 29.568 54.352C29.8667 53.792 30.0533 53.1853 30.128 52.532V51.3H26.768C25.9467 51.3 25.256 51.3747 24.696 51.524C24.136 51.6733 23.6693 51.8787 23.296 52.14C22.9413 52.4013 22.68 52.7187 22.512 53.092C22.3627 53.4467 22.288 53.8387 22.288 54.268C22.288 55.108 22.54 55.78 23.044 56.284C23.548 56.7693 24.2667 57.012 25.2 57.012ZM33.824 38H35.56L31.92 42.2H30.52L33.824 38Z" fill="#1A1A1A"/>
<path d="M210 24.5C217.128 24.5 227.141 25.4963 234.269 25.4963C241.243 25.4963 248.076 29.7732 255.119 29.7732C261.085 29.7732 267.863 32.9808 274.365 32.9808C281.548 32.9808 288.152 32.304 295.214 31.9116C301.256 31.576 311.101 30.3158 316.599 27.8724C319.884 26.4121 323.5 26.0309 327.826 26.0309C330.5 26.0309 335.5 24 337.449 23.3579C339.397 22.7157 345 21.5 347.369 20.9818C350.5 20.2968 354.385 20.1502 357.229 20.1502C364.535 20.1502 371.842 20.1502 379.148 20.1502C394.861 20.1502 410.133 19.081 425.659 19.081C432.523 19.081 440.43 16.4827 447.578 18.0712C451.488 18.9399 456.245 19.3689 459.874 20.9818C463.843 22.7459 467.589 25.3737 471.636 27.3971C477.418 30.2882 482.081 34.8721 486.605 39.3962C489.214 42.005 491.82 45.3617 493.555 48.4845C495.325 51.6707 495.156 55.2168 496.762 58.1075C498.052 60.4284 498.366 66.5764 498.366 69.3343C498.366 71.6913 499.729 76.678 500.742 78.9573C504.007 86.3043 506.692 92.3351 511.672 98.7378C515.075 103.113 519.645 107.768 524.562 110.499C531.75 114.493 536.697 121.591 541.135 128.379C545.072 134.401 550.458 138.517 553.965 144.655C556.12 148.426 563.081 154.022 563.588 158.079C563.846 160.143 566.922 162.906 567.865 165.029C569.092 167.789 570.607 172.733 572.38 174.949C576.436 180.02 578.292 187.625 579.686 193.898C581.106 200.286 581.624 208.769 584.141 214.748C586.46 220.255 589.25 229.904 589.25 235.598C589.25 241.95 594.155 251.377 597.269 256.982C600.212 262.28 601.35 268.678 605.526 273.318C608.784 276.938 611.353 283.918 616.455 285.376C622.548 287.117 627.105 288.524 634.157 288.524C638.735 288.524 649.101 288.718 652.571 291.494C659.37 296.933 644.651 297.078 641.107 297.078C637.694 297.078 622.715 294.846 622.395 300.286C621.984 307.28 624.534 312.466 624.534 318.997C624.534 324.993 625.164 329.889 623.405 336.045C621.284 343.47 611.355 342.206 608.258 348.401C605.677 353.562 607.426 362.935 607.426 368.716C607.426 372.948 609.089 371.864 613.248 373.052C616.835 374.077 611.179 379.408 609.03 379.408C602.938 379.408 593.527 379.015 593.527 371.389C593.527 365.542 596.439 359.391 591.626 354.578C586.272 349.224 581.17 344.981 572.736 347.391C570.571 348.009 568.265 349.835 566.558 351.371C563.956 353.713 561 356 558.005 356.717C556.5 357.077 550.489 358.023 549.154 358.023C546.411 358.023 524.5 355.638 521.414 354.756C517.515 353.643 511.707 347.247 508.821 344.361C506.61 342.151 504.21 341.045 502.643 338.302C501.2 335.778 500.283 333.246 498.901 330.758C497.8 328.778 497.297 323.899 497.297 321.67C497.297 318.277 495.158 314.866 495.158 311.512C495.158 304.66 489.343 296.615 486.367 290.663C480.736 279.401 466.234 271.614 458.567 262.031C455.717 258.469 453.459 249.409 453.459 244.686C453.459 237.513 452.39 230.862 452.39 223.836C452.39 208.874 449.182 194.749 449.182 179.998C449.182 166.335 441.827 156.778 435.045 145.249C431.987 140.051 425.09 135.505 423.461 129.805C422.537 126.569 421.382 124.421 421.382 120.657C421.382 116.811 421.156 114.384 419.481 111.034C415.616 103.304 408.744 101.992 402.968 97.3716C397.402 92.9187 386.449 97.2664 380.277 94.461C375.62 92.3442 368.874 94.6175 363.882 93.6887C359.827 92.9343 354.604 91.7879 350.814 91.7879C344.126 91.7879 335.071 90.8258 328.954 88.0456C326.054 86.7272 321.92 86.629 318.737 86.4418C316.072 86.285 312.605 84.3034 309.649 84.3034C303.05 84.3034 296.104 81.4625 289.868 81.0957C282.462 80.66 275.629 80.0265 267.949 80.0265C260.341 80.0265 253 81.5 247 83.5" stroke="#1A1A1A" stroke-linecap="square"/>
<path d="M368.344 49.2H367L370.388 43.628L367 38H368.4L371.76 43.572L368.344 49.2ZM374.084 49.2H372.74L376.128 43.628L372.74 38H374.14L377.5 43.572L374.084 49.2Z" fill="#1A1A1A"/>
<path d="M346.156 59H347.5L344.112 64.572L347.5 70.2H346.1L342.74 64.628L346.156 59ZM340.416 59H341.76L338.372 64.572L341.76 70.2H340.36L337 64.628L340.416 59Z" fill="#1A1A1A"/>
<path d="M592.976 323.236C591.707 323.236 590.68 322.835 589.896 322.032C589.112 321.229 588.72 320.109 588.72 318.672C588.72 318.355 588.748 318.019 588.804 317.664C588.879 317.291 588.972 316.759 589.084 316.068C589.233 315.228 589.485 314.453 589.84 313.744C590.213 313.035 590.661 312.428 591.184 311.924C591.725 311.401 592.332 311 593.004 310.72C593.676 310.44 594.395 310.3 595.16 310.3C596.112 310.3 596.924 310.515 597.596 310.944C598.268 311.355 598.753 311.98 599.052 312.82L599.472 310.468H600.704L599.22 318.784C599.164 319.101 599.136 319.409 599.136 319.708C599.136 320.492 599.332 321.08 599.724 321.472C600.116 321.864 600.676 322.06 601.404 322.06C602.039 322.06 602.655 321.911 603.252 321.612C603.868 321.313 604.409 320.875 604.876 320.296C605.361 319.717 605.744 319.017 606.024 318.196C606.323 317.375 606.472 316.432 606.472 315.368C606.472 313.949 606.192 312.624 605.632 311.392C605.091 310.141 604.316 309.059 603.308 308.144C602.3 307.211 601.077 306.483 599.64 305.96C598.221 305.419 596.635 305.148 594.88 305.148C593.256 305.148 591.735 305.447 590.316 306.044C588.916 306.641 587.693 307.463 586.648 308.508C585.603 309.553 584.781 310.785 584.184 312.204C583.587 313.623 583.288 315.144 583.288 316.768C583.288 318.411 583.577 319.941 584.156 321.36C584.753 322.779 585.565 324.001 586.592 325.028C587.637 326.073 588.86 326.885 590.26 327.464C591.679 328.061 593.219 328.36 594.88 328.36C596.019 328.36 597.139 328.267 598.24 328.08C599.36 327.893 600.387 327.604 601.32 327.212V328.5C600.499 328.817 599.519 329.069 598.38 329.256C597.241 329.443 596.075 329.536 594.88 329.536C593.069 329.536 591.38 329.209 589.812 328.556C588.244 327.903 586.881 326.997 585.724 325.84C584.567 324.701 583.652 323.357 582.98 321.808C582.327 320.24 582 318.56 582 316.768C582 314.995 582.327 313.333 582.98 311.784C583.652 310.235 584.567 308.881 585.724 307.724C586.9 306.567 588.272 305.661 589.84 305.008C591.408 304.336 593.088 304 594.88 304C596.821 304 598.585 304.299 600.172 304.896C601.759 305.493 603.112 306.315 604.232 307.36C605.352 308.387 606.22 309.591 606.836 310.972C607.452 312.335 607.76 313.8 607.76 315.368C607.76 316.619 607.583 317.729 607.228 318.7C606.892 319.671 606.435 320.492 605.856 321.164C605.277 321.836 604.605 322.349 603.84 322.704C603.075 323.059 602.263 323.236 601.404 323.236C600.377 323.236 599.565 322.993 598.968 322.508C598.371 322.004 598.025 321.304 597.932 320.408C597.391 321.304 596.691 322.004 595.832 322.508C594.992 322.993 594.04 323.236 592.976 323.236ZM593.312 322.06C594.581 322.06 595.645 321.649 596.504 320.828C597.381 319.988 597.951 318.868 598.212 317.468C598.343 316.759 598.436 316.217 598.492 315.844C598.548 315.452 598.576 315.125 598.576 314.864C598.576 313.819 598.259 312.997 597.624 312.4C596.989 311.784 596.159 311.476 595.132 311.476C593.919 311.476 592.883 311.896 592.024 312.736C591.165 313.557 590.615 314.668 590.372 316.068C590.223 316.815 590.12 317.375 590.064 317.748C590.027 318.103 590.008 318.411 590.008 318.672C590.008 319.736 590.288 320.567 590.848 321.164C591.427 321.761 592.248 322.06 593.312 322.06Z" fill="#1A1A1A"/>
<path d="M537.996 310.44H535L535.224 309.32H538.192L539.2 303.72H536.204L536.4 302.6H539.396L540.404 297H541.636L540.628 302.6H545.416L546.424 297H547.656L546.648 302.6H549.56L549.364 303.72H546.452L545.444 309.32H548.356L548.16 310.44H545.248L544.156 316.6H542.924L544.016 310.44H539.228L538.136 316.6H536.904L537.996 310.44ZM544.212 309.32L545.22 303.72H540.432L539.424 309.32H544.212Z" fill="#1A1A1A"/>
<path d="M557.94 259.372H555V258.308H557.94V255.648H555V254.472H557.94V244H563.54C565.799 244 567.479 244.523 568.58 245.568C569.7 246.595 570.26 248.013 570.26 249.824C570.26 251.653 569.7 253.081 568.58 254.108C567.479 255.135 565.799 255.648 563.54 255.648H559.228V258.308H566.06V259.372H559.228V263.6H557.94V259.372ZM559.228 245.176V254.472H563.54C565.388 254.472 566.741 254.071 567.6 253.268C568.477 252.447 568.916 251.299 568.916 249.824C568.916 248.349 568.477 247.211 567.6 246.408C566.741 245.587 565.388 245.176 563.54 245.176H559.228Z" fill="#1A1A1A"/>
<path d="M450 93.588H457.812C458.353 93.0467 458.801 92.496 459.156 91.936C459.529 91.3573 459.716 90.7133 459.716 90.004C459.716 89.164 459.436 88.4827 458.876 87.96C458.316 87.4373 457.504 87.176 456.44 87.176C455.451 87.176 454.648 87.428 454.032 87.932C453.416 88.436 453.033 89.0613 452.884 89.808H451.624C451.699 89.2667 451.867 88.7627 452.128 88.296C452.408 87.8293 452.753 87.428 453.164 87.092C453.575 86.756 454.051 86.4947 454.592 86.308C455.133 86.1027 455.721 86 456.356 86C457.868 86 459.016 86.364 459.8 87.092C460.584 87.82 460.976 88.7907 460.976 90.004C460.976 90.7133 460.827 91.3667 460.528 91.964C460.229 92.5427 459.856 93.084 459.408 93.588H462.32V94.708H450V93.588ZM450 97.228H462.32V98.348H454.116C453.631 98.852 453.229 99.3747 452.912 99.916C452.613 100.457 452.464 101.055 452.464 101.708C452.464 102.641 452.753 103.388 453.332 103.948C453.929 104.489 454.807 104.76 455.964 104.76C457.028 104.76 457.887 104.499 458.54 103.976C459.212 103.453 459.641 102.744 459.828 101.848H461.116C461.023 102.427 460.836 102.968 460.556 103.472C460.295 103.976 459.949 104.415 459.52 104.788C459.091 105.143 458.577 105.423 457.98 105.628C457.383 105.833 456.711 105.936 455.964 105.936C454.415 105.936 453.229 105.553 452.408 104.788C451.605 104.023 451.204 102.996 451.204 101.708C451.204 101.055 451.335 100.457 451.596 99.916C451.876 99.356 452.221 98.8333 452.632 98.348H450V97.228Z" fill="#1A1A1A"/>
<path d="M482.196 115.68H483.148C483.932 115.68 484.539 115.456 484.968 115.008C485.416 114.579 485.743 113.776 485.948 112.6L488.16 99.72H484.996L485.192 98.6H488.356L488.608 97.2C488.739 96.4347 488.916 95.7907 489.14 95.268C489.364 94.7267 489.653 94.288 490.008 93.952C490.381 93.616 490.82 93.3733 491.324 93.224C491.828 93.0747 492.435 93 493.144 93H494.32L494.124 94.12H492.948C492.052 94.12 491.371 94.3347 490.904 94.764C490.437 95.1933 490.101 96.0053 489.896 97.2L489.644 98.6H493.34L493.144 99.72H489.448L487.236 112.6C487.105 113.365 486.928 114.009 486.704 114.532C486.48 115.073 486.191 115.512 485.836 115.848C485.5 116.184 485.089 116.427 484.604 116.576C484.137 116.725 483.587 116.8 482.952 116.8H482L482.196 115.68Z" fill="#1A1A1A"/>
<path d="M458.82 154.42H464.476V151.76H458.82V150.64H463.636L457 140H458.512L465.12 150.64L471.504 140H472.96L466.576 150.64H471.42V151.76H465.764V154.42H471.42V155.54H465.764V159.6H464.476V155.54H458.82V154.42Z" fill="#1A1A1A"/>
<path d="M503 170.592C503.411 170.312 503.765 170.032 504.064 169.752C504.381 169.453 504.643 169.099 504.848 168.688C505.072 168.277 505.24 167.792 505.352 167.232C505.464 166.672 505.52 166 505.52 165.216V163.088H503V161.968H505.52V157.348C505.52 156.583 505.651 155.873 505.912 155.22C506.192 154.567 506.556 154.007 507.004 153.54C507.471 153.055 508.021 152.681 508.656 152.42C509.291 152.14 509.972 152 510.7 152C511.447 152 512.128 152.131 512.744 152.392C513.379 152.653 513.92 153.017 514.368 153.484C514.835 153.951 515.199 154.52 515.46 155.192C515.721 155.845 515.861 156.564 515.88 157.348H514.592C514.555 156.079 514.172 155.08 513.444 154.352C512.735 153.605 511.82 153.232 510.7 153.232C510.14 153.232 509.627 153.335 509.16 153.54C508.693 153.727 508.283 154.007 507.928 154.38C507.573 154.735 507.293 155.164 507.088 155.668C506.901 156.172 506.808 156.732 506.808 157.348V161.968H512.1V163.088H506.808V165.216C506.808 165.944 506.761 166.588 506.668 167.148C506.593 167.689 506.472 168.175 506.304 168.604C506.136 169.015 505.921 169.379 505.66 169.696C505.399 170.013 505.081 170.312 504.708 170.592H515.6V171.768H503V170.592Z" fill="#1A1A1A"/>
<path d="M482.18 204.94C480.593 204.828 479.333 204.212 478.4 203.092C477.467 201.953 477 200.329 477 198.22V197.1C477 195.14 477.476 193.609 478.428 192.508C479.38 191.407 480.631 190.791 482.18 190.66V188H483.3V190.66C483.953 190.716 484.541 190.856 485.064 191.08C485.605 191.304 486.063 191.593 486.436 191.948C486.828 192.284 487.145 192.667 487.388 193.096C487.649 193.525 487.827 193.973 487.92 194.44H486.632C486.427 193.712 486.007 193.087 485.372 192.564C484.737 192.023 483.86 191.752 482.74 191.752C482.105 191.752 481.517 191.873 480.976 192.116C480.435 192.34 479.959 192.685 479.548 193.152C479.156 193.6 478.848 194.16 478.624 194.832C478.4 195.485 478.288 196.241 478.288 197.1V198.22C478.288 199.153 478.4 199.975 478.624 200.684C478.848 201.375 479.156 201.953 479.548 202.42C479.959 202.887 480.435 203.241 480.976 203.484C481.517 203.727 482.105 203.848 482.74 203.848C483.86 203.848 484.737 203.577 485.372 203.036C486.007 202.476 486.427 201.757 486.632 200.88H487.92C487.827 201.421 487.649 201.925 487.388 202.392C487.145 202.859 486.828 203.279 486.436 203.652C486.063 204.007 485.605 204.296 485.064 204.52C484.541 204.744 483.953 204.884 483.3 204.94V207.6H482.18V204.94Z" fill="#1A1A1A"/>
<path d="M535.308 199.34H538.08V196.26H535L535.308 195.14H538.164C538.295 193.964 538.565 192.928 538.976 192.032C539.405 191.136 539.947 190.389 540.6 189.792C541.253 189.195 542.019 188.747 542.896 188.448C543.773 188.149 544.735 188 545.78 188H550.68L550.344 189.176H545.78C544.025 189.176 542.597 189.661 541.496 190.632C540.395 191.603 539.713 193.105 539.452 195.14H548.664L548.328 196.26H539.368V199.34H547.46L547.124 200.46H539.452C539.713 202.495 540.395 203.997 541.496 204.968C542.597 205.939 544.025 206.424 545.78 206.424H550.4V207.6H545.78C543.652 207.6 541.916 207.003 540.572 205.808C539.228 204.613 538.425 202.831 538.164 200.46H535L535.308 199.34Z" fill="#1A1A1A"/>
<path d="M507.964 254.54C506.116 254.447 504.688 253.896 503.68 252.888C502.691 251.88 502.131 250.471 502 248.66H503.4C503.661 251.553 505.183 253.103 507.964 253.308V244.796C507.255 244.591 506.555 244.367 505.864 244.124C505.192 243.863 504.585 243.536 504.044 243.144C503.521 242.752 503.092 242.267 502.756 241.688C502.439 241.109 502.28 240.4 502.28 239.56C502.28 238.888 502.401 238.272 502.644 237.712C502.887 237.133 503.241 236.629 503.708 236.2C504.193 235.752 504.791 235.397 505.5 235.136C506.209 234.875 507.031 234.716 507.964 234.66V232H509.196V234.66C510.988 234.753 512.351 235.276 513.284 236.228C514.217 237.161 514.749 238.412 514.88 239.98H513.48C513.331 238.767 512.911 237.805 512.22 237.096C511.548 236.387 510.54 235.985 509.196 235.892V243.816C509.924 244.04 510.643 244.283 511.352 244.544C512.08 244.805 512.724 245.141 513.284 245.552C513.844 245.963 514.292 246.476 514.628 247.092C514.983 247.689 515.16 248.445 515.16 249.36C515.16 250.835 514.675 252.048 513.704 253C512.733 253.933 511.231 254.447 509.196 254.54V257.2H507.964V254.54ZM503.624 239.56C503.624 240.139 503.736 240.633 503.96 241.044C504.203 241.455 504.52 241.809 504.912 242.108C505.323 242.407 505.789 242.659 506.312 242.864C506.835 243.069 507.385 243.265 507.964 243.452V235.892C506.489 235.985 505.397 236.377 504.688 237.068C503.979 237.74 503.624 238.571 503.624 239.56ZM513.816 249.36C513.816 248.725 513.685 248.184 513.424 247.736C513.181 247.288 512.845 246.905 512.416 246.588C512.005 246.271 511.52 246 510.96 245.776C510.4 245.552 509.812 245.347 509.196 245.16V253.308C510.783 253.215 511.949 252.813 512.696 252.104C513.443 251.376 513.816 250.461 513.816 249.36Z" fill="#1A1A1A"/>
<path d="M431.376 77.608H426V76.432H431.376V71H432.664V76.432H438.04V77.608H432.664V83.04H431.376V77.608Z" fill="#1A1A1A"/>
<path d="M457 45H469.04V46.176H457V45ZM457 50.6H469.04V51.776H457V50.6Z" fill="#1A1A1A"/>
<path d="M416 44H425.8V45.12H416V44Z" fill="#1A1A1A"/>
<path d="M280.34 58.136C279.705 58.136 279.117 58.0333 278.576 57.828C278.053 57.604 277.596 57.296 277.204 56.904C276.831 56.512 276.532 56.036 276.308 55.476C276.103 54.916 276 54.3 276 53.628V52.508C276 51.836 276.103 51.22 276.308 50.66C276.532 50.1 276.831 49.624 277.204 49.232C277.596 48.84 278.053 48.5413 278.576 48.336C279.117 48.112 279.705 48 280.34 48C280.975 48 281.553 48.112 282.076 48.336C282.617 48.5413 283.075 48.84 283.448 49.232C283.84 49.624 284.139 50.1 284.344 50.66C284.568 51.22 284.68 51.836 284.68 52.508V53.628C284.68 54.3 284.568 54.916 284.344 55.476C284.139 56.036 283.84 56.512 283.448 56.904C283.075 57.296 282.617 57.604 282.076 57.828C281.553 58.0333 280.975 58.136 280.34 58.136ZM280.34 56.96C281.255 56.96 282.001 56.6613 282.58 56.064C283.159 55.4667 283.448 54.6547 283.448 53.628V52.508C283.448 51.4813 283.159 50.6693 282.58 50.072C282.001 49.4747 281.255 49.176 280.34 49.176C279.425 49.176 278.679 49.4747 278.1 50.072C277.521 50.6693 277.232 51.4813 277.232 52.508V53.628C277.232 54.6547 277.521 55.4667 278.1 56.064C278.679 56.6613 279.425 56.96 280.34 56.96ZM293.5 67.936C292.865 67.936 292.277 67.8333 291.736 67.628C291.213 67.404 290.756 67.096 290.364 66.704C289.991 66.312 289.692 65.836 289.468 65.276C289.263 64.716 289.16 64.1 289.16 63.428V62.308C289.16 61.636 289.263 61.02 289.468 60.46C289.692 59.9 289.991 59.424 290.364 59.032C290.756 58.64 291.213 58.3413 291.736 58.136C292.277 57.912 292.865 57.8 293.5 57.8C294.135 57.8 294.713 57.912 295.236 58.136C295.777 58.3413 296.235 58.64 296.608 59.032C297 59.424 297.299 59.9 297.504 60.46C297.728 61.02 297.84 61.636 297.84 62.308V63.428C297.84 64.1 297.728 64.716 297.504 65.276C297.299 65.836 297 66.312 296.608 66.704C296.235 67.096 295.777 67.404 295.236 67.628C294.713 67.8333 294.135 67.936 293.5 67.936ZM304.7 67.936C304.065 67.936 303.477 67.8333 302.936 67.628C302.413 67.404 301.956 67.096 301.564 66.704C301.191 66.312 300.892 65.836 300.668 65.276C300.463 64.716 300.36 64.1 300.36 63.428V62.308C300.36 61.636 300.463 61.02 300.668 60.46C300.892 59.9 301.191 59.424 301.564 59.032C301.956 58.64 302.413 58.3413 302.936 58.136C303.477 57.912 304.065 57.8 304.7 57.8C305.335 57.8 305.913 57.912 306.436 58.136C306.977 58.3413 307.435 58.64 307.808 59.032C308.2 59.424 308.499 59.9 308.704 60.46C308.928 61.02 309.04 61.636 309.04 62.308V63.428C309.04 64.1 308.928 64.716 308.704 65.276C308.499 65.836 308.2 66.312 307.808 66.704C307.435 67.096 306.977 67.404 306.436 67.628C305.913 67.8333 305.335 67.936 304.7 67.936ZM293.5 66.76C294.415 66.76 295.161 66.4613 295.74 65.864C296.319 65.2667 296.608 64.4547 296.608 63.428V62.308C296.608 61.2813 296.319 60.4693 295.74 59.872C295.161 59.2747 294.415 58.976 293.5 58.976C292.585 58.976 291.839 59.2747 291.26 59.872C290.681 60.4693 290.392 61.2813 290.392 62.308V63.428C290.392 64.4547 290.681 65.2667 291.26 65.864C291.839 66.4613 292.585 66.76 293.5 66.76ZM304.7 66.76C305.615 66.76 306.361 66.4613 306.94 65.864C307.519 65.2667 307.808 64.4547 307.808 63.428V62.308C307.808 61.2813 307.519 60.4693 306.94 59.872C306.361 59.2747 305.615 58.976 304.7 58.976C303.785 58.976 303.039 59.2747 302.46 59.872C301.881 60.4693 301.592 61.2813 301.592 62.308V63.428C301.592 64.4547 301.881 65.2667 302.46 65.864C303.039 66.4613 303.785 66.76 304.7 66.76ZM292.016 48.168H293.36L281.824 67.768H280.48L292.016 48.168Z" fill="#1A1A1A"/>
</svg>
