<svg width="1140" height="146" viewBox="0 0 1140 146" fill="none" xmlns="http://www.w3.org/2000/svg">
<path d="M970 90C970 88.3398 970.524 86.7812 970.524 85.0667C970.524 84.5147 970.408 83.1852 970.466 82.5926C970.524 82.0001 972.499 82.0001 972.94 82.0001C979.16 82.0001 985.357 82.2667 991.6 82.2667C995.49 82.2667 999.337 82.2667 1003.21 82.2667C1009.36 82.2667 1015.5 82.5334 1021.64 82.5334C1027.52 82.5334 1033.36 83.0667 1039.22 83.0667C1040.31 83.0667 1040.68 83.6348 1040.74 84.6667C1040.78 85.4707 1041 86.3088 1041 87.0667" stroke="#1A1A1A" stroke-linecap="round"/>
<path d="M800.612 53C799.032 53.5108 797.71 54.4889 796.079 55.0164C795.554 55.1863 794.253 55.4845 793.707 55.7223C793.161 55.96 793.769 57.8393 793.905 58.2589C795.818 64.1768 797.979 69.9917 799.9 75.9314C801.097 79.6332 802.28 83.2929 803.473 86.983C805.365 92.8337 807.506 98.5867 809.396 104.434C811.204 110.024 813.511 115.424 815.314 120.999C815.649 122.037 816.302 122.208 817.302 121.947C818.081 121.744 818.945 121.692 819.666 121.458" stroke="#1A1A1A" stroke-linecap="round"/>
<path d="M326.464 114.45C325.765 114.45 325.021 114.337 324.27 114.337C324.076 114.337 323.361 114.228 323.226 114.362C323.086 114.503 323.201 115.26 323.201 115.462C323.201 116.228 323.201 116.971 323.095 117.712C322.995 118.412 322.944 119.567 323.095 120.244C323.251 120.948 323.201 121.7 323.201 122.437C323.201 122.954 323.342 122.887 323.82 122.887C324.233 122.887 324.645 122.887 325.058 122.887C326.889 122.887 328.665 123 330.49 123C332.365 123 334.163 122.775 336.029 122.775C336.798 122.775 337.567 122.775 338.336 122.775C338.932 122.775 338.842 122.612 338.842 122.05C338.842 121.598 338.842 121.146 338.842 120.694C338.842 119.044 338.842 117.394 338.842 115.744C338.842 115.287 339.329 114 338.592 114C337.7 114 336.808 114 335.916 114" stroke="#1A1A1A" stroke-linecap="round"/>
<path d="M523.536 68.55C524.235 68.55 524.979 68.6625 525.73 68.6625C525.924 68.6625 526.639 68.7723 526.774 68.6375C526.914 68.497 526.799 67.7402 526.799 67.5375C526.799 66.7717 526.799 66.0292 526.905 65.2875C527.005 64.5879 527.056 63.4335 526.905 62.7563C526.749 62.0516 526.799 61.3001 526.799 60.5625C526.799 60.046 526.658 60.1125 526.18 60.1125C525.767 60.1125 525.355 60.1125 524.942 60.1125C523.111 60.1125 521.335 60 519.51 60C517.635 60 515.837 60.225 513.971 60.225C513.202 60.225 512.433 60.225 511.664 60.225C511.068 60.225 511.158 60.3882 511.158 60.95C511.158 61.4021 511.158 61.8542 511.158 62.3063C511.158 63.9563 511.158 65.6063 511.158 67.2563C511.158 67.7129 510.671 69 511.408 69C512.3 69 513.192 69 514.084 69" stroke="#1A1A1A" stroke-linecap="round"/>
<path d="M160.327 55.4642C157.985 55.7424 156.006 56.3651 153.598 56.6513C150.519 57.0171 147.23 57.4079 144.114 57.7782C140.609 58.1946 137.154 58.2175 133.702 58.6278C131.697 58.866 131.672 58.795 131.431 56.7661C131.238 55.1454 131.046 53.5247 130.853 51.9041C130.325 47.4596 129.797 43.0152 129.269 38.5708C128.94 35.8013 128.035 38.8395 127.561 39.9795C127.325 40.5465 126.143 43.6336 126.78 42.5913C127.366 41.634 128.087 40.4328 128.202 39.3219C128.328 38.1078 128.515 37.0306 129.259 37.7538C130.784 39.2375 131.373 42.4681 133.348 43.1674" stroke="#1A1A1A" stroke-linecap="round"/>
<path d="M1139.7 55.0001C1139.45 59.2679 1139.7 64.7338 1139.7 69.6609V110C1139.7 114.969 1133.87 121.109 1129.82 123.358C1120.87 128.335 1118.89 126.72 1110.29 122.417C1104.54 119.544 1099.58 113.95 1092.7 113.95C1082.7 113.95 1073.3 110.042 1063.39 110.042C1056.75 110.042 1050.43 111.345 1043.85 111.345C1036.07 111.345 1028.26 116.663 1020.4 117.786C1013.6 118.758 1005.68 119.289 998.911 117.786C982.08 114.045 964.517 115.608 947.458 116.555C934.414 117.28 923.067 117.561 910.333 120.391C895.091 123.778 882.161 123.928 866.695 123.068L866.577 123.062C859.766 122.683 852.383 122.273 846.432 125.674C844.41 126.829 838.802 131.79 838.11 134.213C837.557 136.149 835.753 140.727 833.478 141.233C825.782 142.943 818.42 141.76 810.682 141.305C806.174 141.04 809.184 130.731 804.893 128.279C791.488 120.619 768.404 124.907 753.078 122.055C743.215 120.22 732.655 122.058 722.755 120.535C715.306 119.389 706.838 117.858 699.308 117.858C693.072 117.858 687.379 116.615 680.999 119.45C674.503 122.337 667.209 119.161 660.592 119.161C652.301 119.161 640.149 117.143 632.875 113.226C630.16 111.765 625.685 110.187 622.526 110.187C620.817 110.187 615.926 111.848 619.848 112.72C623.743 113.585 634.543 116.632 634.829 121.766C635.33 130.791 619.483 129.581 613.552 129.581C601.292 129.581 578.963 128.189 570.421 117.207C561.213 105.367 545.31 108.035 531.922 108.74C505.317 110.14 481.531 123.918 454.488 118.509C441.667 115.945 428.595 112.045 415.988 111.345C408.629 110.936 401.478 112.647 394.495 112.647C387.37 112.647 380.476 111.345 373.653 111.345C364.993 111.345 364.565 112.499 362.291 120.174C360.022 127.832 356.665 130.609 350.857 136.095C337.663 148.556 318.12 146.899 304.614 136.095C300.048 132.442 305.265 125.763 305.265 121.766C305.265 116.318 298.271 112.91 293.542 112.647C286.208 112.24 279.632 110.042 272.049 110.042H253.088C241.959 110.042 228.734 113.225 217.99 108.45C211.556 105.591 203.482 104.714 196.569 103.457C188.088 101.915 178.031 97.8985 169.72 94.9896C162.477 92.4544 139.695 79.004 133.03 85.0029C127.431 90.0417 125.986 98.2601 118.339 100.272C107.922 103.014 94.8575 103.478 85.7013 98.2462C76.9296 93.2338 66.8462 88.5895 56.4647 89.2002C51.9578 89.4653 47.4108 96.0429 43.4385 98.0291C30.6774 104.41 12.7565 96.8497 5.0112 86.5226C0.411904 80.3902 0.500201 74.729 0.500111 67L0.500111 66.9987C0.500065 62.9998 0.500053 61.9996 1.00019 58C1.56291 53.5 2.95906 51.8021 5.95198 49.1084C13.0558 42.715 -0.108725 25.7135 12.8269 22.8389C23.6762 20.428 35.5473 20.1613 46.6951 20.1613C51.9371 20.1613 58.954 18.9662 62.9778 22.7665C67.5218 27.058 73.764 29.2796 79.9119 29.2796C88.2314 29.2796 91.6355 25.3398 91.6355 16.9771C91.6355 11.6385 95.0258 8.32719 97.4973 3.87854C102.893 -5.83425 131.589 9.69506 139.832 13.3587C141.524 14.1105 150.449 18.9626 145.694 22.7665C141.054 26.4785 139.734 30.089 145.767 31.8125C151.586 33.4753 159.77 32.8657 165.885 33.1875C171.702 33.4937 177.351 32.2065 182.819 31.8849C189.675 31.4816 196.364 29.2796 203.082 29.2796H225.154C234.83 29.2796 244.851 30.5823 254.753 30.5823C259.964 30.5823 264.747 31.8849 270.095 31.8849C273.062 31.8849 276.659 31.3319 279.502 32.1744C285.975 34.0921 293.358 33.1875 300.127 33.1875C307.469 33.1875 315.038 34.2142 322.489 34.4901C325.676 34.6082 333.032 37.8043 335.153 40.2796C337.39 42.8891 343.172 42.5824 346.153 44.1874C352.065 47.3705 356.39 46.2137 361.929 46.2137C372.975 46.2137 377.232 29.6804 383.133 23.7797C387.618 19.2946 401.024 24.145 406.219 25.2994C412.551 26.7065 419.168 29.1903 425.758 30.6546C437.029 33.1593 451.009 29.2796 462.883 29.2796C477.223 29.2796 490.966 27.977 505.145 27.977C520.12 27.977 534.009 34.4901 548.856 34.4901C560.42 34.4901 571.572 30.5823 583.375 30.5823C594.09 30.5823 604.581 29.8597 615.289 35.2138C625.554 40.3459 635.92 43.6085 647.855 43.6085C663.147 43.6085 681.403 45.5837 696.052 40.3519C701.636 38.3575 709.72 36.1189 715.591 35.7928C720.91 35.4973 725.926 32.0362 731.223 31.8849C746.498 31.4484 761.344 27.7891 776.235 29.2073C792.2 30.7277 807.702 33.1875 823.709 33.1875C828.706 33.1875 833.78 31.853 839.34 33.8388C844.15 35.5567 850.45 37.0954 855.623 37.0954C861.494 37.0954 866.799 34.307 873.208 34.4901C881.538 34.7281 889.588 37.0954 897.958 37.0954C912.6 37.0954 926.556 42.3059 941.596 42.3059C952.881 42.3059 964.446 44.9111 975.826 44.9111C981.768 44.9111 989.585 44.6308 994.063 49.1084C994.909 49.9551 1005.93 57.5505 1005.93 53.3781C1005.93 52.1922 1002.78 50.4644 1002.17 49.3979C1000.69 46.8115 1000.87 44.558 1000.87 41.6546C1000.87 24.5844 1015.3 31.8849 1025.61 31.8849C1028.73 31.8849 1040.09 33.1497 1042.48 35.1414C1046.11 38.1685 1054.3 36.1606 1058.83 37.1677C1070.76 39.8195 1082.1 41.0032 1094.65 41.0032C1100.93 41.0032 1107.5 41.2659 1113.61 42.3782C1118.33 43.2358 1127.68 43.2856 1131.78 45.5624C1138.73 48.2796 1140.09 48.2561 1139.7 55.0001Z" stroke="#1A1A1A" stroke-linecap="round"/>
</svg>
