<svg width="1140" height="618" viewBox="0 0 1140 618" fill="none" xmlns="http://www.w3.org/2000/svg">
<path d="M364.5 255.67L366.255 255.52L367.002 264.346L371.43 263.966L376.785 254.618L378.86 254.44L373.05 264.596L381.355 274.431L379.201 274.616L371.565 265.571L367.138 265.95L367.953 275.579L366.198 275.729L364.5 255.67Z" fill="#1A1A1A"/>
<path d="M345.505 275.6C344.277 275.6 343.156 275.398 342.142 274.996C341.128 274.566 340.261 273.949 339.54 273.144C338.819 272.338 338.259 271.332 337.859 270.124C337.485 268.916 337.298 267.507 337.298 265.896V264.286C337.298 262.809 337.498 261.494 337.899 260.34C338.299 259.186 338.859 258.219 339.58 257.441C340.301 256.636 341.168 256.032 342.182 255.629C343.196 255.199 344.304 254.985 345.505 254.985C346.572 254.985 347.52 255.132 348.347 255.428C349.201 255.723 349.935 256.126 350.549 256.636C351.19 257.146 351.697 257.736 352.07 258.407C352.471 259.051 352.751 259.736 352.911 260.461H351.069C350.776 259.414 350.175 258.515 349.268 257.763C348.361 256.985 347.106 256.595 345.505 256.595C344.597 256.595 343.757 256.77 342.983 257.119C342.209 257.441 341.528 257.937 340.941 258.608C340.381 259.253 339.94 260.058 339.62 261.024C339.3 261.964 339.14 263.051 339.14 264.286V265.896C339.14 267.238 339.3 268.419 339.62 269.439C339.94 270.433 340.381 271.265 340.941 271.936C341.528 272.607 342.209 273.117 342.983 273.466C343.757 273.815 344.597 273.989 345.505 273.989C347.106 273.989 348.361 273.6 349.268 272.822C350.175 272.016 350.776 270.983 351.069 269.721H352.911C352.751 270.553 352.471 271.332 352.07 272.057C351.697 272.754 351.19 273.372 350.549 273.909C349.935 274.419 349.201 274.835 348.347 275.157C347.52 275.452 346.572 275.6 345.505 275.6Z" fill="#1A1A1A"/>
<path d="M317.682 275.6C316.427 275.6 315.28 275.398 314.239 274.996C313.198 274.566 312.304 273.949 311.557 273.144C310.836 272.338 310.276 271.345 309.875 270.164C309.475 268.983 309.275 267.628 309.275 266.098V264.487C309.275 262.957 309.475 261.601 309.875 260.42C310.276 259.239 310.836 258.246 311.557 257.441C312.304 256.636 313.171 256.032 314.159 255.629C315.173 255.199 316.281 254.985 317.482 254.985C318.683 254.985 319.79 255.199 320.804 255.629C321.819 256.032 322.686 256.649 323.407 257.481C324.127 258.286 324.688 259.293 325.088 260.501C325.488 261.709 325.688 263.105 325.688 264.688V265.695H311.116C311.116 268.379 311.65 270.433 312.718 271.855C313.812 273.278 315.4 273.989 317.482 273.989C319.083 273.989 320.391 273.667 321.405 273.023C322.446 272.352 323.193 271.385 323.647 270.124H325.488C324.981 271.869 324.047 273.224 322.686 274.191C321.352 275.13 319.683 275.6 317.682 275.6ZM317.482 256.595C315.613 256.595 314.092 257.226 312.918 258.488C311.77 259.749 311.17 261.615 311.116 264.084H323.847C323.794 261.561 323.193 259.682 322.045 258.447C320.898 257.213 319.377 256.595 317.482 256.595Z" fill="#1A1A1A"/>
<path d="M290.179 250.556H283.253V248.945H298.866V250.556H291.941V269.077H290.179V250.556Z" fill="#1A1A1A"/>
<path d="M256.805 265.369C255.571 265.144 254.477 264.74 253.524 264.157C252.576 263.547 251.806 262.78 251.214 261.853C250.648 260.931 250.272 259.854 250.088 258.62C249.903 257.386 249.947 256.016 250.218 254.511L250.504 252.926C250.775 251.42 251.213 250.122 251.816 249.032C252.42 247.942 253.16 247.068 254.038 246.409C254.917 245.751 255.89 245.315 256.96 245.101C258.06 244.865 259.227 244.859 260.462 245.084C261.696 245.31 262.787 245.727 263.735 246.336C264.688 246.919 265.447 247.671 266.013 248.593C266.606 249.519 266.994 250.6 267.179 251.834C267.363 253.068 267.32 254.437 267.048 255.943L266.762 257.527C266.491 259.033 266.054 260.331 265.45 261.421C264.847 262.511 264.106 263.386 263.228 264.044C262.35 264.702 261.361 265.149 260.26 265.385C259.191 265.599 258.039 265.594 256.805 265.369ZM257.091 263.784C259.008 264.134 260.674 263.769 262.089 262.69C263.535 261.59 264.489 259.759 264.95 257.197L265.236 255.612C265.698 253.05 265.442 251.012 264.467 249.498C263.497 247.957 262.067 247.014 260.176 246.669C258.259 246.32 256.577 246.695 255.131 247.795C253.716 248.874 252.778 250.694 252.316 253.256L252.03 254.841C251.568 257.403 251.822 259.454 252.792 260.995C253.767 262.51 255.2 263.439 257.091 263.784Z" fill="#1A1A1A"/>
<path d="M216.198 241.134H217.639L217.88 244.556H217.96C218.68 243.348 219.614 242.436 220.762 241.818C221.91 241.201 223.244 240.892 224.765 240.892C225.886 240.892 226.927 241.107 227.888 241.537C228.849 241.939 229.676 242.543 230.37 243.348C231.064 244.154 231.611 245.147 232.011 246.328C232.412 247.509 232.612 248.865 232.612 250.395V252.005C232.612 253.508 232.412 254.85 232.011 256.031C231.611 257.213 231.05 258.206 230.33 259.011C229.636 259.816 228.809 260.434 227.848 260.863C226.887 261.293 225.86 261.507 224.765 261.507C221.749 261.507 219.508 260.353 218.04 258.045H217.96V269.318H216.198V241.134ZM224.365 259.897C226.287 259.897 227.835 259.253 229.009 257.964C230.183 256.676 230.77 254.689 230.77 252.005V250.395C230.77 247.764 230.17 245.791 228.969 244.476C227.794 243.161 226.26 242.503 224.365 242.503C222.443 242.503 220.895 243.147 219.721 244.436C218.547 245.724 217.96 247.71 217.96 250.395V252.005C217.96 254.636 218.547 256.609 219.721 257.924C220.922 259.239 222.47 259.897 224.365 259.897Z" fill="#1A1A1A"/>
<path d="M196.095 223.78L210.88 228.162L210.404 229.784L197.386 225.926L189.941 251.339L188.175 250.816L196.095 223.78Z" fill="#1A1A1A"/>
<path d="M924.952 242.167C924.138 242.112 923.411 241.943 922.772 241.66C922.133 241.376 921.596 241.012 921.16 240.566C920.741 240.121 920.431 239.611 920.229 239.037C920.027 238.463 919.948 237.849 919.992 237.195C920.063 236.158 920.418 235.293 921.059 234.599C921.717 233.891 922.561 233.403 923.59 233.136C922.749 232.759 922.095 232.226 921.628 231.538C921.161 230.849 920.958 230.043 921.021 229.118C921.061 228.527 921.219 227.977 921.494 227.467C921.769 226.957 922.128 226.525 922.569 226.17C923.028 225.801 923.552 225.524 924.142 225.339C924.749 225.156 925.403 225.088 926.106 225.135C926.825 225.184 927.465 225.339 928.025 225.601C928.601 225.864 929.084 226.201 929.473 226.612C929.879 227.024 930.176 227.501 930.364 228.042C930.568 228.584 930.649 229.159 930.608 229.765C930.547 230.674 930.237 231.446 929.681 232.081C929.125 232.7 928.405 233.141 927.521 233.401C928.505 233.804 929.267 234.392 929.809 235.166C930.366 235.94 930.609 236.854 930.538 237.906C930.495 238.544 930.327 239.134 930.033 239.675C929.756 240.217 929.371 240.687 928.878 241.087C928.403 241.471 927.829 241.761 927.158 241.956C926.502 242.152 925.767 242.222 924.952 242.167ZM925.585 232.838C926.083 232.824 926.553 232.751 926.996 232.621C927.455 232.476 927.862 232.271 928.217 232.006C928.572 231.742 928.859 231.417 929.078 231.031C929.296 230.645 929.423 230.197 929.458 229.687C929.487 229.256 929.427 228.844 929.277 228.449C929.128 228.039 928.904 227.671 928.605 227.346C928.306 227.022 927.939 226.757 927.503 226.551C927.068 226.346 926.578 226.224 926.035 226.188C925.492 226.151 924.991 226.205 924.531 226.351C924.072 226.496 923.672 226.709 923.332 226.991C922.992 227.272 922.721 227.606 922.518 227.993C922.316 228.364 922.201 228.765 922.172 229.195C922.138 229.69 922.204 230.143 922.368 230.554C922.549 230.967 922.798 231.328 923.114 231.638C923.43 231.948 923.798 232.205 924.217 232.409C924.653 232.615 925.108 232.758 925.585 232.838ZM925.024 241.115C925.647 241.157 926.213 241.099 926.721 240.941C927.245 240.784 927.694 240.558 928.067 240.263C928.456 239.969 928.761 239.613 928.982 239.195C929.22 238.763 929.355 238.307 929.388 237.829C929.424 237.287 929.354 236.785 929.177 236.325C928.999 235.864 928.738 235.454 928.393 235.094C928.048 234.735 927.627 234.442 927.128 234.216C926.646 233.991 926.111 233.835 925.523 233.747C924.912 233.754 924.345 233.836 923.821 233.993C923.313 234.151 922.863 234.385 922.473 234.695C922.1 234.99 921.794 235.354 921.556 235.786C921.318 236.219 921.181 236.714 921.143 237.272C921.109 237.767 921.174 238.236 921.336 238.679C921.499 239.123 921.745 239.524 922.073 239.882C922.419 240.226 922.842 240.511 923.34 240.737C923.839 240.947 924.401 241.073 925.024 241.115Z" fill="#1A1A1A"/>
<path d="M912.888 226.139L909.016 228.357L909.107 227.114L912.979 224.896L914.081 224.976L912.854 241.715L911.752 241.635L912.888 226.139Z" fill="#1A1A1A"/>
<path d="M897.261 241.212C896.463 241.275 895.726 241.197 895.05 240.977C894.374 240.757 893.781 240.363 893.27 239.794C892.774 239.207 892.36 238.438 892.028 237.486C891.712 236.533 891.499 235.355 891.389 233.953L891.257 232.28C891.146 230.877 891.173 229.681 891.336 228.69C891.514 227.698 891.812 226.881 892.227 226.239C892.642 225.597 893.159 225.116 893.776 224.795C894.408 224.457 895.123 224.256 895.921 224.194C896.736 224.13 897.473 224.208 898.133 224.429C898.809 224.649 899.394 225.052 899.89 225.638C900.401 226.207 900.814 226.968 901.131 227.922C901.463 228.874 901.684 230.051 901.794 231.453L901.926 233.126C902.036 234.529 902.002 235.726 901.823 236.718C901.66 237.709 901.372 238.533 900.958 239.191C900.558 239.831 900.042 240.313 899.409 240.635C898.775 240.957 898.06 241.15 897.261 241.212ZM897.179 240.161C897.801 240.112 898.36 239.964 898.854 239.717C899.348 239.453 899.75 239.053 900.061 238.516C900.387 237.961 900.612 237.254 900.737 236.394C900.863 235.535 900.876 234.475 900.776 233.216L900.645 231.543C900.547 230.3 900.361 229.265 900.087 228.436C899.827 227.591 899.494 226.928 899.087 226.447C898.695 225.964 898.235 225.631 897.707 225.448C897.194 225.264 896.627 225.197 896.004 225.245C895.381 225.294 894.823 225.45 894.33 225.713C893.837 225.977 893.427 226.377 893.1 226.916C892.788 227.454 892.57 228.152 892.445 229.012C892.32 229.871 892.307 230.931 892.406 232.19L892.538 233.863C892.636 235.106 892.815 236.15 893.074 236.995C893.332 237.825 893.657 238.481 894.048 238.963C894.456 239.444 894.923 239.776 895.452 239.959C895.98 240.142 896.556 240.209 897.179 240.161Z" fill="#1A1A1A"/>
<path d="M876.501 246.67L881.116 239.21C881.507 238.574 881.842 238.009 882.119 237.516C882.392 237.007 882.6 236.531 882.74 236.086C882.897 235.638 882.993 235.212 883.028 234.81C883.06 234.391 883.024 233.964 882.92 233.529C882.808 233.062 882.611 232.649 882.327 232.29C882.044 231.93 881.694 231.635 881.277 231.406C880.86 231.177 880.389 231.034 879.866 230.978C879.338 230.907 878.786 230.94 878.21 231.077C877.634 231.215 877.126 231.434 876.688 231.736C876.262 232.018 875.914 232.356 875.646 232.749C875.377 233.141 875.19 233.564 875.084 234.016C874.994 234.465 875.004 234.923 875.116 235.389L873.994 235.657C873.849 235.05 873.829 234.447 873.933 233.847C874.052 233.244 874.281 232.688 874.621 232.179C874.976 231.668 875.429 231.223 875.981 230.844C876.549 230.463 877.206 230.183 877.954 230.004C878.702 229.826 879.407 229.781 880.07 229.87C880.749 229.954 881.355 230.147 881.887 230.447C882.436 230.744 882.892 231.136 883.255 231.625C883.634 232.11 883.897 232.655 884.041 233.262C884.164 233.775 884.201 234.275 884.153 234.763C884.117 235.232 884.012 235.725 883.84 236.243C883.663 236.745 883.421 237.28 883.111 237.846C882.818 238.409 882.469 239.018 882.066 239.673L877.927 246.33L886.782 244.219L887.027 245.245L876.746 247.696L876.501 246.67Z" fill="#1A1A1A"/>
<path d="M838.896 559.906L839.698 560.592L836.179 564.809L841.677 569.512L845.196 565.295L845.998 565.98L838.178 575.351L837.377 574.666L841.052 570.262L835.553 565.559L831.878 569.963L831.077 569.278L838.896 559.906Z" fill="#1A1A1A"/>
<path d="M825.626 550.183L826.535 550.715L821.021 560.235L821.062 560.259L832.355 554.126L833.676 554.9L827.55 565.477L826.642 564.945L832.155 555.425L832.114 555.401L820.821 561.535L819.5 560.76L825.626 550.183Z" fill="#1A1A1A"/>
<path d="M811.975 541.404L813.315 542.039L813.856 551.144L813.899 551.164L821.269 545.807L822.565 546.422L817.345 557.478L816.394 557.027L820.988 547.298L820.945 547.277L813.83 552.43L812.879 551.98L812.343 543.202L812.3 543.181L807.705 552.911L806.754 552.46L811.975 541.404Z" fill="#1A1A1A"/>
<path d="M801.35 535.778L802.301 536.229L800.319 540.431L803.042 541.72C804.354 542.341 805.18 543.111 805.522 544.03C805.885 544.942 805.817 545.928 805.316 546.99C804.822 548.037 804.105 548.716 803.164 549.028C802.223 549.341 801.105 549.19 799.808 548.576L796.133 546.836L801.35 535.778ZM799.901 541.315L797.501 546.402L800.117 547.64C801.183 548.145 802.048 548.293 802.711 548.083C803.395 547.866 803.932 547.345 804.321 546.519C804.704 545.708 804.762 544.969 804.495 544.302C804.228 543.634 803.569 543.051 802.517 542.553L799.901 541.315Z" fill="#1A1A1A"/>
<path d="M787.812 548.078C786.395 547.838 785.375 547.335 784.751 546.568C784.145 545.789 783.881 544.869 783.958 543.808L785.044 543.992C785.032 544.783 785.243 545.455 785.679 546.007C786.13 546.563 786.899 546.933 787.985 547.117C789.071 547.301 789.906 547.211 790.491 546.848C791.094 546.471 791.459 545.93 791.586 545.225C791.713 544.52 791.557 543.899 791.118 543.363C790.696 542.828 789.941 542.469 788.855 542.285L787.557 542.065L787.73 541.104L789.028 541.324C789.973 541.484 790.711 541.394 791.242 541.055C791.792 540.702 792.128 540.19 792.249 539.516C792.37 538.843 792.234 538.251 791.84 537.738C791.461 537.228 790.8 536.893 789.855 536.733C788.911 536.572 788.156 536.667 787.59 537.017C787.04 537.37 786.641 537.872 786.394 538.524L785.308 538.34C785.604 537.416 786.146 536.706 786.932 536.212C787.721 535.702 788.754 535.555 790.028 535.771C791.303 535.987 792.215 536.464 792.764 537.201C793.315 537.922 793.505 538.755 793.335 539.701C793.231 540.277 792.98 540.772 792.582 541.183C792.199 541.597 791.7 541.892 791.084 542.069L791.075 542.117C791.75 542.512 792.215 542.995 792.469 543.567C792.722 544.138 792.79 544.752 792.672 545.409C792.496 546.387 791.996 547.136 791.172 547.657C790.348 548.178 789.228 548.318 787.812 548.078Z" fill="#1A1A1A"/>
<path d="M772.649 543.174L772.54 529.954L773.605 530.382L773.641 542.123L773.685 542.141L781.505 533.555L782.526 533.966L770.132 547.434L769.111 547.023L772.649 543.174Z" fill="#1A1A1A"/>
<path d="M758.979 520.951L760.024 521.292L757.572 528.696L760.528 529.661L768.392 524.025L769.665 524.441L761.284 530.423L764.738 540.836L763.42 540.405L760.205 530.636L757.249 529.671L754.643 537.539L753.597 537.197L758.979 520.951Z" fill="#1A1A1A"/>
<path d="M733.875 515.493L734.868 515.84L731.203 526.215L731.248 526.23L741.236 518.066L742.681 518.571L738.608 530.098L737.614 529.751L741.28 519.377L741.235 519.361L731.247 527.525L729.802 527.02L733.875 515.493ZM738.799 515.556C737.896 515.241 737.276 514.722 736.939 514C736.608 513.262 736.619 512.394 736.972 511.395L737.92 511.726C737.643 512.51 737.61 513.155 737.82 513.66C738.036 514.15 738.46 514.505 739.092 514.726C739.725 514.948 740.279 514.934 740.755 514.686C741.237 514.423 741.617 513.9 741.894 513.116L742.842 513.447C742.489 514.446 741.951 515.13 741.229 515.499C740.512 515.853 739.702 515.872 738.799 515.556Z" fill="#1A1A1A"/>
<path d="M718.886 509.281L719.879 509.629L716.214 520.003L716.259 520.019L726.246 511.855L727.691 512.36L723.619 523.887L722.625 523.54L726.291 513.165L726.245 513.149L716.258 521.314L714.813 520.808L718.886 509.281Z" fill="#1A1A1A"/>
<path d="M698.631 518.028L698.97 518.147C699.467 518.32 699.913 518.278 700.309 518.019C700.705 517.76 701.09 517.317 701.464 516.688C701.839 516.059 702.204 515.263 702.562 514.3C702.934 513.342 703.34 512.241 703.78 510.996L704.798 508.114L712.023 510.64L707.95 522.167L706.957 521.82L710.704 511.215L705.466 509.383L704.773 511.343C704.284 512.726 703.825 513.956 703.394 515.031C702.978 516.112 702.54 516.994 702.078 517.679C701.637 518.354 701.135 518.817 700.572 519.069C700.024 519.327 699.382 519.327 698.644 519.069L698.306 518.951L698.631 518.028Z" fill="#1A1A1A"/>
<path d="M689.32 510.103C688.097 509.738 687.268 509.175 686.832 508.416C686.402 507.641 686.34 506.747 686.649 505.733C686.977 504.658 687.589 503.905 688.487 503.476C689.4 503.051 690.635 503.072 692.194 503.537L695.426 504.503L695.747 503.45C696.074 502.375 696.062 501.512 695.709 500.862C695.377 500.202 694.668 499.71 693.583 499.385C692.651 499.107 691.884 499.082 691.281 499.31C690.678 499.538 690.26 499.923 690.028 500.466L688.974 500.151C689.118 499.786 689.327 499.457 689.599 499.165C689.892 498.861 690.249 498.619 690.671 498.439C691.092 498.258 691.571 498.163 692.108 498.154C692.649 498.128 693.241 498.211 693.882 498.403C695.273 498.819 696.203 499.462 696.671 500.333C697.154 501.209 697.194 502.31 696.791 503.635L694.405 511.469L693.58 511.223L694.096 508.953L694.05 508.939C693.425 509.569 692.689 509.987 691.843 510.193C691.016 510.389 690.175 510.359 689.32 510.103ZM689.619 509.121C690.23 509.303 690.808 509.374 691.354 509.333C691.92 509.281 692.434 509.128 692.894 508.875C693.355 508.621 693.753 508.272 694.088 507.828C694.439 507.389 694.707 506.865 694.892 506.257L695.141 505.438L692.024 504.507C690.755 504.128 689.775 504.09 689.082 504.394C688.405 504.702 687.946 505.253 687.703 506.048C687.49 506.75 687.533 507.375 687.832 507.924C688.152 508.462 688.748 508.861 689.619 509.121Z" fill="#1A1A1A"/>
<path d="M677.801 493.9L673.895 492.534L674.221 491.612L683.026 494.691L682.7 495.613L678.794 494.247L675.047 504.852L674.054 504.505L677.801 493.9Z" fill="#1A1A1A"/>
<path d="M658.916 484.079L659.958 484.238L658.18 495.083L658.227 495.09L666.634 485.258L668.149 485.49L666.174 497.539L665.133 497.38L666.91 486.536L666.863 486.528L658.456 496.36L656.941 496.129L658.916 484.079Z" fill="#1A1A1A"/>
<path d="M643.995 470.245L648.911 471.294C650.674 471.671 651.883 472.337 652.536 473.292C653.209 474.236 653.397 475.375 653.099 476.71C652.901 477.601 652.52 478.319 651.957 478.865C651.398 479.395 650.685 479.734 649.818 479.882L649.807 479.93C650.699 480.403 651.317 481.043 651.66 481.85C652.004 482.656 652.059 483.584 651.825 484.633C651.503 486.08 650.832 487.111 649.812 487.726C648.808 488.344 647.424 488.465 645.66 488.088L640.276 486.939L643.995 470.245ZM644.849 471.476L643.377 478.082L647.099 478.877C648.55 479.187 649.669 479.118 650.456 478.669C651.246 478.205 651.752 477.472 651.975 476.47C652.202 475.453 652.053 474.58 651.529 473.852C651.008 473.108 650.022 472.581 648.571 472.271L644.849 471.476ZM643.154 479.084L641.576 486.167L645.766 487.062C647.218 487.372 648.338 487.295 649.128 486.83C649.922 486.35 650.446 485.538 650.701 484.393C650.953 483.264 650.818 482.328 650.297 481.583C649.78 480.823 648.795 480.288 647.344 479.979L643.154 479.084Z" fill="#1A1A1A"/>
<path d="M98.091 0.5C98.091 10.2618 95.4593 8.12666 98.2999 18.0498C101.004 27.4969 104.27 32.7335 110.699 40.754C113.375 44.0933 117.113 46.0505 120.364 48.6469C124 51.5498 129.664 51.5121 133.154 54.2986C137.733 57.9549 155.747 60.9247 161.662 60.9247C181.849 60.9247 201.412 66.1866 222.29 66.1866C228.178 66.1866 244.371 62.3817 247.771 56.4423C249.898 52.7278 253.043 44.3615 253.043 48.6469C253.043 52.5352 250.586 59.4252 249.431 63.4582C244.285 81.4344 223.15 92.8944 234.103 113.544C244.982 134.053 264.416 131.084 284.675 131.084C294.989 131.084 301.202 122.988 310.059 120.462C317.026 118.476 329.723 115.811 335.638 123.191C338.555 126.829 347.237 125.822 351.454 125.822C358.026 125.822 359.209 122.232 364.732 120.657C375.008 117.727 384.148 119.918 394.509 122.216C404.317 124.392 410.807 127.576 421.748 127.576C432.816 127.576 442.119 124.1 453.38 129.719C464.308 135.173 472.16 132.838 483.255 132.838C494.535 132.838 505.199 132.166 516.644 132.838C526.037 133.389 535.139 136.346 545.64 136.346C557.15 136.346 567.566 134.592 579.03 134.592C591.296 134.592 601.98 138.1 614.177 138.1C626.276 138.1 638.722 139.854 651.081 139.854C662.547 139.854 671.903 140.229 681.834 134.981C690.572 130.364 692.378 116.927 692.378 108.282C692.378 97.3585 695.295 87.461 695.893 76.7105C696.864 59.257 702.922 80.8688 702.922 87.2343C702.922 92.55 701.165 95.9504 701.165 101.266C701.165 106.459 702.922 111.812 702.922 116.175C702.922 124.64 700.497 140.54 710.733 143.459C722.72 146.877 738.284 145.115 751.249 145.115C764.933 145.115 776.169 145.17 788.153 139.854C798.328 135.34 802.842 124.068 815.392 124.068C823.472 124.068 822.634 126.394 820.566 133.617C819.13 138.636 817.149 140.766 817.149 146.869C817.149 154.526 821.269 150.007 825.545 154.275C830.408 159.128 819.144 159.337 823.3 162.655C831.398 169.121 843.851 165.378 853.175 170.548C860.984 174.878 876.909 183.242 885.686 183.703C891.225 183.994 894.695 180.195 900.623 180.195C903.094 180.195 919.38 180.666 918.684 181.559C915.413 185.757 900.731 198.873 905.407 202.607C908.597 205.154 921.56 202.997 925.323 202.997C931.767 202.997 939.556 201.753 945.435 204.361C949.892 206.338 959.886 206.234 964.766 206.505C968.952 206.737 979.511 208.834 983.218 210.89C993.456 216.567 1007.54 217.107 1013.97 228.332C1016.01 231.895 1024.86 236.885 1022.37 241.584C1019.58 246.846 1005.61 245.092 1000.89 245.092C993.359 245.092 988.632 242.19 981.5 240C978.75 239.156 977.621 232.879 975 234C974.129 234.372 969.812 238.098 972.674 239.051C977.993 240.82 978.937 245.604 984.975 246.943C990.188 248.1 996.297 250.354 1001.67 250.354C1011.68 250.354 1027.62 259.5 1035.45 265.75C1038.58 268.246 1045.82 269.074 1049.9 271.402C1054.36 273.945 1058.58 276.257 1063.18 278.807C1076.91 286.423 1093 294.203 1108.87 294.203C1114.05 294.203 1119.14 295.957 1124.68 295.957C1129.6 295.957 1136.27 287.936 1139.5 288M1139.5 334.5C1134.15 334.5 1124.6 332.791 1120.29 332.791C1113.59 332.791 1107.08 329.283 1100.08 329.283C1093.31 329.283 1086.92 327.529 1079.97 327.529C1068.19 327.529 1056.8 331.037 1045.6 331.037C1034.71 331.037 1022.41 327.478 1012.21 322.657C991.198 312.721 965.493 292.906 941.92 303.363C935.623 306.157 925.968 305.089 919.075 304.727C912.33 304.373 905.96 297.711 898.768 297.711C891.474 297.711 885.226 299.465 878.656 299.465C872.499 299.465 869.614 294.405 863.816 297.711C859.259 300.311 861.229 307.714 857.178 311.353C854.117 314.103 844.869 314.462 840.873 315.348C839.126 315.736 837.307 320.558 835.113 318.369C833.336 316.595 835.191 311.683 836.09 309.989C837.98 306.425 843.025 300.203 846.145 297.711C850.29 294.402 849.295 286.866 847.024 282.9C844.674 278.795 832.125 278.552 828.084 278.418C817.46 278.064 807.198 277.994 796.94 280.269C791.141 281.555 786.302 286.551 780.245 287.187C774.217 287.821 764.756 289.564 760.036 293.229C755.241 296.951 750.592 302.214 745.098 305.117C737.033 309.379 726.028 318.257 716.981 318.759C707.33 319.294 689.879 325.824 683.592 333.668C676.419 342.616 677.212 355.652 689.645 359.198C706.271 363.939 716.634 361.293 733.188 355.982C738.099 354.406 747.631 346.462 751.249 352.962C753.813 357.567 754.333 361.92 759.157 364.752C766.455 369.037 783.859 377.614 791.668 371.378C796.975 367.141 793.004 355.725 797.428 361.244C798.818 362.979 798.587 375.325 796.94 376.64C785.696 385.618 798.05 396.106 804.067 403.827C808.38 409.362 808.363 409.047 808.363 416.982C808.363 422.836 809.62 426.948 803.969 429.454C794.393 433.702 786.679 456.636 797.819 462.195C805.617 466.087 804.959 470.813 803.091 478.273C800.85 487.217 798.314 486.77 806.215 491.623C811.351 494.778 819.331 492.984 825.057 494.254C829.382 495.213 833.285 497.314 837.847 497.664C840.758 497.888 842.161 501.452 844.876 502.536C851.733 505.274 850.43 512.576 853.077 518.614C856.263 525.882 859.019 531.452 865.964 536.252C873.451 541.425 894.472 546.2 894.472 556.422C894.472 560.809 892.878 567.954 896.62 570.941C899.685 573.389 910.651 571.331 914.682 571.331C920.5 571.331 929.683 573.252 934.891 570.941C936.731 570.125 941.075 568.65 941.92 566.751C943.455 563.306 945.551 554.838 949.828 553.889C957.807 552.119 967.53 553.791 975.7 553.791C986.807 553.791 994.504 551.82 1004.99 547.75C1008.73 546.299 1015.89 539.646 1013.09 543.365C1006.87 551.65 999.464 554.509 992.102 560.807C988.402 563.973 942.975 580.02 961.642 585.753C977.311 590.565 990.06 583.365 1005.18 581.855C1014.42 580.934 1020.69 574.11 1029.69 572.988C1040.13 571.685 1046.59 570.477 1056.15 574.839C1078.89 585.218 1107.45 592.958 1132.06 587.5C1134.24 587.016 1135.06 585.751 1136.59 584.973C1145.57 580.429 1134.61 590.536 1132.06 591.419C1126.24 593.426 1116.04 594.133 1109.75 594.133C1102.63 594.133 1095.99 595.887 1089.15 595.887C1080.21 595.887 1069.25 594.052 1060.54 595.984C1052.44 597.781 1048.33 595.853 1041.01 594.23C1033.93 592.66 1026.27 601.489 1019.24 603.292C1014.86 604.419 1010.45 605.341 1006.06 606.313C1001.63 607.297 1001.19 612.462 997.277 613.329C991.481 614.614 986.699 615.181 980.582 615.181C967.717 615.181 956.469 606.99 943.678 613.037C932.049 618.535 917.639 616.935 905.016 616.935C898.11 616.935 889.195 618.436 882.561 616.545C872.986 613.814 867.293 607.958 857.471 609.919C850.614 611.287 842.724 615.371 836.871 609.529C832.238 604.905 829.303 598.931 824.179 594.912C810.999 584.577 803.35 580.26 788.251 588.871C776.29 595.693 755.351 588.547 744.22 583.609C738.354 581.007 738.352 575.065 733.676 571.331C727.806 566.644 717.768 566.069 710.342 566.069C693.933 566.069 695.109 574.781 695.893 588.871C696.192 594.25 701.165 598.194 701.165 604.657C701.165 611.985 692.417 609.919 687.204 609.919C680.775 609.919 669.358 608.775 664.261 604.657C659.91 601.141 654.161 600.104 648.64 599.492C644.159 598.995 644.181 602.903 640.537 602.903C629.86 602.903 629.419 586.642 624.233 581.465C616.835 574.082 600.997 583.27 600.997 567.823C600.997 550.971 579.213 546.611 567.607 541.124C560.57 537.797 559.788 535.27 554.427 530.99C551.025 528.273 550.461 520.113 546.91 516.568C543.132 512.798 538.156 510.365 534.218 506.434C527.651 499.88 522.131 492.617 515.668 486.166C503.407 473.929 488.527 466.553 488.527 447.676C488.527 434.007 490.56 421.547 485.012 409.089C479.687 397.13 458.997 390.672 447.132 390.672C436.002 390.672 424.872 390.672 413.742 390.672C404.194 390.672 402.418 394.504 394.021 397.298C380.226 401.888 361.126 391.59 349.697 401.196C336.552 412.244 315.718 413.55 300.101 418.346C289.671 421.549 266.633 425.643 256.558 420.879C249.98 417.769 247.212 412.635 240.742 409.576C232.383 405.624 223.379 406.458 214.382 406.458C205.903 406.458 198.076 409.966 189.779 409.966C184.533 409.966 177.94 411.32 173.084 413.474C161.858 418.453 143.092 438.956 129.053 430.039C111.827 419.098 84.3388 413.982 84.3388 389.795C84.3388 377.64 82.5847 332.269 67.1559 331.037C55.8058 330.131 45.2375 328.589 35.1333 322.657C30.6283 320.012 29.3415 311.519 28.1039 306.579C25.691 296.946 8.007 287.717 0.5 287.717" stroke="#1A1A1A" stroke-linecap="square"/>
</svg>
