<svg width="144" height="144" viewBox="0 0 144 144" fill="none" xmlns="http://www.w3.org/2000/svg">
<path d="M69.1125 38.8H74.8725L99.8325 106H95.0325L87.5445 85.456H56.3445L48.7605 106H44.1525L69.1125 38.8ZM86.0085 81.424L72.0885 43.216H71.8965L57.7845 81.424H86.0085Z" fill="#1A1A1A"/>
<path d="M47.0836 6.2H48.1876V21.992H56.3236V23H47.0836V6.2ZM59.5792 11H60.6352V23H59.5792V11ZM60.1072 8.624C59.8512 8.624 59.6432 8.544 59.4832 8.384C59.3232 8.224 59.2432 8.016 59.2432 7.76C59.2432 7.504 59.3232 7.296 59.4832 7.136C59.6432 6.976 59.8512 6.896 60.1072 6.896C60.3632 6.896 60.5712 6.976 60.7312 7.136C60.8912 7.296 60.9712 7.504 60.9712 7.76C60.9712 8.016 60.8912 8.224 60.7312 8.384C60.5712 8.544 60.3632 8.624 60.1072 8.624ZM69.3918 22.664C68.7358 22.664 68.1198 22.544 67.5438 22.304C66.9838 22.048 66.4958 21.688 66.0798 21.224C65.6638 20.76 65.3358 20.192 65.0958 19.52C64.8558 18.848 64.7358 18.088 64.7358 17.24V16.28C64.7358 15.448 64.8558 14.696 65.0958 14.024C65.3358 13.352 65.6638 12.784 66.0798 12.32C66.5118 11.84 67.0158 11.48 67.5918 11.24C68.1678 10.984 68.7838 10.856 69.4398 10.856C70.3518 10.856 71.1518 11.04 71.8398 11.408C72.5278 11.776 73.0878 12.32 73.5198 13.04H73.5678L73.7118 11H74.5758V23.12C74.5758 24.624 74.1678 25.8 73.3518 26.648C72.5518 27.512 71.4238 27.944 69.9678 27.944C68.5598 27.944 67.5038 27.624 66.7998 26.984C66.1118 26.36 65.7038 25.512 65.5758 24.44H66.6798C66.8078 25.256 67.1278 25.88 67.6398 26.312C68.1518 26.76 68.9278 26.984 69.9678 26.984C72.3358 26.984 73.5198 25.656 73.5198 23V20.6H73.4718C72.5918 21.976 71.2318 22.664 69.3918 22.664ZM69.6798 21.704C70.8318 21.704 71.7598 21.328 72.4638 20.576C73.1678 19.824 73.5198 18.712 73.5198 17.24V16.28C73.5198 14.824 73.1598 13.72 72.4398 12.968C71.7358 12.2 70.8158 11.816 69.6798 11.816C68.5278 11.816 67.5998 12.192 66.8958 12.944C66.1918 13.696 65.8398 14.808 65.8398 16.28V17.24C65.8398 18.696 66.1918 19.808 66.8958 20.576C67.6158 21.328 68.5438 21.704 69.6798 21.704ZM79.1433 6.2H80.1993V13.04H80.2473C80.6313 12.352 81.1513 11.816 81.8073 11.432C82.4793 11.048 83.2233 10.856 84.0393 10.856C85.4473 10.856 86.5433 11.264 87.3273 12.08C88.1113 12.88 88.5033 14.08 88.5033 15.68V23H87.4473V15.68C87.4473 14.368 87.1433 13.4 86.5353 12.776C85.9433 12.136 85.0793 11.816 83.9433 11.816C83.3833 11.816 82.8713 11.912 82.4073 12.104C81.9593 12.28 81.5673 12.536 81.2313 12.872C80.9113 13.208 80.6553 13.616 80.4633 14.096C80.2873 14.576 80.1993 15.104 80.1993 15.68V23H79.1433V6.2ZM96.548 23C95.828 23 95.276 22.888 94.892 22.664C94.508 22.424 94.22 22.152 94.028 21.848C93.852 21.528 93.748 21.208 93.716 20.888C93.684 20.568 93.668 20.32 93.668 20.144V11.96H91.508V11H93.668V7.64H94.724V11H97.988V11.96H94.724V20.024C94.724 20.744 94.876 21.264 95.18 21.584C95.484 21.888 95.972 22.04 96.644 22.04H98.228V23H96.548Z" fill="#1A1A1A"/>
<path d="M20.495 29.9506C20.5624 29.782 21.3243 29.6876 21.5025 29.6318C21.8453 29.5244 22.072 29.2807 22.3914 29.1307C23.0954 28.7999 22.2852 29.1863 22.0681 29.3129C21.6923 29.5321 21.3236 29.5762 20.9314 29.7279C20.7118 29.8129 20.3264 29.8113 20.1503 29.9506C19.7653 30.2552 20.2328 30.9243 20.3065 31.2818C20.4642 32.0474 20.799 32.839 21.1254 33.5545C21.1621 33.635 21.5163 34.1458 21.4432 33.9594C21.2754 33.5315 21.205 33.055 21.0823 32.613C20.8886 31.9154 20.6892 31.4087 20.3496 30.7706C20.3058 30.6883 20.0374 30.2114 20.1072 30.2442C20.4092 30.3861 20.6723 30.56 21.0014 30.6795C21.7632 30.956 22.7533 30.8655 23.555 30.9731C24.9277 31.1573 26.3923 31.2031 27.7786 31.2261C30.9585 31.279 34.14 31.3173 37.3247 31.3173C41.102 31.3173 44.8873 31.2261 48.6702 31.2261C54.2464 31.2261 59.8162 31.3173 65.3922 31.3173C73.6043 31.3173 81.8184 31.4995 90.0333 31.4995C95.5831 31.4995 101.128 31.4084 106.68 31.4084C111.366 31.4084 116.058 31.2261 120.74 31.2261C121.322 31.2261 121.739 31.1342 122.292 30.9731C122.438 30.9304 124.024 30.4743 124 30.4517C123.889 30.3477 123.596 30.4109 123.456 30.4062C122.986 30.3904 122.524 30.3151 122.044 30.3151C121.476 30.3151 120.912 30.0417 120.32 30.0417C119.934 30.0417 119.576 29.8761 119.189 29.8595C118.549 29.8322 119.522 29.8454 119.695 29.8595C120.488 29.9243 121.337 29.9466 122.12 30.062C122.554 30.126 123.219 30.0166 122.949 30.5378C122.547 31.3153 122.096 31.8604 121.543 32.5421C121.239 32.9171 120.921 33.2973 120.714 33.7265C120.405 34.3633 120.808 33.644 120.956 33.4127" stroke="#1A1A1A" stroke-linecap="round"/>
</svg>
