<svg width="144" height="144" viewBox="0 0 144 144" fill="none" xmlns="http://www.w3.org/2000/svg">
<path d="M66.7125 38.8H77.2725L101.753 106H91.9605L85.6245 87.568H57.8805L51.4485 106H42.2325L66.7125 38.8ZM82.7445 79.312L71.9925 47.92H71.8005L60.7605 79.312H82.7445Z" fill="#1A1A1A"/>
<path d="M30.5255 6.2H33.8855L38.3735 16.088H38.4215L42.9095 6.2H46.1255V23H43.8695V8.84H43.8215L39.5255 18.32H37.1255L32.8295 8.84H32.7815V23H30.5255V6.2ZM54.6352 23.192C53.7872 23.192 53.0192 23.064 52.3312 22.808C51.6592 22.536 51.0832 22.152 50.6032 21.656C50.1232 21.144 49.7552 20.528 49.4992 19.808C49.2432 19.088 49.1152 18.264 49.1152 17.336V16.664C49.1152 15.736 49.2432 14.912 49.4992 14.192C49.7552 13.456 50.1152 12.84 50.5792 12.344C51.0592 11.848 51.6272 11.472 52.2832 11.216C52.9552 10.944 53.6992 10.808 54.5152 10.808C55.3312 10.808 56.0672 10.944 56.7232 11.216C57.3952 11.472 57.9632 11.856 58.4272 12.368C58.9072 12.88 59.2752 13.504 59.5312 14.24C59.7872 14.976 59.9152 15.824 59.9152 16.784V17.648H51.3712C51.4032 18.784 51.6912 19.664 52.2352 20.288C52.7952 20.912 53.5552 21.224 54.5152 21.224C55.2832 21.224 55.9152 21.08 56.4112 20.792C56.9072 20.504 57.2832 20.04 57.5392 19.4H59.7952C59.5072 20.648 58.9152 21.592 58.0192 22.232C57.1392 22.872 56.0112 23.192 54.6352 23.192ZM54.5152 12.776C53.6032 12.776 52.8832 13.04 52.3552 13.568C51.8272 14.096 51.5072 14.864 51.3952 15.872H57.6592C57.4672 13.808 56.4192 12.776 54.5152 12.776ZM66.9241 23.192C65.4841 23.192 64.3161 22.704 63.4201 21.728C62.5241 20.752 62.0761 19.288 62.0761 17.336V16.664C62.0761 15.704 62.1961 14.864 62.4361 14.144C62.6761 13.408 63.0121 12.792 63.4441 12.296C63.8761 11.8 64.3881 11.432 64.9801 11.192C65.5721 10.936 66.2201 10.808 66.9241 10.808C68.4761 10.808 69.7241 11.352 70.6681 12.44H70.7161V6.2H72.8761V23H71.1961C71.1801 22.92 71.1561 22.8 71.1241 22.64C71.1081 22.48 71.0841 22.32 71.0521 22.16C71.0361 21.984 71.0201 21.824 71.0041 21.68C70.9881 21.52 70.9721 21.4 70.9561 21.32H70.9081C69.9961 22.568 68.6681 23.192 66.9241 23.192ZM67.5241 21.224C68.5001 21.224 69.2761 20.912 69.8521 20.288C70.4281 19.648 70.7161 18.664 70.7161 17.336V16.664C70.7161 15.368 70.4201 14.4 69.8281 13.76C69.2521 13.104 68.4841 12.776 67.5241 12.776C66.5481 12.776 65.7721 13.096 65.1961 13.736C64.6201 14.36 64.3321 15.336 64.3321 16.664V17.336C64.3321 18.632 64.6201 19.608 65.1961 20.264C65.7881 20.904 66.5641 21.224 67.5241 21.224ZM76.6756 11H78.8356V23H76.6756V11ZM77.7556 9.2C77.3396 9.2 76.9956 9.064 76.7236 8.792C76.4516 8.52 76.3156 8.176 76.3156 7.76C76.3156 7.344 76.4516 7 76.7236 6.728C76.9956 6.456 77.3396 6.32 77.7556 6.32C78.1716 6.32 78.5156 6.456 78.7876 6.728C79.0596 7 79.1956 7.344 79.1956 7.76C79.1956 8.176 79.0596 8.52 78.7876 8.792C78.5156 9.064 78.1716 9.2 77.7556 9.2ZM86.8722 23.192C85.5602 23.192 84.5042 22.768 83.7042 21.92C82.9042 21.072 82.5042 19.832 82.5042 18.2V11H84.6642V18.08C84.6642 19.152 84.8962 19.944 85.3602 20.456C85.8402 20.968 86.4882 21.224 87.3042 21.224C88.2482 21.224 89.0002 20.944 89.5602 20.384C90.1362 19.808 90.4242 19.04 90.4242 18.08V11H92.5842V23H90.9042L90.6882 21.44H90.6402C90.1602 22.048 89.6162 22.496 89.0082 22.784C88.4002 23.056 87.6882 23.192 86.8722 23.192ZM96.1945 11H97.8745L98.1145 12.68H98.1625C99.0745 11.432 100.259 10.808 101.715 10.808C102.531 10.808 103.259 10.992 103.899 11.36C104.539 11.728 105.043 12.272 105.411 12.992C105.827 12.304 106.379 11.768 107.067 11.384C107.755 11 108.531 10.808 109.395 10.808C110.019 10.808 110.595 10.92 111.123 11.144C111.651 11.368 112.107 11.696 112.491 12.128C112.875 12.56 113.171 13.096 113.379 13.736C113.603 14.36 113.715 15.088 113.715 15.92V23H111.555V15.92C111.555 14.848 111.315 14.056 110.835 13.544C110.371 13.032 109.731 12.776 108.915 12.776C108.499 12.776 108.115 12.856 107.763 13.016C107.427 13.16 107.123 13.368 106.851 13.64C106.595 13.912 106.395 14.24 106.251 14.624C106.107 15.008 106.035 15.44 106.035 15.92V23H103.875V15.92C103.875 14.848 103.635 14.056 103.155 13.544C102.691 13.032 102.051 12.776 101.235 12.776C100.419 12.776 99.7305 13.056 99.1705 13.616C98.6265 14.176 98.3545 14.944 98.3545 15.92V23H96.1945V11Z" fill="#1A1A1A"/>
<path d="M20.495 29.9506C20.5624 29.782 21.3243 29.6876 21.5025 29.6318C21.8453 29.5244 22.072 29.2807 22.3914 29.1307C23.0954 28.7999 22.2852 29.1863 22.0681 29.3129C21.6923 29.5321 21.3236 29.5762 20.9314 29.7279C20.7118 29.8129 20.3264 29.8113 20.1503 29.9506C19.7653 30.2552 20.2328 30.9243 20.3065 31.2818C20.4642 32.0474 20.799 32.839 21.1254 33.5545C21.1621 33.635 21.5163 34.1458 21.4432 33.9594C21.2754 33.5315 21.205 33.055 21.0823 32.613C20.8886 31.9154 20.6892 31.4087 20.3496 30.7706C20.3058 30.6883 20.0374 30.2114 20.1072 30.2442C20.4092 30.3861 20.6723 30.56 21.0014 30.6795C21.7632 30.956 22.7533 30.8655 23.555 30.9731C24.9277 31.1573 26.3923 31.2031 27.7786 31.2261C30.9585 31.279 34.14 31.3173 37.3247 31.3173C41.102 31.3173 44.8873 31.2261 48.6702 31.2261C54.2464 31.2261 59.8162 31.3173 65.3922 31.3173C73.6043 31.3173 81.8184 31.4995 90.0333 31.4995C95.5831 31.4995 101.128 31.4084 106.68 31.4084C111.366 31.4084 116.058 31.2261 120.74 31.2261C121.322 31.2261 121.739 31.1342 122.292 30.9731C122.438 30.9304 124.024 30.4743 124 30.4517C123.889 30.3477 123.596 30.4109 123.456 30.4062C122.986 30.3904 122.524 30.3151 122.044 30.3151C121.476 30.3151 120.912 30.0417 120.32 30.0417C119.934 30.0417 119.576 29.8761 119.189 29.8595C118.549 29.8322 119.522 29.8454 119.695 29.8595C120.488 29.9243 121.337 29.9466 122.12 30.062C122.554 30.126 123.219 30.0166 122.949 30.5378C122.547 31.3153 122.096 31.8604 121.543 32.5421C121.239 32.9171 120.921 33.2973 120.714 33.7265C120.405 34.3633 120.808 33.644 120.956 33.4127" stroke="#1A1A1A" stroke-linecap="round"/>
</svg>
