<svg width="338" height="245" viewBox="0 0 338 245" fill="none" xmlns="http://www.w3.org/2000/svg">
<path d="M238.171 154.943C238.171 151.645 235.855 146.383 241.32 146.383C246.234 146.383 248.594 144.218 252.792 143.229C256.314 142.399 259.639 142.773 263.164 142.303C267.286 141.752 267.977 139.081 269.112 135.669C270.069 132.794 271.911 133.977 271.911 136.37C271.911 138.578 271.485 140.08 271.037 142.102C270.642 143.879 269.212 146.066 269.212 147.96C269.212 150.575 269.856 152.657 271.112 154.943C273.207 158.76 277.015 161.311 279.009 165.306C279.492 166.272 279.424 168.678 279.534 169.787C279.67 171.145 279.903 172.566 280.259 173.892C280.929 176.384 281.224 179.932 282.483 182.202C283.594 184.204 286.221 184.523 287.307 186.482C288.116 187.941 288.258 189.738 289.481 190.963C290.583 192.066 293.762 192.713 295.305 192.79C298.921 192.971 302.702 194.331 306.352 193.666C309.755 193.046 312.6 193.691 315.999 193.691C317.709 193.691 323.556 191.998 324.897 193.341C326.698 195.145 327.18 198.478 329.045 200.449C330.589 202.081 332.328 202.559 334.019 203.829C334.351 204.078 336.353 206.447 336.593 206.207C337.469 205.329 336.691 202.551 336.468 201.526C335.571 197.394 333.209 194.49 330.295 191.338C328.31 189.192 326.941 186.734 323.997 185.681C321.256 184.701 317.269 185.903 314.449 185.606C310.637 185.204 306.712 185.98 302.903 185.556C300.543 185.293 297.952 184.809 295.755 184.68C293.648 184.556 292.169 178.844 291.256 177.371C289.381 174.346 287.824 171.136 286.082 168.034C284.933 165.987 283.77 164.233 284.083 161.727C284.318 159.84 284.093 158.176 283.258 156.295C282.385 154.327 282.706 151.985 281.909 149.987C281.316 148.502 280.764 145.184 281.134 143.704C281.399 142.641 280.942 141.427 282.258 141.427H282.265C283.127 141.427 283.721 141.427 284.508 141.777C285.277 142.119 286.154 141.959 286.982 142.328C287.941 142.754 288.917 143.848 289.681 144.555C293.842 148.402 295.832 153.501 297.204 158.998C297.886 161.729 297.467 165.271 299.454 167.459C300.318 168.411 303.316 170.126 304.502 169.787C305.811 169.412 300.253 158.583 300.253 157.196C300.253 153.887 298.707 146.195 295.08 144.58C291.468 142.973 288.793 139.003 285.758 136.571C284.69 135.715 282.434 135.745 281.359 134.668C279.776 133.083 282.512 129.992 283.158 128.536C284.343 125.866 286.147 122.976 283.133 120.901C280.08 118.799 277.881 119.8 274.611 119.8C271.802 119.8 267.933 118.378 265.613 120.701C262.94 123.378 260.51 127.342 256.641 128.31C254.069 128.954 251.586 129.27 250.542 126.483C249.715 124.273 248.543 120.676 250.417 118.799C252.094 117.12 254.003 115.818 255.716 114.193C256.931 113.04 256.965 113.281 257.29 111.389C257.847 108.158 257.333 104.77 258.615 101.652C259.945 98.4177 260.107 100.826 262.664 100.826C263.419 100.826 265.302 95.4408 265.613 94.6688C266.443 92.612 266.513 90.8062 266.513 88.6113C266.513 83.2379 264.878 79.6533 262.914 74.8443C261.679 71.8205 259.534 68.6368 258.84 65.5078C258.048 61.9397 256.788 59.2298 254.591 56.2964C252.969 54.1305 254.291 53.6909 254.366 51.0649C254.422 49.1012 253.319 47.5803 251.667 46.7095C248.664 45.1266 246.401 44.7575 244.719 41.6283C243.205 38.8124 242.67 33.563 242.67 30.3894C242.67 28.6958 242.319 26.8844 240.97 26.0841C239.018 24.9258 235.284 25.3228 234.122 22.7049C233.016 20.2125 231.356 17.7859 230.423 15.1706C229.172 11.6632 230.305 8.96441 231.973 5.80901C232.764 4.31147 232.37 1.45466 230.498 1.1032C226.432 0.33962 225.917 3.95959 225.124 7.13565C224.02 11.5599 224.825 15.9477 225.647 20.4275L225.674 20.5773C226.559 25.4016 228.958 29.0092 233.122 31.5909C234.954 32.7263 235.921 34.2868 235.921 36.4218C235.921 37.5693 235.266 39.2357 235.497 40.2766C235.807 41.6763 237.293 43.2094 238.521 43.7559C240.2 44.5032 241.226 47.6292 241.72 49.2377C242.192 50.7733 239.97 52.2742 239.97 54.0186C239.97 57.8111 244.184 57.843 247.068 58.8746C249.335 59.6855 249.512 62.0875 249.893 64.1811C250.58 67.9659 252.124 71.535 254.541 74.4939C255.907 76.1661 255.716 79.3682 255.716 81.4024C255.716 83.6008 253.126 85.2072 253.017 87.6601C252.854 91.3164 252.372 93.8307 250.092 96.6212C248.279 98.8414 247.041 99.0742 244.244 99.0742C241.52 99.0742 236.656 98.0638 234.122 96.9215C232.007 95.9683 229.697 96.1489 227.824 94.5686C226.216 93.2127 222.854 92.8443 220.876 92.3159C218.622 91.714 216.456 90.5136 214.078 90.5136C211.75 90.5136 209.958 90.2438 207.929 89.5124C204.518 88.2825 205.258 84.4515 204.08 81.5025C203.4 79.7995 202.526 78.8425 201.056 77.6978C197.173 74.6732 195.993 70.6828 194.683 66.2539L194.633 66.0835C194.114 64.3284 193.766 61.6297 193.633 59.7757C193.473 57.5298 191.542 56.2236 190.934 54.2438C189.83 50.6506 188.222 45.9231 185.735 42.9799C184.405 41.4047 182.946 38.6996 180.587 38.6996C175.5 38.6996 181.642 45.8086 182.386 47.4855C183.451 49.8852 183.814 52.3814 184.536 54.8195C184.976 56.3064 184.785 57.9094 185.536 59.225C187.035 61.8529 188.078 65.4501 188.235 68.4364C188.355 70.7173 189.482 72.9463 189.584 75.1947C189.734 78.4824 190.465 83.2855 192.958 85.7828C194.214 87.0402 196.705 87.7136 197.682 88.9367C198.274 89.6772 199.386 90.0428 200.131 90.6138C201.44 91.616 201.421 92.5311 202.181 93.7677C202.937 94.9983 203.854 96.65 204.43 97.9478C204.988 99.2042 206.534 100.242 207.479 101.227C208.616 102.411 209.043 105.302 207.329 106.283C203.808 108.298 199.569 105.607 197.232 103.129C194.639 100.379 192.969 95.7248 189.359 94.1181C186.76 92.9609 185.034 92.3159 182.161 92.3159C180.128 92.3159 179.889 91.5849 178.338 90.6138C174.339 88.1111 169.687 87.0369 164.841 86.9092C163.555 86.8753 159.227 87.6371 158.193 86.8091C156.904 85.7762 155.611 84.1813 154.944 82.679C154.716 82.1656 153.21 80.9883 152.695 80.7015C151.386 79.9736 150.515 78.3996 149.296 77.4225C147.874 76.2838 146.4 75.0551 145.047 73.843C144.426 73.2867 143.462 73.2943 142.897 72.8418C141.959 72.0895 141.575 73.7668 140.773 73.1422C139.857 72.4284 139.072 71.4485 138.049 70.8894C136.413 69.996 135.423 68.5468 133.55 68.0108C132.13 67.6046 130.057 67.9858 128.576 67.9858C126.154 67.9858 119.291 67.8111 117.705 65.733C115.65 63.0418 117.125 58.0953 113.106 57.648C109.876 57.2886 104.117 56.3374 101.859 53.7933C99.7509 51.4181 97.3928 48.9836 94.7609 47.2602C92.1848 45.5732 90.1413 44.9653 88.8126 41.9537C88.5571 41.3744 83.864 35.6884 83.864 38.4744C83.864 41.1475 84.3139 43.6996 84.3139 46.3591C84.3139 47.5093 84.1126 47.9633 85.2636 48.4116C87.9837 49.471 90.1734 51.0791 92.6115 52.6419C95.4266 54.4462 97.6373 56.6624 100.284 58.7244C101.264 59.4876 100.801 60.1213 101.059 61.3276C101.381 62.8328 102.567 64.8179 103.958 65.4827C106.314 66.6085 109.334 69.2423 110.507 71.5903C112.019 74.62 104.307 76.2744 102.334 76.5214C99.3435 76.8957 97.0247 76.8809 95.3358 79.9256C93.8623 82.5818 91.6051 82.4821 89.2625 83.6552C87.2858 84.645 83.3827 86.2526 88.0128 86.8091C92.133 87.3042 93.6947 88.4272 92.6115 92.7664C91.8463 95.8319 90.9918 98.8144 88.2878 100.676C85.0095 102.933 81.8047 103.129 78.0156 103.129C75.0046 103.129 70.6894 107.917 68.4683 109.988C65.0728 113.154 60.6155 112.926 56.6716 114.618C49.0248 117.901 43.8393 126.558 34.8277 126.558C30.9687 126.558 27.7192 125.29 25.0305 128.811C22.8951 131.608 18.8249 133.811 15.908 135.82C12.0022 138.509 8.7048 142.188 4.76113 144.756C2.24998 146.39 1.78215 148.207 1.18713 150.888C0.82821 152.506 0.806221 156.382 2.78668 157.096C4.57262 157.74 7.0273 155.126 8.31014 154.242C14.3018 150.117 20.9758 146.848 26.3801 141.977C31.5138 137.35 38.8823 136.085 44.5 132.19C48.7179 129.266 53.3834 123.404 58.871 123.404C62.055 123.404 65.1397 123.954 68.1184 122.503C69.9567 121.607 71.4778 120.677 73.3169 119.8C76.52 118.272 80.2487 118.006 83.4141 116.421C86.969 114.641 90.8379 113.058 94.1111 110.789C96.3352 109.247 99.0655 106.42 99.6346 103.855C100.106 101.728 99.959 99.4211 100.609 97.272C101.526 94.2418 105.419 93.2001 107.707 91.5149C110.083 89.7653 111.713 87.4034 113.781 85.3322C117.549 81.5585 124.02 78.7992 129.401 78.7992C132.243 78.7992 135.439 78.2845 137.949 79.9005C142.642 82.9222 144.497 88.6351 145.497 93.8928C145.776 95.361 146.264 99.3447 147.996 99.9753C149.955 100.689 151.729 102.106 153.744 102.579C155.183 102.916 156.63 102.833 158.093 103.229C162.569 104.441 167.428 105.431 167.965 110.814C168.116 112.32 167.551 114.326 168.09 115.745C168.453 116.698 168.037 118.57 168.665 119.324C170.433 121.448 171.24 124.456 173.039 126.458C173.979 127.504 174.207 130.127 174.289 131.514C174.409 133.562 178.782 134.642 180.137 134.868C183.023 135.35 185.403 135.887 188.135 136.921C189.411 137.404 190.761 138.057 192.084 138.298C195.252 138.875 198.447 138.383 201.631 138.823C204.421 139.209 204.88 139.52 204.88 142.328C204.88 143.817 206.335 146.573 208.054 146.358C209.134 146.222 210.35 146.044 210.828 145.031C211.163 144.324 211.442 142.156 212.328 141.902C213.697 141.51 218.412 142.823 217 143C214.131 143.359 210.428 147.465 209.154 149.762C208.749 150.491 209.173 151.294 208.579 151.889C207.454 153.016 205.901 153.624 204.43 154.199L204.255 154.267C202.182 155.08 198.315 156.036 196.932 157.847L196.834 157.976C194.689 160.787 192.669 163.434 188.685 161.802C187.152 161.174 188.103 157.196 186.21 157.196C184.639 157.196 182.882 158.826 182.161 160.125C181.263 161.744 183.314 162.618 184.286 163.604C185.547 164.884 186.871 166.379 187.685 168.009C188.453 169.547 189.608 170.774 190.459 172.265C191.492 174.075 191.206 175.998 191.834 177.922C192.189 179.008 195.433 182.431 195.433 179.499C195.433 177.722 196.008 176.175 195.883 174.417C195.703 171.897 192.846 170.204 192.309 167.784C191.816 165.562 194.148 166.207 195.658 166.207C198.483 166.207 201.451 164.093 203.431 162.252C205.279 160.533 206.763 159.449 209.279 159.449C212.644 159.449 213.578 158.86 214.952 155.494C216.965 150.567 222.372 157.17 221.425 160.25C220.872 162.052 219.146 162.37 218.026 163.604C216.039 165.793 214.573 168.088 212.328 170.037C210.542 171.587 210.279 173.718 210.279 175.919C210.279 179.178 207.752 179.612 205.43 181.075C201.396 183.62 201.666 189.016 197.432 191.438C194.462 193.138 189.985 192.339 186.71 192.339C183.586 192.339 180.525 191.889 177.438 191.889C173.346 191.889 165.787 191.774 163.942 196.394C163.272 198.07 163.22 199.432 161.442 200.449C159.857 201.357 158.762 202.535 158.543 204.504C158.247 207.177 153 209.636 151.32 211.038C150.38 211.822 147.787 212.373 146.596 212.589C145.057 212.87 141.87 213.538 140.648 214.517C137.203 217.277 134.552 221.679 129.726 222.051C125.722 222.36 120.121 223.361 117.155 226.331C115.614 227.874 114.082 230.015 113.206 231.988L113.153 232.109C112.632 233.285 111.964 234.793 110.657 235.167C109.318 235.55 107.911 236.983 106.558 237.37C104.88 237.85 103.097 238.796 101.409 239.548C99.9241 240.209 97.805 240.684 97.3852 242.576C97.0565 244.058 101.382 244.216 102.309 243.803C104.344 242.897 106.56 242.689 108.607 241.55C110.338 240.587 112.032 239.494 113.781 238.521C114.83 237.938 115.693 237.19 116.705 236.594C117.52 236.114 116.813 235.071 117.854 234.692C119.696 234.021 120.795 232.469 122.203 231.187C123.795 229.738 125.253 228.45 127.502 228.384C130.513 228.295 133.139 228.301 135.824 226.807C137.053 226.124 137.891 224.746 138.974 223.878C140.551 222.614 141.669 222.103 143.505 221.263L143.697 221.175C146.283 219.991 149.206 219.668 151.795 218.372C154.309 217.113 156.649 215.56 159.218 214.417C163.282 212.608 161.961 207.585 166.641 206.207C170.91 204.949 167.868 199.2 172.264 198.222C172.964 198.066 174.289 196.778 174.289 197.496C174.289 198.077 172.909 198.987 174.289 198.297C175.631 197.625 177.53 197.497 179.037 197.771C183.457 198.576 188.59 199.709 193.083 199.548C194.839 199.486 198.857 199.238 200.281 198.097C202.127 196.618 203.02 194.252 204.68 192.59C205.94 191.328 208.979 190.424 209.829 188.935C210.761 187.301 210.152 185.754 210.828 184.229C212.119 181.322 215.157 176.861 218.601 176.094C222.49 175.229 225.562 170.988 227.274 167.559C227.916 166.272 229.995 164.375 230.073 163.053C230.188 161.096 231.259 161.006 232.322 159.674C232.772 159.112 235.373 158.554 236.171 158.097C237.688 157.229 238.171 156.713 238.171 154.943Z" stroke="#1A1A1A" stroke-linecap="round"/>
</svg>
