<svg width="789" height="537" viewBox="0 0 789 537" fill="none" xmlns="http://www.w3.org/2000/svg">
<path d="M115 302C126.85 302 139.265 302.729 150.404 306.715C153.808 307.934 156.935 309.778 160.363 310.882C163.093 311.761 167.134 313.192 169.45 314.799C177.35 320.279 187.48 321.27 196.339 324.229C201.261 325.873 206.396 326.591 211.252 328.495C213.44 329.353 215.662 330.107 217.85 330.965C219.591 331.648 221.193 332.988 222.979 333.435C224.29 333.764 225.233 334.865 226.49 335.331C228.447 336.058 229.916 337.475 231.519 338.724C234.275 340.873 237.944 343.628 241.154 344.887C245.95 346.767 249.43 351.324 253.926 353.743C258.3 356.097 262.233 359.379 266.474 361.976C270.314 364.328 274.42 367.62 277.678 370.708C281.109 373.961 284.812 376.958 288.185 380.338C289.621 381.778 291.636 383.43 292.467 385.303C293.354 387.303 295.406 388.674 296.401 390.468C297.376 392.226 298.437 393.87 299.413 395.632C300.106 396.881 301.15 399.792 300.982 396.755C300.799 393.451 300.086 390.18 300.086 386.875C300.086 386.068 300.086 385.262 300.086 384.455C300.086 383.723 300.086 385.919 300.086 386.65C300.086 388.441 300.534 389.995 300.534 391.815C300.534 393.536 300.534 395.258 300.534 396.979C300.534 397.454 301.497 399 300.534 399C299.94 399 299.064 398.592 298.293 398.551C294.706 398.362 291.545 396.755 287.986 396.755C287.286 396.755 283.324 396.35 284.649 396.73C286.274 397.195 288.057 397.204 289.778 397.204C293.356 397.204 296.828 399 300.534 399" stroke="#1A1A1A" stroke-linecap="round"/>
<path d="M30.9961 453.857C34.6855 456.792 43.905 456.99 48.4508 457.571C55.2824 458.445 62.5433 459 69.4253 459C78.4293 459 87.3149 458.357 96.3257 458.357C104.322 458.357 112.364 458.641 120.353 458.357C125.316 458.181 130.388 457.071 135.401 457.071C139.197 457.071 144.277 457.134 148.008 456.286C150.863 455.637 154.008 454.714 156.915 454.5C159.671 454.297 162.419 452.571 165.139 452.571C165.63 452.571 171.027 451.413 170.993 451.143C170.86 450.085 164.941 450 163.846 450C162.924 450 158.154 450 161.26 450C163.608 450 165.857 450.643 168.048 450.643C170.849 450.643 170.637 451.115 169.952 453.5C169.737 454.246 167.402 456.924 167.402 456.429" stroke="#1A1A1A" stroke-linecap="round"/>
<path d="M503.566 21C502.952 25.9483 495.934 28.5246 495.628 34.0706C495.467 36.9884 493.463 39.6636 493.463 42.744C493.463 46.375 491.298 49.9031 491.298 53.6765C491.298 62.4978 487.921 70.9694 487.689 79.8177C487.43 89.7295 484.081 99.3439 484.081 109.227C484.081 125.572 481.916 141.313 481.916 157.677C481.916 173.302 481.916 188.928 481.916 204.553C481.916 220.945 481.916 237.337 481.916 253.729C481.916 260.654 482.638 267.643 482.638 274.425C482.638 277.8 482.638 281.175 482.638 284.55C482.638 287.036 481.778 291.456 482.999 293.667C484.389 296.186 483.548 292.341 484.963 290.561C486.069 289.17 486.112 285.57 487.329 284.591C487.761 284.242 486.804 289.335 486.086 290.238C484.682 292.004 483.824 294.871 482.798 296.935C482.504 297.526 479.974 293.908 479.711 292.982C479.378 291.81 475.485 288.278 474.378 287.536C472.883 286.532 476.223 290.669 477.426 292.013C478.205 292.884 478.437 293.989 479.39 294.757C480.704 295.814 480.408 293.337 481.916 292.578" stroke="#1A1A1A" stroke-linecap="round"/>
<path d="M483.359 119.03C484.827 120.691 486.725 125.548 486.968 127.743C487.321 130.941 489.851 133.719 490.536 136.82C492.172 144.227 493.966 151.256 494.185 158.968C494.599 173.554 496.812 188.838 499.918 202.899C500.79 206.848 500.842 211.201 501.401 215.284C503.304 229.165 506.326 242.461 509.34 256.11C510.925 263.288 512.948 270.681 512.948 278.055C512.948 283.895 512.886 279.558 514.752 278.055C515.496 277.457 518 270.73 518 269.705C518 267.929 517.994 271.241 517.639 271.883C516.864 273.287 516.824 275.157 515.675 276.442C513.811 278.525 513.387 282.151 510.422 279.83C509.545 279.144 505.01 275.061 505.01 275.151" stroke="#1A1A1A" stroke-linecap="round"/>
<path d="M85 121C87.4008 121.268 91.2667 126.564 93.0173 128.321C97.3799 132.702 102.42 136.306 106.755 140.659C114.747 148.683 124.821 155.874 133.99 162.502C143.6 169.449 153.183 177.385 161.708 185.639C167.681 191.422 173.887 196.956 179.837 202.709C191.512 213.996 204.555 223.954 217.708 233.491C227.24 240.404 240.2 249.956 252.839 247.649C258.481 246.619 264.553 246.583 270.082 244.939C273.513 243.918 278.993 243.002 281.685 240.57C283.948 238.524 287.666 237.25 289.5 234.947C291.552 232.373 294.791 230.856 296.752 228.395C297.851 227.015 299.853 226.914 300.942 225.684C301.55 224.998 297.178 225.846 296.752 225.846C294.818 225.846 292.885 225.846 290.951 225.846C290.156 225.846 285.308 225.846 288.05 225.846C290.169 225.846 298.352 224.758 298.203 227.302C298.01 230.588 296.027 233.792 296.027 237.496" stroke="#1A1A1A" stroke-linecap="round"/>
<path d="M268 34.3924C278.135 34.3924 287.943 33.537 298.168 34.3521C302.932 34.7319 308.021 35.1177 312.766 35.1177C315.49 35.1177 318.63 34.6297 321.137 35.6819C323.557 36.6969 326.735 35.5202 329.306 36.4072C332.298 37.439 336.447 38.5331 338.931 40.5576C341.306 42.4942 344.242 44.5728 346.938 46.0378C349.537 47.4507 351.487 50.4628 353.893 51.9612C358.766 54.9957 359.68 63.2876 361.172 68.1196C363.073 74.2736 364.81 80.3405 366.43 86.6152C367.918 92.383 369.179 98.453 369.179 104.386C369.179 110.146 371.451 115.293 372.819 120.745C374.053 125.665 376.756 130.316 378.278 135.171C379.485 139.018 380.483 143.146 382.12 146.817C384.36 151.839 385.747 157.245 387.741 162.411C389.714 167.521 390.289 175.407 390.289 180.906C390.289 185.329 388.833 189.576 388.833 193.6C388.833 196.707 388.437 196.632 390.289 194.325C391.475 192.847 393.413 191.757 394.818 190.497C400.208 185.663 394.119 189.372 392.473 191.424C391.581 192.534 389.662 193.985 388.429 194.688C386.256 195.925 386.656 195.822 384.627 193.801C381.351 190.536 377.904 188.156 373.547 186.709" stroke="#1A1A1A" stroke-linecap="round"/>
<path d="M761 166C758.47 168.271 755.346 171.882 751.903 172.654C749.368 173.223 746.913 174.894 744.303 175.553C741.837 176.175 738.129 177.08 735.853 178.124C730.689 180.495 724.099 179.15 718.792 181.064C712.979 183.16 703.817 182.901 697.729 182.901C687.284 182.901 676.84 182.901 666.396 182.901C661.376 182.901 655.328 183.433 650.548 182.003C647.918 181.216 645.115 182.037 642.543 181.268C640.553 180.672 637.297 181.32 635.67 180.125C634.677 179.395 631.596 179.962 630.374 179.962C628.504 179.962 626.586 179.227 624.552 179.227C622.682 179.227 620.764 178.492 618.73 178.492C615.362 178.492 619.319 178.024 619.822 177.39C620.312 176.771 624.343 176.538 625.28 176.328C627.309 175.873 629.988 176.218 631.829 175.185C634.43 173.726 633.908 175.553 631.101 175.553C629.87 175.553 626.372 176.042 625.28 176.655C624.139 177.295 614.092 176.789 616.345 179.063C619.107 181.853 622.829 183.272 625.805 185.677C630.696 189.628 625.41 183.627 623.622 182.003C621.5 180.074 616.789 178.461 614 177.757" stroke="#1A1A1A" stroke-linecap="round"/>
<path d="M554 502C548.254 502 542.509 504.056 536.914 505.273C531.302 506.493 525.196 507.091 519.465 507.091C510.463 507.091 501.843 511.214 492.928 511.455C481.05 511.776 469.289 514.364 457.343 514.364C445.938 514.364 434.489 515.091 423.171 515.091C418.566 515.091 414.373 515.081 409.882 515.98C405.177 516.921 400.093 518.388 395.341 518.727C392.629 518.921 389.748 519.643 387.142 520.222C384.379 520.836 383.255 522.162 384.961 519.091C385.784 517.609 389.2 514.687 387.505 514.687C386.918 514.687 383.765 520.039 383.305 520.909C381.151 524.978 391.043 524.48 393.322 526" stroke="#1A1A1A" stroke-linecap="round"/>
<path d="M604.374 106.125C609.552 106.93 609.062 132.392 609.062 136.522C609.062 145.521 610 154.233 610 163.29C610 171.977 609.42 180.97 608.177 189.474C606.634 200.032 599.8 209.544 596.351 219.353C594.416 224.857 590.649 229.092 588.433 234.455C586.488 239.159 584.417 243.677 582.598 248.454C579.577 256.39 577.503 264.502 574.367 272.306C570.33 282.351 562.652 290.766 557.488 300.045C554.789 304.896 552.211 310.875 549.987 316.119C547.423 322.163 543.196 326.656 540.401 332.452C532.26 349.332 513.093 352.686 502.632 365.701C501.476 367.14 494.465 380.035 492.786 378.469C489.776 375.661 493.231 362.365 493.776 358.636C494.646 352.686 497.954 341.215 493.724 335.952C487.157 327.781 487.961 343.555 488.098 346.452C488.3 350.734 485.582 350.891 482.472 351.118C480.575 351.257 483.596 360.099 484.139 361.618C485.435 365.248 483.889 367.595 482.472 370.044C480.517 373.421 477.656 380.714 474.97 382.876C469.731 387.094 429.36 370.568 423.45 373.177C419.686 374.838 404.123 379.376 404.123 385.491C404.123 393.181 395.422 322.826 394.277 330.66C393.322 337.189 397.064 350.972 390.995 353.992C385.839 356.558 381.128 355.902 375.575 353.927C370.219 352.024 375.333 341.588 377.867 339.733C382.591 336.276 379 317.986 373.178 324.826C365.432 333.929 361.071 348.086 351.611 354.9C346.032 358.918 342.794 365.812 338.483 371.492C335.173 375.852 330.67 388.294 333.326 394.241C334.666 397.243 334.133 401.363 337.076 402.991C339.585 404.378 341.839 404.157 344.578 404.157C361.165 404.157 377.576 397.774 393.808 394.889C400.635 393.676 406.723 391.317 413.083 389.056C417.987 387.313 421.979 388.991 427.096 388.991C432.211 388.991 437.543 382.215 442.152 385.491C443.824 386.68 444.619 390.158 446.788 390.158C449.897 390.158 453.005 390.158 456.113 390.158C460.575 390.158 460.703 400.665 463.198 404.157C467.139 409.673 455.322 414.424 461.323 422.824C462.222 424.083 466.349 428.174 465.803 429.823C464.704 433.145 464.536 437.485 463.928 441.101C462.95 446.914 463.068 453.521 461.114 458.989C458.907 465.17 454.517 467.868 451.737 473.248C447.333 481.771 444.288 493.623 436.421 498.072C430.356 501.502 421.504 504.488 414.854 504.488C408.018 504.488 401.313 507.988 394.277 507.988C392.51 507.988 388.611 508.585 386.827 509.219C384.926 509.895 381.418 522.313 380.68 524.839C377.828 534.598 368.289 535.648 361.196 535.987C351.748 536.439 349.385 524.893 350.882 514.34C351.634 509.033 355.675 509.155 359.113 509.155C359.266 509.155 354.263 509.267 352.549 509.155C341.182 508.41 329.831 509.155 318.374 509.155C308.349 509.155 298.441 511.488 288.316 511.488C285.3 511.488 286.077 514.857 282.689 516.154C279.456 517.392 276.128 518.049 272.843 519.071C267.281 520.801 262.478 525.393 256.902 526.654C253.296 527.47 249.667 528.274 246.587 530.737C243.505 533.202 240.298 532.487 236.689 532.487C226.23 532.487 218.712 529.315 208.714 525.487C200.95 522.515 189.708 515.909 186.782 505.395C182.969 491.691 183.493 477.27 183.761 463.267C183.841 459.099 184.699 454.906 184.699 450.564C184.699 443.053 183.454 446.647 179.072 444.082C178.329 443.647 183.531 441.571 184.699 441.49C187.338 441.307 189.387 442.817 190.117 445.767C191.045 449.52 188.45 452.484 188.45 456.202C188.45 460.967 188.816 464.971 189.335 469.489C190.189 476.921 187.884 486 191.784 492.238C195.556 498.273 200.012 504.789 205.797 507.988C210.857 510.786 220.462 513.821 225.958 513.821C232.717 513.821 238.801 517.659 245.858 517.321C249.445 517.149 253.147 516.288 256.902 516.154C261.166 516.003 260.271 512.909 261.382 509.155C262.358 505.86 258.705 498 255.965 497.488C251.169 496.593 247.853 496.202 243.566 499.821C241.819 501.296 225.491 515.623 225.02 505.655C224.712 499.146 228.378 492.383 231.376 487.507C234.921 481.739 238.469 479.989 243.983 479.989C247.86 479.989 251.619 480.982 255.235 481.155C258.066 481.291 262.802 481.177 265.342 482.581C271.181 485.81 278.428 484.279 284.096 487.248C290.854 490.788 298.661 484.98 305.455 484.655C308.299 484.519 308.979 483.751 311.706 484.72C313.943 485.515 314.316 489.322 317.385 489.322C323.879 489.322 330.793 490.488 337.493 490.488C345.335 490.488 352.6 492.822 360.519 492.822C370.912 492.822 381.081 490.488 391.464 490.488C396.627 490.488 406.491 489.356 410.478 484.396C415.407 478.264 421.134 470.69 425.273 463.915C429.207 457.475 436.083 454.226 440.693 448.49C445.639 442.337 440.802 431.294 438.609 425.157C435.324 415.959 420.811 415.778 413.916 413.491C401.438 409.35 388.85 409.991 376.043 409.991C367.986 409.991 353.94 410.592 347.86 418.157C341.531 426.031 339.326 439.628 330.46 443.305C323.194 446.318 311.935 449.583 305.872 441.749C298.849 432.676 300.106 401.617 310.352 396.25C315.31 393.653 319.334 399.593 316.186 391.325C314.941 388.054 319.935 380.221 321.396 377.843C326.043 370.283 329.106 363.632 329.106 353.992C329.106 350.953 332.084 350.492 334.263 350.492C337.376 350.492 339.697 347.816 341.765 345.242C344.598 341.718 346.81 337.67 349.683 334.095C352.687 330.357 356.341 326.875 359.165 323.012C362.6 318.31 373.178 313.456 373.178 306.744C373.178 303.258 372.875 300.672 372.293 297.41C371.693 294.056 365.569 295.66 363.228 295.66C358.064 295.66 352.812 297.852 347.652 296.568C342.286 295.233 334.869 286.224 334.732 279.068C334.583 271.255 339.421 264.314 339.421 257.162C339.421 255.622 338.054 255.565 338.691 253.662C340.65 247.813 342.125 241.749 344.109 235.903C346.202 229.735 343.453 233.479 341.296 236.162C339.006 239.011 334.74 242.162 333.065 245.495C328.257 255.067 310.693 230.852 309.622 225.403C308.655 220.478 309.832 214.874 305.194 218.079C301.633 220.541 294.584 217.395 291.129 215.811C286.74 213.799 284.739 212.057 281.752 207.515C278.285 202.243 281.572 193.807 279.407 187.747C277.915 183.57 274.838 170.8 279.928 168.497C284.007 166.652 288.422 167.726 292.483 165.516C299.983 161.434 302.074 147.941 304.309 139.202C307.337 127.361 310.279 112.873 308.424 100.184C306.908 89.8097 293.89 94.6455 288.42 90.981C284.626 88.4394 282.22 88.3716 282.22 82.7498C282.22 78.2454 286.858 74 290.295 74C303.159 74 311.147 81.7358 316.343 96.1013C318.519 102.119 320.667 112.199 320.667 118.915C320.667 124.731 322.261 130.812 321.552 136.545C320.401 145.854 319.631 158.363 314.103 165.646C309.856 171.239 303.647 173.968 299.099 178.997C297.24 181.053 294.311 180.7 294.411 183.923C294.56 188.749 296.546 190.905 300.037 190.663C303.95 190.393 302.986 190.092 306.601 192.737C308.594 194.196 306.257 201.001 308.476 201.163C315.88 201.705 318.631 197.991 323.896 206.413C325.379 208.784 324.905 211.255 326.293 213.413C327.094 214.659 332.743 214.678 334.263 215.098C338.947 216.393 346.405 214.883 348.798 221.579C349.383 223.218 350.673 223.143 350.673 225.079C350.673 228.379 350.673 231.6 351.142 234.866C351.887 240.053 351.439 245.624 352.601 250.68C353.169 253.156 356.62 253.58 357.966 255.088C360.408 257.822 360.99 263.298 361.717 267.143C362.723 272.462 367.732 267.677 369.219 264.161C370.202 261.838 366.919 256.072 366.406 253.662C363.788 241.357 369.582 232.166 379.013 228.255C381.043 227.413 386.963 229.549 386.515 227.736C385.645 224.222 381.618 218.177 381.618 215.163C381.618 207.499 395.185 213.506 397.038 215.811C399.754 219.191 400.691 224.475 400.32 229.098C399.941 233.805 396.864 234.857 394.381 237.329C394.07 237.638 400.617 248.493 401.778 250.227C404.07 253.649 404.123 260.561 404.123 264.745C404.123 273.93 398.895 284.769 391.411 287.429C390.379 287.796 385.469 287.233 386.306 287.753C388.568 289.16 399.425 291.34 401.778 291.512C407.197 291.909 404.82 368.905 408.811 364.492C412.191 360.754 412.562 356.56 412.562 350.752C412.562 349.067 411.766 341.399 413.5 341.159C423.513 339.775 422.058 321.463 418.709 312.642C416.472 306.747 414.888 303.827 420.533 303.827C423.624 303.827 432.675 302.464 429.805 303.892C426.811 305.382 434.6 302.525 435.484 302.012C439.209 299.849 477.415 318.677 481.013 316.119C483.89 314.074 483.813 304.299 488.098 306.203C490.853 307.427 493.121 309.65 495.495 311.971C497.345 313.779 509.777 329.371 510.655 321.175C511.412 314.108 512.198 308.972 507.998 303.545C506.497 301.605 499.346 293.424 502.789 292.527C507.545 291.289 514.28 289.695 518.105 293.953C521.044 297.226 525.435 296.315 528.419 293.694C537.75 285.5 545.581 271.583 551.862 259.861C557.047 250.185 564.333 239.995 566.136 228.103C570.386 200.082 572.181 170.856 581.869 144.624C584.973 136.218 589.201 129.258 594.059 122.458C595.914 119.862 603.522 105.595 604.374 106.125Z" stroke="#1A1A1A" stroke-linecap="round"/>
<path d="M376.964 457.437C376.678 454.864 374.785 448.988 374.785 446.183C374.785 443.318 374.374 440.429 375.673 437.833C377.635 433.907 386.346 430.236 390.194 433.315C391.645 434.475 396.48 434.077 397.254 436.784C397.967 439.28 399.472 440.59 399.472 443.641C399.472 450.196 394.208 450.015 389.307 452.193C387.145 453.154 383.355 453.08 380.957 453.08C376.889 453.08 376.964 453.45 376.964 457.437ZM376.964 457.437C376.964 460.985 379.928 468.222 382.208 471.071C385.294 474.929 391.194 477.582 396.003 477.767C401.276 477.97 411 479 413 481" stroke="#1A1A1A" stroke-linecap="round"/>
<path d="M151 383C160.046 383 169.275 386.03 178.181 387.35C186.06 388.518 193.424 393.298 200.247 397.137C210.103 402.682 217.638 410.505 225.656 418.525C231.618 424.488 238.696 429.856 245.227 435.2C253.406 441.894 261.168 448.71 269.83 454.775C282.349 463.54 298.061 470 313.722 470C327.039 470 340.22 469.27 353.225 467.825C355.451 467.578 358.289 466.386 359.748 464.562C360.953 463.056 364.506 461.3 362.285 461.3C359.659 461.3 356.936 461.892 354.674 462.025C353.334 462.104 350.647 462.025 350.647 462.025C350.647 462.025 353.332 462.025 354.674 462.025C355.939 462.025 362.568 461.394 362.647 462.75C362.78 465.002 361.198 467.736 361.198 470" stroke="#1A1A1A" stroke-linecap="round"/>
<path d="M656 370C644.734 370 633.349 370.722 621.979 370.722C608.188 370.722 594.518 372.167 580.792 372.167C571.101 372.167 560.805 372.833 551.28 374.293C548.022 374.793 544.627 373.806 541.416 374.694C537.714 375.719 533.499 374.136 529.901 375.417C527.4 376.307 522.928 376.404 520.319 376.5C516.946 376.624 513.601 377.051 510.334 377.222C507.771 377.357 505.164 377.944 502.724 377.944C501.69 377.944 498.943 378.881 499.624 378.105C500.337 377.293 501.671 376.773 502.724 376.54C504.558 376.134 510.035 374.939 508.16 375.056C505.826 375.201 502.95 375.986 500.752 376.66C492.434 379.211 505.362 382.071 508.16 383" stroke="#1A1A1A" stroke-linecap="round"/>
<path d="M66.9858 103.545V121H65.392V105.216H65.2898L61.1989 107.935V106.281L65.3239 103.545H66.9858Z" fill="#1A1A1A"/>
<path d="M245.619 42V40.8324L251.321 34.4233C252.065 33.5824 252.664 32.8636 253.119 32.267C253.574 31.6705 253.903 31.1193 254.108 30.6136C254.318 30.108 254.423 29.5824 254.423 29.0369C254.423 28.3722 254.267 27.7926 253.954 27.2983C253.647 26.7983 253.224 26.4091 252.684 26.1307C252.145 25.8523 251.537 25.7131 250.86 25.7131C250.145 25.7131 249.517 25.8665 248.977 26.1733C248.443 26.4801 248.028 26.9006 247.733 27.4347C247.437 27.9687 247.289 28.5824 247.289 29.2756H245.764C245.764 28.3097 245.985 27.4545 246.429 26.7102C246.877 25.9602 247.488 25.3722 248.261 24.946C249.039 24.5199 249.92 24.3068 250.903 24.3068C251.875 24.3068 252.738 24.517 253.494 24.9375C254.25 25.3523 254.843 25.9176 255.275 26.6335C255.707 27.3494 255.923 28.1506 255.923 29.0369C255.923 29.679 255.809 30.3011 255.582 30.9034C255.36 31.5057 254.977 32.1761 254.431 32.9148C253.886 33.6534 253.13 34.5568 252.164 35.625L247.835 40.4574V40.5682H256.468V42H245.619Z" fill="#1A1A1A"/>
<path d="M518.064 21.2386C516.99 21.2386 516.03 21.0455 515.183 20.6591C514.337 20.267 513.666 19.7244 513.172 19.0312C512.678 18.3381 512.416 17.5398 512.388 16.6364H513.999C514.027 17.2727 514.223 17.8295 514.587 18.3068C514.95 18.7784 515.433 19.1477 516.036 19.4148C516.638 19.6761 517.308 19.8068 518.047 19.8068C518.854 19.8068 519.564 19.6562 520.178 19.3551C520.797 19.054 521.28 18.642 521.626 18.1193C521.979 17.5909 522.155 16.9943 522.155 16.3295C522.155 15.625 521.976 15.0028 521.618 14.4631C521.26 13.9233 520.746 13.5028 520.075 13.2017C519.411 12.9006 518.615 12.75 517.689 12.75H516.666V11.3182H517.689C518.445 11.3182 519.112 11.1818 519.692 10.9091C520.277 10.6307 520.737 10.2415 521.072 9.74148C521.408 9.24148 521.575 8.65341 521.575 7.97727C521.575 7.33523 521.43 6.76989 521.141 6.28125C520.851 5.79261 520.442 5.40909 519.913 5.13068C519.391 4.85227 518.78 4.71307 518.081 4.71307C517.405 4.71307 516.786 4.84375 516.223 5.10511C515.661 5.36648 515.206 5.73579 514.859 6.21307C514.518 6.69034 514.337 7.25568 514.314 7.90909H512.771C512.794 7 513.044 6.2017 513.521 5.5142C514.004 4.82102 514.643 4.28125 515.439 3.89489C516.24 3.50284 517.126 3.30682 518.098 3.30682C519.126 3.30682 520.016 3.51705 520.766 3.9375C521.516 4.35795 522.095 4.91761 522.504 5.61648C522.919 6.30966 523.126 7.07386 523.126 7.90909C523.126 8.90341 522.857 9.75568 522.317 10.4659C521.777 11.1705 521.05 11.6591 520.135 11.9318V12.0426C521.249 12.2642 522.124 12.7585 522.76 13.5256C523.402 14.2869 523.723 15.2216 523.723 16.3295C523.723 17.2614 523.479 18.0994 522.99 18.8438C522.501 19.5824 521.831 20.1676 520.979 20.5994C520.132 21.0256 519.161 21.2386 518.064 21.2386Z" fill="#1A1A1A"/>
<path d="M773.014 169.25V167.955L780.795 155.545H781.75V157.719H781.042L774.795 167.707V167.818H784.997V169.25H773.014ZM781.162 173V168.841V168.244V155.545H782.679V173H781.162Z" fill="#1A1A1A"/>
<path d="M671.9 377.239C670.928 377.239 670.059 377.043 669.292 376.651C668.531 376.253 667.923 375.707 667.468 375.014C667.019 374.321 666.781 373.528 666.752 372.636H668.295C668.346 373.562 668.71 374.324 669.386 374.92C670.062 375.511 670.9 375.807 671.9 375.807C672.678 375.807 673.371 375.622 673.979 375.253C674.587 374.878 675.062 374.366 675.403 373.719C675.749 373.065 675.923 372.33 675.923 371.511C675.917 370.659 675.732 369.909 675.369 369.261C675.005 368.608 674.511 368.097 673.886 367.727C673.266 367.358 672.57 367.173 671.798 367.173C671.212 367.168 670.638 367.264 670.076 367.463C669.513 367.662 669.045 367.918 668.67 368.23L667.076 368.026L668.124 359.545H676.749V360.977H669.462L668.763 366.815H668.849C669.235 366.491 669.704 366.227 670.255 366.023C670.812 365.818 671.4 365.716 672.019 365.716C673.048 365.716 673.971 365.963 674.789 366.457C675.613 366.952 676.263 367.634 676.741 368.503C677.224 369.366 677.465 370.361 677.465 371.486C677.465 372.588 677.224 373.574 676.741 374.443C676.263 375.307 675.604 375.989 674.763 376.489C673.928 376.989 672.974 377.239 671.9 377.239Z" fill="#1A1A1A"/>
<path d="M573.128 510.239C572.406 510.233 571.702 510.088 571.014 509.804C570.327 509.514 569.707 509.051 569.156 508.415C568.605 507.773 568.168 506.926 567.844 505.875C567.52 504.824 567.358 503.531 567.358 501.997C567.358 500.577 567.483 499.276 567.733 498.094C567.983 496.912 568.358 495.889 568.858 495.026C569.358 494.162 569.983 493.494 570.733 493.023C571.483 492.545 572.361 492.307 573.366 492.307C574.31 492.307 575.142 492.503 575.864 492.895C576.585 493.281 577.17 493.821 577.619 494.514C578.068 495.207 578.349 496.006 578.463 496.909H576.895C576.736 495.989 576.358 495.23 575.761 494.634C575.165 494.037 574.366 493.739 573.366 493.739C571.935 493.739 570.827 494.403 570.043 495.733C569.259 497.057 568.864 498.938 568.858 501.375H568.969C569.247 500.858 569.605 500.412 570.043 500.037C570.486 499.656 570.989 499.361 571.551 499.151C572.114 498.935 572.705 498.827 573.324 498.827C574.295 498.827 575.185 499.074 575.991 499.568C576.798 500.057 577.443 500.73 577.926 501.588C578.409 502.44 578.651 503.415 578.651 504.511C578.651 505.551 578.42 506.509 577.96 507.384C577.506 508.259 576.864 508.955 576.034 509.472C575.21 509.989 574.241 510.244 573.128 510.239ZM573.128 508.807C573.889 508.807 574.568 508.614 575.165 508.227C575.767 507.841 576.241 507.324 576.588 506.676C576.935 506.023 577.108 505.301 577.108 504.511C577.108 503.722 576.935 503.006 576.588 502.364C576.241 501.722 575.767 501.21 575.165 500.83C574.568 500.449 573.889 500.259 573.128 500.259C572.548 500.259 572.009 500.378 571.509 500.616C571.009 500.849 570.574 501.17 570.205 501.58C569.841 501.983 569.562 502.446 569.369 502.969C569.182 503.491 569.111 504.04 569.156 504.614C569.219 505.415 569.426 506.134 569.778 506.77C570.136 507.401 570.602 507.898 571.176 508.261C571.756 508.625 572.406 508.807 573.128 508.807Z" fill="#1A1A1A"/>
<path d="M5.6843 458L13.636 442.088V441.977H4.47408V440.545H15.3065V442.045L7.36328 458H5.6843Z" fill="#1A1A1A"/>
<path d="M135.99 391.239C134.877 391.239 133.885 391.028 133.016 390.608C132.147 390.187 131.465 389.614 130.971 388.886C130.476 388.153 130.229 387.327 130.229 386.406C130.229 385.685 130.38 385.011 130.681 384.386C130.982 383.756 131.397 383.227 131.925 382.801C132.453 382.369 133.047 382.088 133.706 381.957V381.864C132.848 381.614 132.158 381.122 131.635 380.389C131.113 379.651 130.854 378.812 130.86 377.875C130.854 377.006 131.076 376.227 131.525 375.54C131.973 374.852 132.584 374.31 133.357 373.912C134.135 373.509 135.013 373.307 135.99 373.307C136.962 373.307 137.834 373.509 138.607 373.912C139.38 374.31 139.99 374.852 140.439 375.54C140.894 376.227 141.124 377.006 141.13 377.875C141.124 378.807 140.86 379.645 140.337 380.389C139.814 381.128 139.127 381.619 138.275 381.864V381.957C138.934 382.082 139.525 382.361 140.047 382.793C140.57 383.224 140.985 383.756 141.292 384.386C141.598 385.011 141.752 385.685 141.752 386.406C141.752 387.327 141.502 388.153 141.002 388.886C140.507 389.614 139.826 390.187 138.956 390.608C138.093 391.028 137.104 391.239 135.99 391.239ZM135.99 389.807C136.82 389.807 137.547 389.659 138.172 389.364C138.803 389.062 139.294 388.651 139.647 388.128C140.005 387.605 140.184 387.006 140.184 386.33C140.184 385.631 139.999 385.009 139.63 384.463C139.26 383.912 138.76 383.477 138.13 383.159C137.499 382.835 136.786 382.673 135.99 382.673C135.195 382.673 134.479 382.835 133.843 383.159C133.212 383.477 132.712 383.912 132.343 384.463C131.979 385.009 131.797 385.631 131.797 386.33C131.797 387.006 131.971 387.605 132.317 388.128C132.669 388.651 133.161 389.062 133.792 389.364C134.428 389.659 135.161 389.807 135.99 389.807ZM135.99 381.31C136.672 381.31 137.283 381.165 137.823 380.875C138.363 380.585 138.789 380.19 139.101 379.69C139.419 379.185 139.581 378.611 139.587 377.969C139.581 377.332 139.422 376.77 139.11 376.281C138.797 375.787 138.371 375.403 137.831 375.131C137.297 374.852 136.684 374.713 135.99 374.713C135.297 374.713 134.678 374.852 134.132 375.131C133.593 375.403 133.167 375.787 132.854 376.281C132.547 376.77 132.397 377.332 132.402 377.969C132.397 378.611 132.55 379.185 132.863 379.69C133.181 380.19 133.61 380.585 134.15 380.875C134.695 381.165 135.309 381.31 135.99 381.31Z" fill="#1A1A1A"/>
<path d="M96.8807 292.307C97.608 292.312 98.3125 292.46 98.9943 292.75C99.6818 293.034 100.301 293.494 100.852 294.131C101.403 294.761 101.841 295.602 102.165 296.653C102.489 297.699 102.651 298.986 102.651 300.514C102.651 301.94 102.526 303.247 102.276 304.435C102.026 305.622 101.651 306.651 101.151 307.52C100.656 308.384 100.031 309.054 99.2756 309.531C98.5256 310.003 97.6477 310.239 96.642 310.239C95.7045 310.239 94.8722 310.043 94.1449 309.651C93.4233 309.259 92.8381 308.716 92.3892 308.023C91.9403 307.324 91.6619 306.517 91.554 305.602H93.1222C93.2756 306.534 93.6506 307.301 94.2472 307.903C94.8494 308.506 95.6477 308.807 96.642 308.807C98.0682 308.807 99.1761 308.142 99.9659 306.812C100.756 305.483 101.151 303.591 101.151 301.136H101.04C100.767 301.648 100.409 302.094 99.9659 302.474C99.5284 302.855 99.0284 303.153 98.4659 303.369C97.9034 303.58 97.3097 303.685 96.6847 303.685C95.7131 303.685 94.8239 303.44 94.017 302.952C93.2102 302.457 92.5653 301.784 92.0824 300.932C91.5994 300.074 91.358 299.097 91.358 298C91.358 296.966 91.5852 296.017 92.0398 295.153C92.5 294.284 93.142 293.591 93.9659 293.074C94.7955 292.551 95.767 292.295 96.8807 292.307ZM96.8807 293.739C96.125 293.739 95.446 293.932 94.8438 294.318C94.2472 294.699 93.7727 295.213 93.4205 295.861C93.0739 296.503 92.9006 297.216 92.9006 298C92.9006 298.79 93.0739 299.509 93.4205 300.156C93.7727 300.798 94.2472 301.31 94.8438 301.69C95.446 302.065 96.125 302.253 96.8807 302.253C97.4602 302.253 98 302.136 98.5 301.903C99 301.665 99.4318 301.341 99.7955 300.932C100.165 300.523 100.443 300.06 100.631 299.543C100.824 299.02 100.901 298.472 100.861 297.898C100.793 297.102 100.58 296.392 100.222 295.767C99.8693 295.136 99.4034 294.642 98.8239 294.284C98.25 293.92 97.6023 293.739 96.8807 293.739Z" fill="#1A1A1A"/>
</svg>
